<svg width="288" height="752" viewBox="0 0 288 752" fill="none" xmlns="http://www.w3.org/2000/svg">
<path d="M9.06165 302.357C19.9821 302.357 30.4381 302.357 41.5909 302.357H80.1608C86.4343 302.357 92.9402 302.357 99.446 300.963C102.166 301.182 104.901 300.8 107.457 299.843C110.012 298.886 112.326 297.379 114.233 295.427C116.141 293.475 117.595 291.127 118.493 288.55C119.391 285.973 119.71 283.23 119.428 280.516C119.428 259.139 117.569 237.995 116.175 216.618C114.781 195.241 112.225 172.005 111.064 149.467C108.74 109.966 106.649 70.4653 104.79 30.9647C103.63 22.6401 103.63 14.1948 104.79 5.87019C106.417 -1.56522 112.69 -1.56523 117.105 3.77898C122.31 13.447 126.216 23.7597 128.722 34.4501C159.857 107.41 190.528 180.602 221.663 253.795C241.412 300.266 261.394 346.738 280.912 393.209C294.156 425.274 290.438 431.083 256.05 431.548C232.815 431.548 210.974 431.548 188.436 431.548C182.163 431.548 162.413 429.921 157.766 434.336C156.927 435.662 156.447 437.183 156.372 438.751C156.066 452.044 156.921 465.339 158.928 478.484C158.928 493.122 160.787 507.993 161.948 522.632C164.039 551.676 166.131 580.488 168.454 609.533C171.01 643.922 173.798 679.24 176.587 712.699C176.587 720.832 177.98 728.964 178.91 735.935C178.91 739.653 181.466 747.32 178.91 750.341C170.08 759.635 161.948 727.105 159.857 721.297L142.199 674.825L106.649 581.882L73.8876 495.214C57.4682 451.995 41.1262 408.777 24.8617 365.558L12.5471 333.028C8.82952 323.269 4.18231 313.743 0 304.216C2.97877 303.408 6.00524 302.787 9.06165 302.357ZM180.304 292.366C176.283 295.345 172.478 298.607 168.919 302.125C168.919 302.125 172.637 308.399 173.334 308.166C177.498 306.047 181.464 303.559 185.183 300.731C183.731 297.77 182.102 294.899 180.304 292.134V292.366ZM180.304 368.579C179.241 369.962 178.307 371.44 177.516 372.994C177.516 372.994 178.91 375.317 179.142 375.317L183.789 372.064L180.304 368.579Z" fill="#04101F"/>
</svg>
