<svg width="779" height="367" viewBox="0 0 779 367" fill="none" xmlns="http://www.w3.org/2000/svg">
<path d="M611.132 275.962C611.132 275.962 610.339 275.238 610.374 275.169C610.408 275.1 610.856 274.79 610.994 274.652C608.649 273.341 606.063 272.376 603.753 271.031C601.442 269.686 599.132 268.307 596.856 266.927C594.58 265.548 592.304 264.1 589.959 262.686C587.615 261.272 585.201 260.169 583.063 258.755C580.925 257.341 578.649 255.582 576.407 254.168L569.511 249.789C569.304 250.582 568.787 250.823 568.097 250.203C568.097 250.203 567.855 249.582 567.821 249.237C567.993 249.253 568.166 249.253 568.338 249.237C566.131 247.823 564.062 246.237 561.855 244.789L555.372 240.375C553.2 238.892 550.786 237.754 548.648 236.237C546.51 234.72 544.338 233.271 542.2 231.72L535.82 227.099C533.717 225.547 531.82 223.65 529.717 222.133L523.475 217.374C521.372 215.788 519.268 214.236 517.199 212.616C515.13 210.995 513.164 209.167 511.13 207.65C509.095 206.133 506.992 204.408 504.957 202.753C502.923 201.098 500.923 199.512 498.957 197.857C496.991 196.201 494.819 194.719 492.854 193.029C490.888 191.339 489.06 189.581 487.095 187.822C485.129 186.063 483.405 184.373 481.474 182.477C479.543 180.58 477.543 179.028 475.646 177.373C473.749 175.718 471.749 173.925 469.853 172.201C467.956 170.477 466.404 168.442 464.439 166.649C462.473 164.856 460.646 163.201 458.784 161.304C456.922 159.407 455.335 157.649 453.335 155.821C451.335 153.993 449.542 152.373 447.714 150.442C445.887 148.51 443.99 146.993 442.197 144.993C440.404 142.993 438.955 140.959 437.162 139.062C435.369 137.165 433.438 135.613 431.679 133.579C429.921 131.544 428.472 129.51 426.748 127.613L421.61 121.786C419.92 119.855 418.162 117.889 416.576 115.923C414.989 113.958 412.782 112.475 411.127 110.337C409.472 108.199 407.679 106.302 406.231 104.302C407.338 106.591 408.618 108.793 410.058 110.889C411.92 114.337 411.782 114.337 413.507 117.786C415.231 121.234 415.472 121.234 417.334 124.372C419.196 127.51 419.162 127.82 421.059 131.027C422.955 134.234 422.886 134.476 424.783 137.648C426.679 140.821 427.059 140.717 428.955 144.028C430.852 147.338 430.472 147.476 432.404 150.924C434.335 154.373 434.197 154.373 436.059 157.614C437.921 160.856 438.266 160.752 440.128 164.097C441.99 167.442 441.749 167.545 443.576 170.994C445.404 174.442 445.783 174.132 447.68 177.442C449.576 180.753 449.266 180.891 451.128 184.339C452.99 187.787 453.266 187.512 455.128 190.856C456.991 194.201 456.715 194.305 458.577 197.753C460.439 201.202 460.508 201.029 462.404 204.374C464.301 207.719 464.335 207.822 466.198 210.995C468.06 214.167 468.232 214.236 470.094 217.581C471.956 220.926 471.818 221.03 473.543 224.478C475.267 227.926 475.508 227.719 477.405 231.064C479.301 234.409 479.336 234.34 481.233 237.685C483.129 241.03 482.957 241.134 484.853 244.582C486.75 248.03 486.612 248.03 488.302 251.306C489.991 254.582 490.543 254.444 492.405 257.755C494.267 261.065 494.336 261.203 496.233 264.41C498.129 267.617 497.991 267.858 499.854 271.134C501.716 274.41 501.405 274.583 503.302 278.031C505.199 281.479 505.543 281.135 507.44 284.48C509.337 287.824 508.992 287.928 510.888 291.376C512.785 294.825 513.026 294.583 514.923 297.894C516.82 301.204 516.889 301.342 518.785 304.48C520.682 307.618 520.406 307.928 522.233 311.377C524.061 314.825 524.268 314.618 526.165 317.963C528.061 321.308 527.958 321.412 529.854 324.86C531.751 328.308 531.441 328.308 533.303 331.757C535.165 335.205 535.579 334.86 537.475 338.205C539.372 341.55 539.2 341.653 540.924 345.102C542.648 348.55 542.958 348.343 544.855 351.688C546.751 355.033 546.613 355.136 548.51 358.585C550.407 362.033 548.924 363.378 552.234 365.482C555.545 367.585 556.096 365.482 559.924 365.482C563.752 365.482 563.752 365.482 567.58 365.482C571.407 365.482 571.407 365.482 575.201 365.482C578.994 365.482 579.028 365.275 582.856 365.275C586.683 365.275 586.684 365.275 590.511 365.275C594.339 365.275 594.304 365.516 598.132 365.516C601.96 365.516 601.925 365.516 605.753 365.516C609.581 365.516 609.581 365.516 613.408 365.516C617.236 365.516 617.202 365.516 621.029 365.516H628.685C632.512 365.516 632.512 365.516 636.34 365.516C640.168 365.516 640.168 365.758 643.995 365.758C647.823 365.758 647.823 365.378 651.651 365.378C655.478 365.378 655.478 365.378 659.341 365.378C663.203 365.378 663.306 366.723 667.03 365.827C668.548 363.585 669.824 361.033 671.341 358.93C672.858 356.826 674.789 354.688 676.203 352.447C677.617 350.205 678.962 347.792 680.479 345.55C681.996 343.309 683.927 341.309 685.376 339.067C686.824 336.826 688.514 334.688 690.031 332.446C691.548 330.205 692.859 327.86 694.376 325.55L698.893 318.929C696.583 318.032 694.376 317.101 691.997 316.17C689.617 315.239 687.514 314.032 685.1 313.067C682.686 312.101 680.445 311.377 678.203 310.411C675.962 309.446 673.548 308.584 671.306 307.584C669.065 306.584 666.824 305.411 664.582 304.377C662.341 303.342 659.927 302.583 657.685 301.549C655.444 300.514 653.203 299.342 650.789 298.273C648.375 297.204 646.444 295.859 644.237 294.825C642.03 293.79 639.823 292.514 637.616 291.376C635.409 290.238 633.064 289.376 630.719 288.238C628.374 287.1 626.34 285.893 624.167 284.79C621.995 283.686 619.822 282.376 617.65 281.342C615.477 280.307 613.133 279.307 610.96 278.1C610.667 278.201 610.367 278.281 610.063 278.342L611.132 275.962ZM498.578 228.789C497.164 228.789 495.888 228.237 496.026 226.823C496.164 225.409 497.578 224.271 499.233 223.823C500.888 223.375 501.923 223.547 502.13 224.823C502.509 227.271 500.44 228.271 498.681 228.789H498.578ZM509.026 257.927C508.406 257.927 507.268 257.168 507.164 256.617C506.957 255.41 507.681 254.479 509.44 253.996C509.691 253.971 509.945 254 510.183 254.082C510.422 254.163 510.64 254.295 510.823 254.469C511.006 254.642 511.15 254.853 511.245 255.087C511.339 255.32 511.382 255.572 511.371 255.824C511.385 256.125 511.332 256.425 511.215 256.703C511.099 256.981 510.922 257.23 510.697 257.431C510.473 257.632 510.207 257.781 509.918 257.867C509.629 257.953 509.324 257.973 509.026 257.927V257.927ZM515.544 236.823C513.475 236.823 511.612 235.72 512.095 233.133C512.268 232.37 512.714 231.696 513.349 231.239C513.984 230.782 514.765 230.572 515.544 230.651C517.716 230.651 518.992 232.133 518.992 234.926C518.992 236.513 516.957 236.927 515.544 236.823V236.823ZM528.992 264.41C528.579 264.41 528.199 264.065 528.337 263.686C528.475 263.307 528.82 263.686 529.165 263.893C529.51 264.1 529.372 264.376 528.992 264.41V264.41ZM551.614 245.478C551.165 245.478 550.648 245.479 550.717 244.927C550.786 244.375 551.234 244.685 551.683 244.927C552.131 245.168 552.027 245.41 551.683 245.548L551.614 245.478ZM560.614 302.342C559.683 302.618 558.752 302.342 558.648 301.411C558.441 299.894 559.648 299.48 560.924 299.687C561.476 299.687 562.131 300.446 562.614 300.963C562.028 301.446 561.235 301.894 560.614 302.342V302.342ZM577.856 342.102C577.856 341.826 577.373 341.309 577.476 341.24C578.132 340.584 578.408 340.791 578.442 341.723C578.166 341.723 578.132 341.998 577.856 342.102ZM582.373 332.067C583.545 328.86 584.925 327.032 587.994 328.17C588.27 331.619 586.339 332.377 582.373 332.067ZM591.442 289.928C590.959 289.583 590.304 289.238 589.822 288.894C590.342 288.53 590.896 288.218 591.477 287.962C591.629 287.924 591.789 287.925 591.94 287.968C592.091 288.01 592.229 288.092 592.339 288.204C592.787 288.997 592.339 289.652 591.442 289.928V289.928ZM601.787 302.549C600.822 302.549 600.477 301.721 601.098 301.032C601.718 300.342 601.856 301.032 602.132 301.204C602.449 301.41 602.69 301.712 602.822 302.066C602.546 302.066 602.029 302.583 601.787 302.549V302.549ZM673.582 338.619C673.729 338.961 673.833 339.32 673.893 339.688C673.272 340.412 672.582 340.274 671.927 339.688C671.674 339.364 671.497 338.987 671.41 338.584C672.099 338.584 672.893 338.584 673.582 338.584V338.619ZM621.857 346.722C621.236 346.722 620.581 346.722 619.926 346.722C620.65 346.722 621.305 346.998 621.995 346.964C622.684 346.929 622.477 346.964 622.684 347.24C622.891 347.516 622.236 346.998 621.857 346.861V346.722ZM663.686 338.377C663.757 338.42 663.816 338.481 663.857 338.554C663.898 338.626 663.92 338.708 663.92 338.791C663.92 338.875 663.898 338.957 663.857 339.029C663.816 339.102 663.757 339.162 663.686 339.205C663.306 339.205 663.341 338.929 663.272 338.55C663.203 338.171 663.479 338.136 663.789 338.377H663.686ZM662.858 310.308C661.419 311.889 659.825 313.322 658.099 314.584C657.236 315.216 656.205 315.577 655.136 315.62C654.067 315.663 653.01 315.386 652.099 314.825C650.201 313.717 648.621 312.137 647.513 310.239C650.099 310.239 652.513 309.549 655.271 309.377C657.834 309.263 660.399 309.578 662.858 310.308V310.308ZM629.926 329.826C630.236 330.033 630.685 330.136 630.995 330.343C631.305 330.55 630.478 330.791 630.305 331.136C629.995 330.964 629.34 331.136 629.305 330.86C629.271 330.584 629.754 330.17 629.926 329.826V329.826ZM622.167 312.825C622.756 313.1 623.321 313.423 623.857 313.791C623.409 314.204 622.891 314.411 622.443 314.791C622.133 314.274 621.547 314.101 621.305 313.549C621.064 312.997 622.064 312.791 622.167 312.825" fill="#EA8C23"/>
<path d="M512.821 103.691L510.407 106.105L512.821 103.691Z" fill="#EA8C23"/>
<path d="M777.489 350.935C775.592 347.486 775.385 347.486 773.489 344.314C771.592 341.141 772.075 340.658 770.04 337.417C768.006 334.175 767.592 334.348 765.695 330.968C763.799 327.589 763.902 327.52 762.005 324.072C760.109 320.623 760.281 320.623 758.557 317.175C756.833 313.727 756.316 314.003 754.419 310.623C752.522 307.244 752.971 307.175 750.971 303.726C748.971 300.278 749.109 300.278 747.178 296.83C745.246 293.381 745.212 293.381 743.315 290.14C741.419 286.898 741.177 286.898 739.281 283.553C737.384 280.208 737.557 280.105 735.66 276.657C733.763 273.208 733.97 273.208 732.212 269.76C730.453 266.311 730.35 266.311 728.453 262.863C726.556 259.415 726.039 259.794 724.142 256.449L720.315 249.759C718.418 246.311 718.453 246.311 716.556 242.863C714.659 239.414 715.142 239.414 713.108 235.966C711.073 232.518 711.245 232.518 709.349 229.242C707.452 225.966 707.349 225.793 705.452 222.345C703.556 218.896 703.694 218.896 701.797 215.448C699.9 212 699.797 212.172 697.9 208.793C696.004 205.413 695.935 205.344 694.038 202.137C692.141 198.93 691.762 198.965 689.9 195.586C688.038 192.206 688.21 192.137 686.452 188.689C684.693 185.241 684.865 185.241 683.003 181.792C681.141 178.344 680.9 178.516 679.003 175.137C677.107 171.757 676.934 171.895 675.038 168.516C673.141 165.136 673.52 165.068 671.589 161.619C669.658 158.171 669.555 158.171 667.658 154.929C665.762 151.688 665.865 151.481 663.968 148.033C662.072 144.584 661.796 144.826 659.865 141.446C657.934 138.067 657.761 138.205 655.865 134.825C653.968 131.446 654.485 131.17 652.416 127.929C650.347 124.687 650.106 124.791 648.209 121.411C646.313 118.032 646.761 117.756 644.761 114.515L641.002 107.618C639.106 104.169 639.14 104.169 637.244 100.721C635.347 97.2727 634.657 97.7554 632.726 94.376C630.795 90.9966 631.347 90.7207 629.485 87.4793C627.623 84.2378 627.45 84.0309 625.554 80.7894C623.657 77.548 623.898 77.3411 622.105 73.8927C620.312 70.4443 620.071 70.4443 618.174 67.2029C616.277 63.9614 616.312 63.7545 614.415 60.3061L610.657 53.4094C608.726 49.961 608.105 50.3749 606.208 46.9955C604.312 43.6161 604.829 43.3058 602.76 39.9264C600.691 36.547 601.001 36.478 599.07 33.0296C597.139 29.5813 596.725 29.8916 594.794 26.5122C593.491 23.9441 591.765 21.6129 589.691 19.6155C587.376 17.8779 584.789 16.5376 582.035 15.6497C579.453 14.8084 576.75 14.4007 574.035 14.4429C570.173 14.236 570.138 14.6153 566.242 14.4429C562.345 14.2705 562.414 13.7186 558.517 13.4773C554.621 13.2359 554.655 13.4773 550.759 13.1325C546.862 12.7877 546.896 13.1326 543 12.7532C539.103 12.3739 539.138 12.7532 535.241 12.5463C531.344 12.3394 531.379 12.029 527.482 11.7876C523.585 11.5462 523.585 11.7877 519.689 11.5119C515.792 11.236 515.792 11.5117 511.93 11.1324C508.068 10.7531 508.033 10.7186 504.171 10.4772C500.309 10.2358 500.274 10.0291 496.412 9.78769C492.55 9.54631 492.481 10.167 488.584 9.78769C484.688 9.40837 484.688 9.78753 480.826 9.40821C476.963 9.02889 476.929 8.9944 473.067 8.75302C469.205 8.51163 469.205 7.95993 465.308 7.71855C461.411 7.47716 461.377 8.13234 457.48 7.92544C453.584 7.71854 453.618 7.16688 449.721 6.92549C445.825 6.68411 445.825 7.16688 441.928 6.92549C438.031 6.68411 438.031 6.92543 434.135 6.64956C430.238 6.37369 430.238 6.02886 426.376 5.78747C422.514 5.54609 422.445 5.78747 418.583 5.78747C414.72 5.78747 414.686 5.40821 410.824 5.20131C406.962 4.99441 406.962 4.47705 403.065 4.23567C399.168 3.99428 399.134 4.71846 395.237 4.47708C391.341 4.23569 391.341 3.99444 387.444 3.75305C383.547 3.51167 383.547 3.75306 379.651 3.54616C375.754 3.33926 375.754 3.09783 371.857 2.85644C367.961 2.61506 367.961 2.51146 364.064 2.27007C360.167 2.02869 360.167 1.95984 356.236 1.75294C352.305 1.54604 350.34 -1.90238 348.408 1.47701C346.477 4.85641 350.201 5.20123 352.202 8.78753C354.202 12.3738 354.512 12.2359 356.512 15.6843C358.512 19.1326 358.719 19.1326 360.788 22.581C362.133 24.719 363.202 27.064 364.581 29.202C365.961 31.34 367.133 33.6503 368.547 35.7538C369.961 37.8573 371.478 39.9608 372.892 42.0644C374.306 44.1679 375.926 46.1679 377.375 48.2714C378.823 50.3749 380.202 52.5474 381.651 54.6165C383.099 56.6855 384.72 58.7199 386.203 60.789C387.685 62.858 388.892 65.1683 390.41 67.2029C391.927 69.2374 393.858 70.9616 395.444 72.9961C397.03 75.0306 398.617 76.9962 400.168 79.0307C401.72 81.0653 402.789 83.4791 404.341 85.4792C405.893 87.4792 407.996 89.0999 409.617 91.0655C411.238 93.0311 412.41 95.376 414.031 97.3416C415.651 99.3071 417.652 100.79 419.307 102.928C420.962 105.066 422.169 107.204 423.824 109.135C425.479 111.066 427.066 113.066 428.755 114.997C430.445 116.928 432.445 118.446 434.135 120.446C435.824 122.446 437.583 124.135 439.376 126.032C441.169 127.929 442.825 129.894 444.445 131.756C446.066 133.619 447.652 135.756 449.411 137.584C451.17 139.412 453.239 141.032 455.032 142.826C456.825 144.619 458.756 146.274 460.584 148.102C462.411 149.929 464.032 151.895 465.825 153.688C467.618 155.481 469.791 156.929 471.653 158.688C473.515 160.447 475.101 162.136 477.101 164.033C479.102 165.93 480.55 167.826 482.412 169.55C484.274 171.275 486.067 172.999 487.964 174.826C489.86 176.654 492.033 177.93 493.964 179.62C495.895 181.309 497.723 183.068 499.654 184.723C501.585 186.378 503.447 188.172 505.412 189.792C507.378 191.413 509.654 192.689 511.654 194.275C513.654 195.862 515.585 197.724 517.585 199.31C519.585 200.896 521.413 202.758 523.482 204.482C525.551 206.206 527.586 207.655 529.655 209.241C531.724 210.827 533.827 212.345 535.931 213.896C538.034 215.448 540.241 216.793 542.345 218.31C544.448 219.828 546.62 221.276 548.758 222.793C550.896 224.31 552.586 226.242 554.724 227.862L561.173 232.242C563.345 233.69 565.793 234.69 568.069 236.138C570.345 237.587 572.449 238.932 574.621 240.345C576.794 241.759 578.897 243.345 581.07 244.759C583.242 246.173 585.242 247.897 587.484 249.242C589.725 250.587 591.967 251.897 594.174 253.242L601.07 257.208C603.277 258.553 605.622 259.725 607.967 261.036C610.312 262.346 612.346 263.829 614.622 265.105C616.898 266.381 619.416 267.208 621.519 268.553L628.416 272.312C630.692 273.519 633.071 274.622 635.313 275.76C637.554 276.898 639.761 278.519 642.209 279.657C644.658 280.795 646.83 282.071 649.106 283.105L656.003 286.553V286.002C656.899 285.726 657.899 286.002 658.106 286.795C660.348 287.864 662.348 289.243 664.589 290.243C666.831 291.243 669.038 292.45 671.486 293.45C673.934 294.45 676.072 295.416 678.383 296.416C680.693 297.416 683.107 297.933 685.279 298.933C687.452 299.933 689.555 301.519 691.866 302.381C694.176 303.244 696.659 303.726 698.969 304.657C701.28 305.588 703.693 307.071 705.866 308.106C707.969 304.899 709.901 301.209 711.866 298.243C711.211 296.864 711.039 295.933 710.314 294.416C711.383 293.312 712.073 292.036 713.073 290.967C715.329 291.906 717.488 293.061 719.522 294.416C721.549 295.685 723.495 297.078 725.349 298.588C727.35 299.951 729.272 301.424 731.108 303.002C732.685 304.825 734.126 306.761 735.418 308.795C736.487 310.244 738.246 311.382 736.867 313.347C736.321 314.407 735.51 315.307 734.513 315.959C733.516 316.612 732.366 316.995 731.177 317.072C729.791 316.718 728.449 316.209 727.177 315.554C725.625 315.003 723.97 314.071 722.28 313.382C721.142 314.796 720.591 316.347 719.797 317.485C718.211 319.692 716.349 321.727 714.866 323.934C713.384 326.141 711.418 328.21 709.97 330.417C708.521 332.624 706.866 334.831 705.28 337.003C703.694 339.175 702.038 341.314 700.452 343.52C698.866 345.727 697.383 347.969 695.831 350.176C694.28 352.383 692.383 354.314 690.728 356.486C689.073 358.659 687.9 361.245 686.314 363.383C689.762 364.693 690.176 363.383 694.004 363.383C697.831 363.383 697.797 363.107 701.59 363.107C705.383 363.107 705.418 363.452 709.211 363.452C713.004 363.452 713.039 362.831 716.832 362.831C720.625 362.831 720.66 362.831 724.453 362.831C728.246 362.831 728.28 362.831 732.074 362.831C735.867 362.831 735.901 363.073 739.729 363.073C743.557 363.073 743.522 363.073 747.35 363.073C751.178 363.073 751.177 363.28 754.971 363.28H762.626C766.454 363.28 766.454 363.452 770.281 363.452C771.785 363.373 773.241 362.901 774.505 362.085C775.77 361.268 776.798 360.134 777.489 358.797C778.266 357.545 778.695 356.108 778.731 354.635C778.768 353.162 778.41 351.706 777.695 350.417L777.489 350.935ZM403.237 53.513C402.655 53.213 402.091 52.8789 401.548 52.5128C401.755 52.2714 402.134 51.9612 402.203 51.9957C402.272 52.0301 403.651 52.306 404.134 52.6509C403.883 52.9844 403.58 53.2754 403.237 53.513V53.513ZM400.961 31.4778C400.659 31.4366 400.368 31.3339 400.106 31.176C399.844 31.0181 399.618 30.8084 399.44 30.5598C399.262 30.3111 399.137 30.0286 399.073 29.7299C399.008 29.4311 399.006 29.1224 399.065 28.8225C399.341 27.5811 400.582 27.4087 401.824 27.3052C403.065 27.2018 404.375 27.8571 404.341 29.133C404.341 31.0296 402.755 31.8572 400.892 31.4778H400.961ZM421.1 81.0999C420.1 81.3413 419.307 80.8929 419.445 79.9619C419.704 78.9593 420.242 78.0506 420.996 77.3411C421.133 77.2207 421.303 77.1466 421.484 77.1289C421.665 77.1113 421.846 77.151 422.003 77.2428C422.16 77.3345 422.284 77.4735 422.357 77.6397C422.43 77.806 422.449 77.9911 422.41 78.1686C422.081 79.19 421.641 80.1729 421.1 81.0999V81.0999ZM456.101 74.0308C455.805 74.3686 455.441 74.6389 455.032 74.8238C454.549 74.3066 454.584 73.6514 454.17 73.0996C454.825 72.7548 455.273 71.7204 455.825 71.8583C456.377 71.9962 456.756 73.2377 456.101 74.0308V74.0308ZM459.86 36.7194C459.273 34.8918 458.411 33.7882 458.618 32.9261C458.825 32.064 460.204 32.3399 461.032 31.8916C461.342 32.5468 462.411 33.0986 462.239 33.6503C462.067 34.2021 460.894 35.2021 459.86 36.7194ZM536.103 52.3749C536.62 52.3749 537.275 53.3059 537.724 53.8232C537.413 55.1336 536.31 55.513 535.034 55.6509C533.758 55.7889 533.241 55.4439 533.448 54.4784C533.57 53.8703 533.904 53.3252 534.39 52.94C534.876 52.5549 535.483 52.3546 536.103 52.3749V52.3749ZM533.448 91.2036C533.67 90.8707 533.96 90.5882 534.299 90.3743C534.637 90.1605 535.017 90.0201 535.413 89.9622C536.827 89.9622 537.275 91.0656 537.103 92.7209C537.028 92.989 536.9 93.2396 536.727 93.4579C536.554 93.6763 536.339 93.858 536.095 93.9927C535.852 94.1275 535.583 94.2125 535.307 94.2428C535.03 94.273 534.749 94.248 534.482 94.1691C534.183 94.0896 533.907 93.9378 533.68 93.7271C533.452 93.5165 533.28 93.2534 533.178 92.9608C533.076 92.6682 533.047 92.355 533.094 92.0486C533.141 91.7423 533.263 91.4522 533.448 91.2036V91.2036ZM528.93 45.7886C529.137 46.0645 529.585 46.2713 529.792 46.5127C529.732 46.6652 529.638 46.8028 529.519 46.9159C529.4 47.029 529.258 47.1149 529.103 47.1679C528.379 47.5472 527.758 47.4094 527.896 46.4438C527.896 46.168 528.654 46.03 528.93 45.7886V45.7886ZM524.378 48.7542C524.378 49.168 524.379 49.6852 523.827 49.5818C523.275 49.4783 523.827 49.099 523.827 48.6852C523.827 48.2714 524.206 48.4093 524.275 48.6852L524.378 48.7542ZM484.274 38.3401C484.274 38.9952 484.274 39.8228 484.274 40.4435C482.722 40.6504 481.205 40.4435 479.619 40.4435C479.619 39.4435 479.171 38.478 479.067 37.4434C480.722 37.4434 482.515 38.0298 484.171 38.2022L484.274 38.3401ZM470.584 39.4781C469.894 39.4781 468.17 37.7883 468.342 37.2711C468.543 36.6555 468.885 36.0951 469.34 35.6342C469.795 35.1734 470.35 34.8246 470.963 34.6158C471.894 34.6158 473.343 35.6503 475.515 37.202C473.999 38.2114 472.336 38.9793 470.584 39.4781ZM476.067 48.5473C476.791 48.5473 477.757 47.6851 478.274 47.9609C478.791 48.2368 478.55 49.2714 478.894 49.961C478.239 50.3404 477.757 51.0645 477.136 51.4438C476.722 50.5472 476.481 49.4094 476.067 48.5473ZM486.826 126.411C484.094 126.252 481.51 125.113 479.55 123.204C478.855 122.077 478.398 120.819 478.209 119.508C478.019 118.197 478.1 116.862 478.446 115.584C481.55 115.342 483.619 114.618 485.343 114.687C488.55 114.687 489.481 116.239 488.791 119.618C488.481 121.308 487.653 123.48 486.826 126.515V126.411ZM511.827 108.411C510.62 108.859 510.068 107.308 510.068 106.135C510.068 106.135 510.068 106.135 509.861 106.135L510.275 106.583L509.964 106.238C509.964 106.238 509.964 106.238 510.206 106.238C510.447 106.238 509.826 106.031 509.826 106.238C509.826 106.445 510.309 106.48 510.378 106.238V105.997C508.654 104.514 505.516 102.859 507.999 100.652C510.482 98.4451 511.447 102.031 512.826 103.48V103.721C513.102 105.411 514.516 107.514 511.964 108.411H511.827ZM519.413 98.3072C519.359 97.9458 519.39 97.5768 519.503 97.2296C519.617 96.8823 519.81 96.5664 520.068 96.3071C521.137 95.6174 521.999 96.3071 522.689 97.3761C522.413 98.0313 522.689 99.1004 522.31 99.4452C522.05 99.5928 521.761 99.6803 521.463 99.7016C521.166 99.7229 520.867 99.6772 520.589 99.5681C520.312 99.459 520.062 99.2892 519.858 99.071C519.655 98.8528 519.502 98.5918 519.413 98.3072ZM520.275 188.206C520.275 188.206 520.93 187.827 521.241 187.723C521.292 187.843 521.318 187.972 521.318 188.103C521.318 188.233 521.292 188.362 521.241 188.482C520.447 189.137 520.24 189.172 520.378 188.206H520.275ZM521.827 184.413C520.999 184.413 520.585 183.792 521.034 183.102C521.034 183.102 521.723 183.102 521.965 183.344C522.206 183.585 522.689 183.62 522.827 183.896C522.541 184.148 522.198 184.325 521.827 184.413V184.413ZM523.482 177.309C522.861 177.309 521.654 176.551 521.585 175.999C521.378 174.792 522.137 173.964 523.896 173.516C524.145 173.464 524.402 173.469 524.649 173.53C524.895 173.592 525.125 173.708 525.321 173.87C525.516 174.033 525.672 174.237 525.778 174.468C525.884 174.699 525.936 174.952 525.93 175.206C525.929 175.512 525.861 175.814 525.733 176.092C525.604 176.369 525.418 176.616 525.186 176.816C524.953 177.015 524.681 177.162 524.387 177.247C524.093 177.333 523.785 177.354 523.482 177.309ZM527.62 76.3411L528.517 75.5824C528.31 75.8582 527.792 75.9962 527.62 76.2721C527.447 76.548 527.62 76.479 527.62 76.2721V76.3411ZM528.344 106.238C529.626 104.423 531.145 102.788 532.861 101.376C534.862 100.585 536.962 100.074 539.103 99.859C538.067 101.906 536.781 103.817 535.275 105.549C534.289 106.262 533.131 106.702 531.92 106.823C530.709 106.944 529.487 106.742 528.379 106.238H528.344ZM537.551 136.17C537.793 137.101 537.344 137.894 536.379 137.86C536.069 137.86 535.862 137.239 535.827 136.998C535.62 136.032 535.827 135.239 536.724 135.205C537.081 135.447 537.367 135.78 537.551 136.17V136.17ZM535.31 141.826C535.31 141.377 536.482 140.998 537.069 140.688C537.344 141.343 537.069 142.032 537.482 142.653C536.862 142.998 536.482 143.688 535.862 144.033C535.62 143.377 535.137 142.377 535.31 141.826ZM538 188.172C536.517 188.172 536.172 186.93 536.827 185.896C537.138 185.413 538.069 185.654 538.689 185.309C538.931 185.965 539.586 186.344 539.827 186.965C539.31 187.448 538.482 188.206 538 188.172V188.172ZM541.448 119.204C540.344 119.204 540 118.342 540.827 117.549C541.034 117.342 541.62 117.756 541.896 117.894C542.241 118.079 542.518 118.369 542.689 118.721C542.32 118.979 541.894 119.145 541.448 119.204V119.204ZM552.276 70.9272C551.931 70.6858 551.896 70.0651 552.276 69.9272C552.655 69.7893 552.69 70.2375 552.793 70.6858C552.897 71.134 552.793 71.203 552.241 70.9272H552.276ZM584.759 147.274C584.759 147.033 584.311 146.55 584.415 146.412C584.518 146.274 584.966 146.584 585.242 146.412C585.518 146.24 585.897 146.964 585.794 147.101C585.69 147.239 585.035 147.101 584.759 147.101V147.274ZM606.657 111.445C606.829 112.79 606.105 113.79 604.105 113.721C603.449 113.721 602.76 112.825 602.656 111.583C602.553 110.342 603.001 109.032 604.381 109.066C604.982 109.123 605.544 109.395 605.961 109.832C606.379 110.269 606.626 110.842 606.657 111.445V111.445ZM606.45 173.723C606.453 173.818 606.432 173.913 606.388 173.998C606.345 174.082 606.28 174.154 606.2 174.206C606.12 174.259 606.028 174.289 605.933 174.295C605.837 174.301 605.742 174.282 605.656 174.24C605.346 174.033 605.657 173.826 606.036 173.585C606.415 173.344 606.484 173.344 606.45 173.585V173.723ZM596.794 82.0653C599.794 81.6515 598.656 83.5136 597.691 84.6171C597.242 85.1343 596.518 84.962 595.863 85.3413C594.76 83.6516 595.484 82.2377 596.794 82.0653ZM598.174 97.2037C602.415 94.6519 602.484 99.1004 604.001 100.963C604.001 100.963 604.001 100.583 604.001 100.687C601.932 102.514 600.553 105.445 597.105 106.135C596.359 105.599 595.771 104.872 595.402 104.031C595.032 103.19 594.895 102.266 595.004 101.354C595.113 100.442 595.465 99.5761 596.022 98.8462C596.58 98.1163 597.323 97.5491 598.174 97.2037ZM600.553 149.24C600.541 149.322 600.509 149.4 600.46 149.468C600.411 149.535 600.347 149.59 600.273 149.627C600.198 149.664 600.116 149.683 600.032 149.681C599.949 149.68 599.867 149.659 599.794 149.619C599.553 149.446 599.794 149.308 600.208 149.102C600.622 148.895 600.622 148.895 600.553 149.102V149.24ZM595.484 156.481C595.292 156.746 595.059 156.979 594.794 157.171C594.607 157.015 594.464 156.813 594.38 156.584C594.863 155.86 595.104 155.688 595.484 156.584V156.481ZM594.553 164.688C595.139 164.964 596.277 165.067 596.415 165.481C596.553 165.895 595.691 166.447 595.449 167.068C594.829 166.792 594.036 167.068 593.415 166.654C593.691 166.033 594.242 165.309 594.553 164.688ZM596.449 175.964C596.725 176.171 596.76 176.723 596.449 176.827C596.139 176.93 596.174 176.482 596.07 176.137C595.967 175.792 596.07 175.758 596.484 176.137L596.449 175.964ZM596.277 254.277C596.277 254.277 596.277 254.622 596.277 254.691L596.484 253.897C595.622 253.173 594.311 252.863 593.518 252.07C593.254 251.867 593.039 251.606 592.892 251.307C592.744 251.008 592.667 250.679 592.667 250.346C592.667 250.012 592.744 249.683 592.892 249.384C593.039 249.085 593.254 248.824 593.518 248.621C593.76 248.38 594.38 248.38 594.725 248.38C595.045 248.366 595.364 248.417 595.662 248.531C595.961 248.645 596.234 248.818 596.463 249.041C596.693 249.264 596.874 249.531 596.996 249.827C597.118 250.122 597.179 250.44 597.174 250.76C596.915 251.847 596.593 252.917 596.208 253.966H596.518L596.277 254.277ZM598.174 213.31C597.898 213.31 597.105 213.034 597.105 212.931C597.105 211.896 597.656 211.931 598.346 212.655C598.346 212.655 598.346 213 598.174 213.31V213.31ZM598.484 189.172C598.208 189.172 597.691 189.62 597.518 189.517C596.829 188.965 597.139 188.482 597.898 188.103C598.105 188.103 598.76 187.827 598.863 188.103C598.967 188.378 598.553 188.896 598.484 189.241V189.172ZM603.105 154.757C605.312 158.998 604.657 161.654 599.967 163.274C599.289 161.724 599.237 159.972 599.822 158.384C600.407 156.797 601.583 155.497 603.105 154.757V154.757ZM601.105 232.138C601.105 231.862 600.553 231.449 600.656 231.242C600.76 231.035 601.208 231.242 601.484 231.242C601.76 231.242 602.277 231.759 602.174 231.931C602.07 232.104 601.38 231.931 601.105 232.104V232.138ZM606.553 209.827C606.166 209.686 605.838 209.419 605.622 209.069C605.346 208.207 605.829 207.965 606.794 207.862C607.208 208.345 608.381 208.517 608.415 209.034C608.45 209.551 607.381 210.276 606.553 209.827V209.827ZM606.864 199.482C606.864 199.482 606.346 199.482 606.139 199.275C605.932 199.068 606.519 198.655 606.553 198.551C605.519 198.068 604.208 198.137 603.105 197.586C602.527 197.247 602.087 196.716 601.86 196.086C601.633 195.456 601.634 194.766 601.863 194.137C602.015 193.786 602.247 193.475 602.54 193.229C602.834 192.984 603.18 192.811 603.553 192.723C604.374 192.645 605.192 192.889 605.836 193.404C606.48 193.919 606.898 194.664 607.001 195.482C607.001 196.517 606.243 197.62 606.07 198.689C606.07 198.689 606.07 198.896 606.277 198.93C606.364 198.984 606.44 199.054 606.499 199.137C606.558 199.22 606.6 199.314 606.622 199.413L608.243 200.413C606.967 200.999 606.829 199.999 606.691 199.344L606.864 199.482ZM609.588 192.448C609.588 191.93 609.588 191.275 610.208 191.379C610.829 191.482 610.415 191.999 610.208 192.517C610.001 193.034 609.691 192.93 609.553 192.517L609.588 192.448ZM615.208 236.173C614.726 237.69 614.002 239.621 611.933 239.173C610.691 238.552 610.622 237.414 611.036 236.173C611.45 234.931 612.76 233.276 614.484 234.035C614.967 234.242 615.312 235.656 615.174 236.173H615.208ZM614.967 123.066C613.829 123.584 612.553 123.066 612.588 121.756C612.588 121.273 613.76 120.86 614.346 120.756C615.009 120.743 615.66 120.936 616.208 121.308C615.898 121.894 615.45 122.86 614.967 123.066V123.066ZM616.898 247.966C616.691 247.483 616.898 246.828 617.381 246.863C617.864 246.897 617.622 247.449 617.381 247.932C617.14 248.415 616.967 248.38 616.795 247.932L616.898 247.966ZM618.312 228.345C617.967 228.518 617.588 229.035 617.312 228.966C617.036 228.897 617.071 228.276 617.071 228C617.071 226.931 617.588 226.448 618.415 227.138C618.415 227.311 618.415 228 618.415 228.345H618.312ZM617.312 187.758C617.484 187.447 617.312 186.758 617.691 186.654C618.071 186.551 618.415 187.068 618.381 187.172C618.381 188.344 618.14 188.551 617.312 187.758V187.758ZM621.243 216.103C621.098 215.754 620.972 215.397 620.864 215.034C621.381 214.793 621.967 215.034 622.519 215.034C623.071 215.034 622.967 215.517 623.071 215.828C622.553 215.828 621.76 215.828 621.243 216.207V216.103ZM624.864 166.723C624.519 166.723 624.071 166.723 623.76 166.723C623.45 166.723 624.209 166.309 624.278 165.999C624.347 165.688 625.105 165.654 625.243 165.999C625.381 166.343 624.898 166.757 624.864 167.068V166.723ZM629.554 208.448C629.381 208.172 628.933 207.862 628.933 207.62C628.933 207.379 629.485 207.62 629.726 207.345C629.968 207.069 630.347 207.62 630.485 207.896C630.623 208.172 629.761 208.241 629.554 208.448V208.448ZM634.14 164.654C633.776 164.516 633.438 164.318 633.14 164.068C633.519 163.619 634.243 163.516 634.623 163.067C634.899 163.274 635.312 163.274 635.588 163.481C635.209 163.895 634.554 164.274 634.14 164.654V164.654ZM637.106 244.759C636.992 244.757 636.881 244.728 636.781 244.672C636.682 244.617 636.598 244.538 636.537 244.443C636.475 244.347 636.439 244.238 636.43 244.125C636.42 244.011 636.439 243.898 636.485 243.794C636.692 243.449 637.002 243.794 637.278 244.139C637.554 244.483 637.554 244.759 637.106 244.759V244.759ZM639.83 233.276C639.327 233.283 638.828 233.179 638.369 232.972C637.91 232.765 637.502 232.461 637.174 232.08C636.845 231.699 636.604 231.25 636.467 230.766C636.33 230.281 636.301 229.773 636.382 229.276C636.382 228 637.313 227.414 638.761 227.38C641.037 227.793 642.52 228.897 642.382 231.138C642.352 231.451 642.26 231.755 642.111 232.033C641.963 232.31 641.761 232.555 641.517 232.754C641.274 232.953 640.993 233.101 640.691 233.191C640.39 233.28 640.074 233.31 639.761 233.276H639.83ZM644.071 188.448C643.786 188.28 643.541 188.051 643.356 187.776C643.171 187.502 643.05 187.189 643.002 186.861C643.002 185.62 644.209 185.24 645.451 185.551C646.07 185.818 646.598 186.262 646.968 186.827C646.793 187.391 646.423 187.875 645.924 188.191C645.424 188.507 644.829 188.635 644.244 188.551L644.071 188.448ZM647.209 262.932C647.117 262.873 647.041 262.791 646.988 262.695C646.935 262.599 646.907 262.49 646.907 262.381C646.907 262.271 646.935 262.162 646.988 262.066C647.041 261.97 647.117 261.888 647.209 261.829C647.692 261.622 647.726 262.139 647.864 262.622C648.002 263.104 647.692 263.208 647.244 262.932H647.209ZM654.416 246.38C654.037 245.863 653.416 245.449 653.175 244.863C652.934 244.277 653.761 244.276 653.899 244.311C654.68 244.477 655.442 244.72 656.175 245.035C655.658 245.483 654.899 245.966 654.416 246.38ZM668.831 282.312C668.831 282.002 668.831 281.519 669.244 281.553C669.658 281.588 669.244 282.002 669.244 282.312C669.244 282.622 669.038 282.622 668.934 282.312H668.831ZM663.693 249.932C661.899 247.414 661.83 247.242 667.141 241.863C670.21 243.345 671.244 246.38 673.348 250.242C669.451 250.07 666.451 250.07 663.658 249.932H663.693ZM701.625 279.312C701.176 278.91 700.76 278.472 700.383 278.002C700.582 277.81 700.817 277.657 701.073 277.553C701.487 278.001 702.349 278.208 702.728 278.691C702.38 278.932 702.011 279.139 701.625 279.312" fill="#EA8C23"/>
<path d="M331.548 7.54482C329.686 10.7518 329.927 10.9931 328.099 14.1311C326.272 17.2691 325.651 17.0278 323.789 20.2348C321.927 23.4418 322.582 23.6831 320.72 27.1315C318.858 30.5799 318.72 30.3041 316.858 33.5111C314.996 36.7181 314.754 36.6145 312.892 39.856C311.03 43.0975 311.478 43.3044 309.444 46.7527C307.409 50.2011 307.064 49.7182 305.133 52.9252L300.857 59.2703C299.409 61.3738 298.03 63.5807 296.547 65.6842C295.064 67.7877 293.892 70.1327 292.409 72.2362C290.926 74.3397 289.202 76.3052 287.685 78.4087C286.167 80.5122 284.236 82.4088 282.891 84.4779C281.546 86.5469 279.822 88.6159 278.27 90.6849C276.719 92.7539 275.788 95.3057 274.236 97.3402C272.684 99.3747 271.201 101.513 269.615 103.547C268.029 105.582 266.443 107.616 264.856 109.651C263.27 111.685 261.132 113.306 259.511 115.341L254.684 121.375C253.063 123.375 251.546 125.479 249.925 127.445C248.304 129.41 246.477 131.307 244.821 133.307C243.166 135.307 241.649 137.376 239.994 139.341C238.338 141.307 236.752 143.376 235.097 145.342C233.442 147.307 232.131 149.583 230.407 151.549C228.683 153.514 226.786 155.204 225.097 157.169C223.407 159.135 221.303 160.618 219.614 162.652C217.924 164.687 216.166 166.652 214.614 168.584C213.062 170.515 211.338 172.584 209.579 174.48C207.82 176.377 205.682 177.929 203.924 179.756C202.165 181.584 200.475 183.653 198.751 185.515C197.027 187.377 195.062 189.17 193.303 190.998C191.544 192.826 189.854 194.998 188.165 196.826C186.475 198.653 184.716 200.757 182.958 202.584C181.199 204.412 178.785 205.688 176.957 207.516C175.13 209.343 173.509 211.55 171.819 213.343C170.13 215.136 167.647 216.447 165.785 218.206C163.923 219.964 162.026 221.654 160.129 223.516C158.233 225.378 156.336 226.964 154.474 228.723C152.612 230.482 151.371 232.964 149.474 234.689C147.577 236.413 145.164 237.585 143.267 239.31C141.37 241.034 139.543 242.758 137.612 244.585C135.681 246.413 133.543 247.724 131.612 249.413C129.68 251.103 127.853 252.862 125.922 254.62L119.991 259.276L114.059 264.207C112.094 265.862 110.611 268.172 108.68 269.828C106.749 271.483 104.266 272.517 102.231 274.103C100.197 275.69 98.1278 277.207 96.1277 278.793C94.1277 280.379 92.4726 282.518 90.4726 284.069C88.4725 285.621 86.0587 286.828 84.0241 288.38C81.9896 289.932 80.5757 292.104 78.3343 293.656C76.0928 295.207 73.9203 296.311 71.8513 297.863C69.7823 299.415 68.0581 301.311 65.989 302.897C63.92 304.484 61.4373 305.415 59.3682 306.932C57.2992 308.449 55.2647 310.036 53.1956 311.518C51.1266 313.001 49.0576 314.587 46.9541 316.07C44.8506 317.553 42.7471 319.312 40.6091 320.76C39.5056 319.174 38.5056 317.312 37.4022 315.622C36.2987 313.932 35.0228 312.518 33.9538 310.932C32.8848 309.346 31.1261 306.863 29.8157 304.794C28.5053 302.725 27.4363 300.449 26.1259 298.414C26.7811 297.035 27.5053 296.035 28.2295 294.518C27.1605 293.449 25.7467 292.759 24.7811 291.759C22.6027 292.584 20.5119 293.623 18.5396 294.863C16.4479 296.008 14.4322 297.286 12.505 298.69C10.5739 300.242 8.26343 301.346 6.6427 302.966C5.12254 304.853 3.73971 306.847 2.50473 308.932C1.43573 310.38 -0.943694 311.966 0.401169 313.932C1.13968 314.871 2.0998 315.611 3.19528 316.086C4.29077 316.562 5.4873 316.758 6.67722 316.656C8.03338 316.413 9.34637 315.972 10.5739 315.346C12.1601 314.794 13.8153 314.553 15.4705 313.898C16.6085 315.277 17.8154 316.07 18.6085 317.346C20.1948 319.553 21.6432 321.829 23.1949 324.036C24.7467 326.243 25.8846 328.76 27.4709 330.933C29.0571 333.105 31.333 334.795 32.9192 336.967C34.5055 339.14 35.8159 341.554 37.3677 343.864C38.9194 346.174 40.8161 348.071 42.3678 350.278C43.9196 352.485 45.2644 354.83 46.8161 357.175C48.3679 359.52 49.9197 361.727 51.4715 364.071C54.5573 364.54 57.6961 364.54 60.782 364.071C65.4028 364.071 65.5752 365.071 70.0581 363.83C68.5753 361.658 67.403 359.278 65.9202 357.14C64.4374 355.002 62.6443 353.037 61.196 350.864C59.7477 348.692 57.9889 346.726 56.5061 344.588C55.0233 342.45 53.9198 340.002 52.437 337.691C50.9542 335.381 49.7818 333.519 48.299 331.381L54.4371 327.036C56.5751 325.519 58.5406 323.795 60.6441 322.277C62.7476 320.76 64.989 319.346 67.0925 317.829C69.196 316.311 71.1961 314.622 73.2996 313.104C75.4031 311.587 77.748 310.346 79.8515 308.794C81.955 307.242 83.5412 305.07 85.6103 303.484C87.6793 301.897 89.6794 300.242 91.7484 298.656C93.8175 297.07 96.3693 296.104 98.4383 294.518C100.507 292.931 101.887 290.69 104.059 289.035C106.232 287.38 108.542 286.311 110.576 284.655C112.611 283 114.232 280.897 116.232 279.242C118.232 277.586 120.715 276.483 122.715 274.828C124.715 273.172 126.818 271.586 128.784 269.897C130.749 268.207 132.439 266.138 134.405 264.448C136.37 262.758 138.267 261 140.198 259.207C142.129 257.413 144.267 255.758 146.198 254.207C148.129 252.655 150.439 251.137 152.371 249.379C154.302 247.62 155.819 245.517 157.854 243.758C159.888 241.999 161.474 240.034 163.405 238.275C165.336 236.516 167.44 234.827 169.337 233.171C171.233 231.516 172.785 229.309 174.44 227.551C176.095 225.792 178.164 224.102 179.992 222.378C181.82 220.654 183.992 219.24 185.82 217.481C187.647 215.723 189.544 214.033 191.337 212.274C193.13 210.516 194.544 208.343 196.303 206.516C198.062 204.688 199.958 203.067 201.717 201.205C203.476 199.343 205.372 197.757 207.096 195.826C208.821 193.894 210.096 191.722 211.855 189.894C213.614 188.067 215.303 186.446 217.131 184.446C218.959 182.446 220.924 180.998 222.648 179.205L227.717 173.549C229.407 171.653 231.166 169.721 232.683 167.825C234.2 165.928 235.752 163.79 237.407 161.894C239.063 159.997 240.614 157.963 242.269 156.031C243.925 154.1 246.201 152.755 247.856 150.824C249.511 148.893 250.373 146.445 251.994 144.514C251.049 146.874 249.967 149.177 248.752 151.411C246.787 154.859 246.89 154.859 244.959 158.307C243.028 161.756 242.787 161.514 240.856 164.859C238.925 168.204 238.476 167.928 236.545 171.273C234.614 174.618 234.718 174.722 232.786 178.17L228.924 184.86C226.993 188.308 227.166 188.308 225.235 191.756C223.303 195.205 222.993 194.929 221.062 198.274C219.131 201.619 219.648 201.964 217.614 205.171C215.579 208.378 215.648 208.619 213.717 211.826C211.786 215.033 211.889 215.274 209.958 218.723C208.027 222.171 207.579 221.792 205.648 225.137C203.717 228.482 203.579 228.585 201.648 231.792L197.786 238.482C195.82 241.93 196.406 242.172 194.337 245.379C192.268 248.586 192.544 248.827 190.613 252.275C188.682 255.724 188.199 255.345 186.234 258.724C184.268 262.103 184.13 261.965 182.199 265.31C180.268 268.655 180.371 268.759 178.44 272.207C176.509 275.655 177.027 275.862 174.992 279.104C172.958 282.345 172.268 282 170.337 285.345C168.406 288.69 168.992 289.069 166.888 292.242C164.785 295.414 164.267 295.208 162.336 298.552C160.405 301.897 160.681 302.001 158.888 305.449C157.095 308.898 156.647 308.622 154.716 311.967C152.785 315.312 153.336 315.656 151.267 318.863C149.198 322.07 149.026 322.036 147.095 325.415C145.164 328.795 145.026 328.691 143.06 332.036C141.095 335.381 141.715 335.76 139.784 339.14C137.853 342.519 137.198 342.14 135.232 345.485C133.267 348.83 133.129 348.933 131.198 352.14C130.657 353.346 130.446 354.674 130.585 355.988C130.725 357.303 131.21 358.557 131.991 359.623C132.545 360.777 133.403 361.758 134.472 362.463C135.541 363.167 136.781 363.568 138.06 363.623C141.991 363.623 141.991 363.899 145.922 363.899C149.853 363.899 149.853 363.037 153.785 363.037C157.716 363.037 157.716 363.313 161.647 363.313C165.578 363.313 165.578 363.52 169.509 363.52C173.44 363.52 173.44 363.52 177.371 363.52C181.302 363.52 181.302 363.52 185.268 363.52C189.234 363.52 189.199 363.52 193.13 363.52C197.061 363.52 197.062 364.106 200.993 364.106C204.924 364.106 204.924 363.796 208.855 363.796C212.786 363.796 212.786 363.796 216.717 363.796C220.648 363.796 220.648 363.451 224.579 363.451C228.51 363.451 228.511 363.899 232.442 363.899C236.373 363.899 236.407 363.106 240.338 363.106C244.27 363.106 244.27 363.106 248.235 363.106C252.201 363.106 252.166 363.106 256.097 363.106C260.029 363.106 260.063 363.382 263.994 363.382C267.925 363.382 267.96 363.382 271.891 363.382C275.822 363.382 275.857 363.658 279.822 363.658C281.053 363.695 282.263 363.332 283.271 362.623C284.208 361.869 284.914 360.865 285.305 359.726C285.995 357.244 286.029 354.588 286.684 352.106C287.34 349.623 287.753 347.071 288.443 344.588C289.133 342.105 290.512 339.829 291.167 337.347C291.822 334.864 291.995 332.243 292.65 329.76C293.305 327.277 293.754 324.691 294.374 322.208C294.995 319.725 296.443 317.45 297.099 314.967C297.754 312.484 297.512 309.76 298.133 307.277C298.754 304.794 299.443 302.277 300.064 299.794C300.685 297.311 301.685 294.897 302.306 292.38C302.926 289.862 303.271 287.311 303.892 284.794C304.512 282.276 305.857 280 306.444 277.483C307.03 274.966 307.478 272.448 308.099 269.931C308.72 267.414 308.719 264.793 309.271 262.241C309.823 259.689 310.34 257.206 310.892 254.689C311.444 252.172 312.582 249.724 313.134 247.206C313.685 244.689 314.651 242.103 315.202 239.551C315.754 236.999 316.237 234.344 316.789 231.758C317.341 229.171 317.065 226.413 317.616 223.826C318.168 221.24 318.892 218.654 319.444 216.067C319.996 213.481 320.582 210.895 321.099 208.309C321.617 205.722 322.754 203.24 323.306 200.653C323.858 198.067 323.892 195.377 324.41 192.791C324.927 190.205 325.823 187.687 326.341 185.101C326.858 182.515 326.858 179.825 327.375 177.239C327.892 174.653 328.686 172.101 329.168 169.514L330.617 161.721C331.134 159.135 331.065 156.445 331.548 153.859C332.03 151.273 333.341 148.824 333.824 146.238C334.307 143.652 334.341 141.479 334.789 138.927C335.272 141.514 336.065 143.583 336.582 146.169C337.1 148.755 337.686 151.342 338.203 153.928C338.72 156.514 338.445 159.273 338.962 161.859C339.479 164.445 340.444 166.928 340.996 169.514C341.548 172.101 341.445 174.825 341.996 177.411C342.548 179.998 343.41 182.515 343.927 185.101C344.445 187.687 345.548 190.136 346.134 192.757C346.72 195.377 346.686 198.033 347.272 200.619C347.858 203.205 348.755 205.722 349.341 208.309C349.928 210.895 350.445 213.481 351.031 216.067C351.617 218.654 352.238 221.205 352.824 223.826C353.41 226.447 353.41 229.137 353.997 231.723C354.583 234.309 355.962 236.689 356.583 239.31C357.204 241.93 357.238 244.62 357.859 247.206C358.479 249.793 359.48 252.172 360.066 254.689C360.652 257.206 360.928 259.827 361.549 262.345C362.169 264.862 363.376 267.241 363.997 269.724C364.618 272.207 365.031 274.828 365.687 277.31C366.342 279.793 367.307 282.242 367.962 284.759L369.894 292.276C370.549 294.794 370.238 297.552 370.928 300.07C371.618 302.587 372.514 305.001 373.17 307.484C373.825 309.966 374.928 312.38 375.583 314.898C376.239 317.415 376.687 319.967 377.376 322.45C378.066 324.932 378.618 327.45 379.342 329.933C380.066 332.415 381.032 334.864 381.721 337.347C382.411 339.829 383.308 342.278 383.997 344.726C384.687 347.175 384.859 349.864 385.584 352.347C386.308 354.83 387.722 357.106 388.446 359.554C388.617 360.614 389.157 361.58 389.971 362.281C390.785 362.981 391.82 363.371 392.894 363.382C396.791 363.382 396.791 363.761 400.687 363.761C404.584 363.761 404.584 363.209 408.481 363.209C412.377 363.209 412.377 363.968 416.274 363.968C420.171 363.968 420.171 363.106 424.067 363.106C427.964 363.106 427.999 363.106 431.895 363.106C435.792 363.106 435.792 364.002 439.688 364.002C443.585 364.002 443.585 363.692 447.516 363.692C451.447 363.692 451.413 363.037 455.31 363.037C459.206 363.037 459.206 364.037 463.103 364.037H470.896C474.793 364.037 474.793 363.623 478.689 363.623C482.586 363.623 482.586 363.623 486.517 363.623C490.448 363.623 490.414 363.106 494.311 363.106C498.207 363.106 498.207 363.83 502.138 363.83C506.07 363.83 506.035 363.313 509.966 363.313H517.759C521.691 363.313 521.691 363.313 525.587 363.313C529.484 363.313 529.518 363.692 533.415 363.692C537.312 363.692 538.794 366.451 540.829 363.106C542.864 359.761 539.002 360.244 537.07 356.864C535.139 353.485 535.657 353.243 533.622 349.968C531.588 346.692 531.725 346.519 529.794 343.071C527.863 339.622 527.38 340.036 525.449 336.657C523.518 333.277 524.208 332.933 522.311 329.76C520.415 326.588 520.449 326.312 518.553 322.863C516.656 319.415 515.863 319.967 513.932 316.622C512.001 313.277 512.828 312.794 510.897 309.449C508.966 306.104 508.587 306.346 506.656 303.001C504.725 299.656 504.552 299.552 502.656 296.38C500.759 293.208 500.897 292.932 499 289.483C497.104 286.035 497.483 286.035 495.552 282.587C493.621 279.138 493.345 279.966 491.276 276.517C489.207 273.069 489.621 273.069 487.828 269.621C486.035 266.172 486.207 266.172 484.379 262.724C482.552 259.276 481.931 259.689 480.034 256.31L476.241 249.62C474.31 246.172 474.448 246.172 472.551 242.723C470.655 239.275 471.276 239.034 469.379 235.827C467.482 232.62 467.344 232.378 465.448 229.171C463.551 225.964 462.896 226.206 460.965 222.861C459.034 219.516 459.689 219.171 457.758 215.964C455.827 212.757 455.413 212.826 453.516 209.481C451.62 206.136 451.792 206.033 449.861 202.584C447.93 199.136 447.551 199.446 445.62 196.101C443.689 192.757 443.964 192.653 442.171 189.205C440.378 185.756 440.792 185.549 438.723 182.308C436.654 179.067 436.206 179.308 434.309 175.963C432.412 172.618 432.619 172.515 430.861 169.066C429.102 165.618 428.516 165.963 426.585 162.618C424.654 159.273 425.102 158.997 423.136 155.721C421.171 152.445 420.895 152.583 418.964 149.204C417.033 145.824 417.481 145.755 415.516 142.307C413.55 138.859 413.136 139.204 411.205 135.859C409.274 132.514 409.55 132.41 407.757 128.962C405.964 125.513 405.757 125.513 403.86 122.272C401.963 119.031 401.756 119.03 399.86 115.651C397.963 112.272 398.274 112.203 396.411 108.754C394.549 105.306 394.687 105.306 392.756 101.858C390.825 98.4092 390.86 98.4092 388.929 94.9608C386.997 91.5124 386.411 91.9608 384.48 88.5814C382.549 85.202 383.446 84.7193 381.514 81.3399C379.583 77.9605 379.583 77.8915 377.687 74.6156C375.79 71.3396 375.583 71.3742 373.687 67.9948C371.79 64.6154 371.48 64.8222 369.583 61.4428C367.687 58.0634 367.618 57.9944 365.687 54.7184C363.756 51.4425 364.1 51.2701 362.238 47.8217C360.376 44.3733 359.755 44.7527 357.859 41.3733C355.962 37.9939 355.824 37.9249 353.893 34.6834C351.962 31.442 352.031 31.2351 350.1 27.7867C348.169 24.3383 348.479 24.3383 346.652 20.89C344.824 17.4416 344.514 17.6141 342.617 14.2347C340.72 10.8553 341.1 10.7863 339.169 7.33792C338.784 6.72523 338.25 6.22012 337.616 5.87009C336.983 5.52006 336.271 5.33655 335.548 5.33655C334.824 5.33655 334.112 5.52006 333.479 5.87009C332.846 6.22012 332.312 6.72523 331.927 7.33792L331.548 7.54482ZM266.408 170.652C266.891 170.411 267.615 170.653 267.581 171.135C267.546 171.618 266.96 171.135 266.477 171.135C265.994 171.135 265.994 170.79 266.477 170.618L266.408 170.652ZM266.27 180.549C266.37 180.934 266.439 181.326 266.477 181.722C265.856 181.722 265.098 181.205 264.477 181.136C264.318 180.859 264.212 180.555 264.167 180.239C264.787 180.239 265.649 180.515 266.27 180.549V180.549ZM257.477 264.655C258.787 264.138 259.718 264.965 260.063 266.172C260.408 267.379 259.373 268 258.098 268C256.822 268 255.649 267.517 255.822 266.276C255.822 265.655 256.891 264.896 257.477 264.655ZM247.132 246.103C247.132 246.103 247.511 245.793 247.683 245.793C247.856 245.793 247.683 246.551 247.683 246.655C249.373 246.655 251.132 246.068 252.787 246.172C252.787 246.172 253.063 246.172 253.166 246.172C253.166 245.275 252.856 243.758 254.235 243.551C254.395 243.933 254.477 244.344 254.477 244.758C254.007 245.211 253.512 245.637 252.994 246.034C252.994 246.034 252.994 246.344 252.994 246.482C252.994 246.62 252.994 246.792 252.718 246.792C250.959 247.861 248.925 250.517 247.546 246.241V245.93L247.166 245.723C245.303 246.359 243.369 246.764 241.407 246.93C239.292 246.625 237.22 246.07 235.235 245.275C237.925 242.585 239.718 241.172 241.614 241.827C243.613 243.064 245.485 244.496 247.201 246.103H247.132ZM231.131 249.551C231.476 249.827 231.476 250.517 231.131 250.655C230.786 250.793 230.786 250.206 230.683 249.758C230.58 249.31 230.683 249.275 231.2 249.551H231.131ZM227.338 275.207C227.821 275.379 228.648 276.586 228.511 277.104C228.373 277.621 227.166 277.483 226.545 277.897C226.028 277.414 224.614 277.311 224.614 276.828C224.636 276.517 224.733 276.217 224.897 275.952C225.06 275.687 225.285 275.465 225.553 275.306C225.82 275.147 226.123 275.055 226.433 275.037C226.744 275.02 227.055 275.078 227.338 275.207ZM188.889 304.415C188.889 304.173 188.509 303.553 188.578 303.484C189.337 302.966 189.475 303.208 189.372 304.035C189.096 304.035 189.372 304.346 188.889 304.415ZM192.958 319.932C192.717 320.243 190.889 320.277 190.648 319.932C189.337 317.691 189.406 315.656 192.096 313.036C194.165 315.967 194.717 317.829 192.958 319.932ZM214.614 338.898C214.372 338.898 213.89 338.209 213.959 337.933C214.234 337.002 214.924 337.14 215.752 337.691C216.027 337.864 216.683 338.036 216.821 338.381C216.723 338.573 216.584 338.742 216.414 338.875C216.244 339.009 216.048 339.103 215.837 339.152C215.627 339.202 215.409 339.205 215.197 339.161C214.986 339.117 214.787 339.027 214.614 338.898V338.898ZM226.338 332.209C225.536 332.122 224.79 331.757 224.23 331.178C223.669 330.598 223.329 329.84 223.269 329.036C223.269 327.622 224.545 327.415 225.717 327.105C227.511 327.105 229.166 327.105 229.166 329.174C229.227 329.578 229.194 329.99 229.07 330.378C228.946 330.767 228.734 331.122 228.45 331.416C228.167 331.709 227.819 331.933 227.435 332.071C227.051 332.208 226.64 332.256 226.235 332.209H226.338ZM231.131 313.656C230.718 313.656 230.166 313.484 230.235 313.07C230.304 312.656 230.717 313.07 231.097 313.07C231.476 313.07 231.545 313.38 231.097 313.518L231.131 313.656ZM232.131 289.035C231.89 289.587 230.821 289.966 230.131 290.276C229.686 289.807 229.418 289.197 229.373 288.552C229.648 287.276 230.476 286.104 231.717 286.656C232.166 286.862 232.373 288.552 232.131 289.035V289.035ZM242.269 251.379C242.408 252.371 242.329 253.382 242.037 254.341C241.745 255.3 241.248 256.184 240.58 256.931C239.079 258.038 237.324 258.749 235.476 259C236.407 253.931 238.235 252.31 242.373 251.379H242.269ZM238.442 289.311C240.079 287.892 242.172 287.109 244.339 287.104C246.27 287.311 247.787 288.966 249.511 290.552C249.741 290.565 249.971 290.565 250.201 290.552C250.201 290.552 250.028 290.552 249.925 290.552V290.345C249.21 291.204 248.296 291.876 247.264 292.303C246.231 292.731 245.111 292.901 243.998 292.799C242.885 292.697 241.814 292.327 240.876 291.719C239.938 291.111 239.162 290.285 238.614 289.311H238.442ZM250.546 329.657C250.546 329.657 250.546 330.105 250.546 330.208C250.546 330.312 249.891 329.726 249.753 329.726C249.615 329.726 249.753 330.864 249.511 331.105C248.959 330.726 249.166 329.898 249.994 329.795C249.994 329.795 249.994 329.795 250.201 329.795C250.408 329.795 249.959 329.45 250.201 329.415C250.408 328.829 250.994 328.657 251.201 328.105C252.684 329.588 251.477 329.415 250.615 329.657H250.546ZM249.856 266.345C249.11 266.136 248.456 265.683 248 265.057C247.543 264.431 247.31 263.67 247.339 262.896C247.314 262.518 247.381 262.14 247.532 261.793C247.683 261.446 247.915 261.14 248.209 260.9C248.502 260.661 248.849 260.495 249.219 260.416C249.59 260.337 249.973 260.349 250.339 260.448C250.835 260.443 251.327 260.546 251.78 260.748C252.234 260.951 252.638 261.249 252.965 261.622C253.292 261.996 253.535 262.435 253.677 262.911C253.819 263.387 253.857 263.887 253.787 264.379C253.694 264.772 253.519 265.141 253.274 265.463C253.029 265.785 252.72 266.051 252.366 266.246C252.012 266.441 251.621 266.56 251.219 266.594C250.816 266.629 250.41 266.579 250.028 266.448L249.856 266.345ZM254.753 275.311C254.27 274.862 253.546 274.448 253.028 274C253.658 273.657 254.315 273.369 254.994 273.138C254.994 273.138 255.718 273.138 255.891 273.31C256.339 274.207 255.891 275 254.753 275.311ZM256.684 284.483C256.787 284.483 256.89 284.508 256.982 284.555C257.074 284.603 257.154 284.671 257.214 284.755C257.275 284.84 257.315 284.937 257.33 285.04C257.346 285.142 257.337 285.247 257.305 285.345C257.305 285.69 256.856 285.173 256.58 284.931C256.304 284.69 256.235 284.483 256.58 284.483H256.684ZM258.58 333.553C258.198 333.505 257.829 333.38 257.497 333.184C257.165 332.988 256.877 332.727 256.649 332.415C255.994 331.209 256.856 330.622 258.477 330.208C259.339 330.208 260.718 330.036 260.891 331.312C260.907 331.616 260.857 331.921 260.746 332.204C260.634 332.488 260.463 332.745 260.244 332.957C260.026 333.169 259.764 333.332 259.477 333.435C259.19 333.538 258.884 333.578 258.58 333.553V333.553ZM265.546 266.172C265.546 265.931 264.822 265.655 264.822 265.379C264.822 265.103 265.408 265.379 265.615 265.069C265.822 264.758 266.374 265.069 266.546 265.483C266.719 265.896 265.753 265.931 265.546 266.172ZM265.546 255.62C265.171 255.74 264.771 255.761 264.385 255.68C264 255.599 263.642 255.42 263.346 255.159C263.051 254.899 262.828 254.566 262.7 254.193C262.572 253.821 262.542 253.421 262.615 253.034C262.615 251.793 264.029 251.482 265.236 251.413C266.443 251.344 267.718 251.724 267.684 253.62C267.27 254.137 266.339 255.448 265.546 255.62ZM270.443 310.311C270.098 310.311 270.201 310.105 270.029 309.794C269.857 309.484 270.236 309.518 270.029 309.518C269.822 309.518 270.029 309.242 270.305 309.277C270.581 309.311 270.615 309.449 270.684 309.553C270.753 309.656 270.684 310.346 270.443 310.311ZM272.96 201.998C272.673 202.287 272.328 202.51 271.947 202.653C271.566 202.796 271.159 202.855 270.753 202.826C268.753 202.309 268.994 200.653 269.581 198.929C269.788 198.274 269.339 197.377 269.581 196.722C269.581 196.722 269.788 196.515 269.788 196.446C266.339 196.964 263.477 200.653 259.684 199.895C259.69 197.265 260.085 194.65 260.856 192.136C261.718 188.963 263.236 187.722 265.891 188.205C270.857 189.032 270.167 192.722 269.719 196.308H270.305C270.305 196.308 269.994 196.619 269.925 196.722C270.546 197.17 270.994 197.826 271.615 198.308C272.96 199.274 274.408 200.171 272.925 201.757L272.96 201.998ZM273.132 182.653C272.93 182.712 272.717 182.723 272.51 182.685C272.302 182.647 272.107 182.561 271.939 182.433C271.771 182.306 271.636 182.141 271.544 181.951C271.452 181.762 271.405 181.553 271.408 181.343C271.753 180.377 272.374 180.446 273.167 180.998C273.408 181.17 274.133 181.446 274.098 181.756C274.064 182.067 273.408 182.618 273.132 182.653ZM282.891 223.378C281.822 223.378 281.305 222.516 281.926 221.688C281.926 221.447 282.719 221.688 282.995 221.964C283.271 222.24 283.857 222.344 284.029 222.688C283.719 223.016 283.326 223.254 282.891 223.378V223.378ZM299.65 174.411C299.333 173.659 299.171 172.851 299.174 172.034C299.177 171.218 299.344 170.411 299.666 169.661C299.988 168.91 300.458 168.233 301.048 167.669C301.637 167.105 302.335 166.665 303.099 166.377C305.133 170.618 303.616 172.791 299.65 174.411ZM313.892 104.099C315.996 100.651 317.03 98.685 318.272 97.9609C319.513 97.2367 321.306 98.3058 325.168 100.168C324.633 101.041 323.926 101.797 323.09 102.39C322.254 102.982 321.307 103.4 320.306 103.616C318.547 104.03 316.41 103.858 313.996 104.271L313.892 104.099ZM329.203 56.4081C329.014 56.9696 328.611 57.4336 328.081 57.6985C327.551 57.9634 326.938 58.0079 326.375 57.8221C325.892 57.5807 325.927 56.4082 325.996 55.8219C325.996 54.6495 326.651 53.5115 327.961 53.5804C328.239 53.6707 328.494 53.8185 328.71 54.0142C328.926 54.2099 329.098 54.4491 329.216 54.7161C329.333 54.9831 329.392 55.2719 329.39 55.5635C329.388 55.8551 329.324 56.1429 329.203 56.4081V56.4081ZM337.031 68.5809C336.934 68.5647 336.843 68.5258 336.765 68.4677C336.686 68.4096 336.623 68.3339 336.579 68.2465C336.535 68.1591 336.513 68.0626 336.513 67.9649C336.514 67.8672 336.538 67.7711 336.582 67.6843C336.582 67.4085 336.962 67.9258 337.169 68.2017C337.375 68.4775 337.41 68.6499 337.169 68.5809H337.031ZM496.759 326.208C497.035 326.381 497.725 326.415 497.793 326.588C497.862 326.76 497.173 326.829 497.035 327.139C496.897 327.45 496.242 327.312 495.966 327.139C495.69 326.967 496.587 326.484 496.759 326.208ZM489.414 333.278C489.793 333.278 490.345 333.278 490.276 333.864C490.207 334.45 489.793 333.864 489.414 333.864C489.035 333.864 489 333.553 489.414 333.45V333.278ZM461.103 276.448C461.275 276.448 461.861 275.966 462.103 276.069C462.344 276.173 461.896 276.724 462.103 277C462.31 277.276 462.103 278.035 461.827 278C460.896 278 460.62 277.138 461.172 276.448H461.103ZM457.034 296.035C457.551 295.863 458.586 296.346 459.241 296.621C458.988 297.298 458.514 297.869 457.896 298.242C457.179 298.402 456.43 298.33 455.758 298.035C456.068 297.38 456.551 296.207 457.034 296.035ZM451.344 255.827L451.792 255.551C451.663 255.827 451.514 256.092 451.344 256.345C452.792 257.103 454.516 257.758 453.758 259.793C453.758 260.034 452.551 260.379 452.378 260.275C450.689 259.275 451.275 257.586 451.585 256.103C451.585 256.103 451.137 256.413 451.068 256.413L451.309 255.758C449.309 256.517 447.275 258.483 446.309 254.62C446.034 253.448 446.516 252.034 447.654 252.068C449.999 252.068 450.551 254.172 451.344 255.931V255.827ZM443.585 244.758C443.61 244.469 443.704 244.19 443.858 243.944C444.012 243.699 444.222 243.493 444.472 243.345C444.721 243.196 445.002 243.11 445.292 243.092C445.581 243.074 445.871 243.125 446.137 243.241C446.689 243.516 446.758 244.585 446.792 245.206C446.792 246.413 446.482 247.62 444.93 247.586C444.411 247.346 443.992 246.931 443.747 246.415C443.501 245.898 443.444 245.312 443.585 244.758V244.758ZM422.481 221.033C422.763 221.316 423.028 221.615 423.274 221.93C422.757 222.24 421.826 222.102 421.274 222.378C421.011 222.225 420.786 222.012 420.619 221.757C421.136 221.447 421.964 221.343 422.481 221.033V221.033ZM419.86 324.484C419.86 324.484 419.86 324.105 419.86 324.036C419.877 324.312 419.877 324.588 419.86 324.864C420.929 325.277 422.447 324.864 423.309 325.484C423.688 325.697 424.016 325.991 424.269 326.345C424.522 326.699 424.694 327.104 424.773 327.532C424.852 327.959 424.836 328.399 424.726 328.82C424.616 329.241 424.415 329.633 424.136 329.967C423.585 330.541 422.829 330.876 422.033 330.898C421.592 330.942 421.148 330.892 420.728 330.752C420.309 330.612 419.923 330.385 419.597 330.085C419.272 329.785 419.013 329.42 418.839 329.014C418.664 328.607 418.577 328.168 418.584 327.726C418.584 326.657 419.653 325.622 419.929 324.553H419.619L419.86 324.484ZM405.067 298.69C404.772 298.751 404.466 298.736 404.178 298.647C403.89 298.558 403.629 298.398 403.42 298.181C403.21 297.964 403.058 297.698 402.978 297.408C402.899 297.117 402.894 296.811 402.963 296.518C402.963 296.035 404.377 295.897 404.86 296.001C405.608 296.209 406.287 296.614 406.826 297.173C406.377 297.69 405.584 298.656 405.067 298.69V298.69ZM402.55 171.446C403.059 171.403 403.572 171.464 404.057 171.625C404.542 171.786 404.99 172.043 405.373 172.382C405.756 172.72 406.067 173.132 406.287 173.593C406.507 174.055 406.632 174.556 406.653 175.067C406.653 177.549 404.791 178.204 402.584 178.239C400.377 178.273 399.136 177.515 399.136 175.756C399.064 175.244 399.097 174.723 399.233 174.224C399.37 173.726 399.607 173.26 399.93 172.857C400.253 172.453 400.655 172.12 401.111 171.877C401.568 171.634 402.069 171.488 402.584 171.446H402.55ZM394.308 256.586C394.424 256.609 394.533 256.66 394.626 256.733C394.719 256.806 394.794 256.9 394.844 257.007C394.895 257.115 394.919 257.232 394.916 257.351C394.913 257.469 394.882 257.585 394.825 257.689C394.549 258.069 394.308 257.482 394.067 257.138C393.825 256.793 393.825 256.482 394.308 256.586V256.586ZM371.342 211.998C371.342 211.654 370.721 211.171 370.825 210.895C370.928 210.619 371.48 210.895 371.825 210.895C372.169 210.895 372.721 211.447 372.618 211.688C372.514 211.93 371.687 211.688 371.342 211.964V211.998ZM388.411 182.377C388.515 182.425 388.605 182.498 388.673 182.589C388.742 182.68 388.786 182.787 388.804 182.9C388.821 183.012 388.81 183.128 388.771 183.235C388.733 183.342 388.668 183.439 388.584 183.515C388.239 183.756 388.204 183.17 388.032 182.756C387.86 182.342 388.032 182.17 388.411 182.377ZM378.583 177.618C378.135 178.136 377.721 179.308 377.239 179.377C375.721 179.377 375.48 178.239 375.859 176.963C375.859 176.48 376.859 175.48 377.376 175.584C377.894 175.687 378.17 177.032 378.583 177.618V177.618ZM372.963 135.859C374.928 135.617 375.79 137.307 376.239 138.927C376.306 139.324 376.28 139.732 376.162 140.117C376.044 140.502 375.838 140.854 375.56 141.146C375.282 141.437 374.94 141.659 374.561 141.795C374.182 141.931 373.776 141.976 373.376 141.928C371.549 141.928 369.928 141.238 369.928 139.376C369.925 138.513 370.245 137.679 370.826 137.041C371.407 136.403 372.206 136.005 373.066 135.927L372.963 135.859ZM364.307 138.307C364.608 138.345 364.899 138.443 365.163 138.593C365.426 138.744 365.658 138.945 365.843 139.185C366.029 139.426 366.166 139.7 366.245 139.993C366.325 140.286 366.346 140.592 366.307 140.893C366.307 142.203 365.273 142.652 363.928 142.928C362.583 143.204 361.169 142.721 361.204 141.341C361.194 140.934 361.268 140.529 361.421 140.152C361.575 139.775 361.804 139.433 362.095 139.149C362.386 138.864 362.733 138.642 363.114 138.497C363.494 138.353 363.9 138.288 364.307 138.307" fill="#EA8C23"/>
</svg>
