<svg xmlns="http://www.w3.org/2000/svg" width="380.3" height="130.21" viewBox="0 0 380.3 130.21">
  <defs>
    <style>
      .a {
        fill: #f89626;
      }

      .b {
        fill: #fff;
      }

      .c {
        fill: #07284c;
      }
    </style>
  </defs>
  <g>
    <path class="a" d="M192.83,13c.46,0,.92,0,1.39,0h1.66c.28,0,.56,0,.83-.06a.8.8,0,0,0,.87-.87c0-.92-.08-1.84-.15-2.76s-.16-1.92-.22-2.89c-.1-1.7-.18-3.4-.26-5.1a3.91,3.91,0,0,1,0-1.08c.07-.31.34-.32.53-.09a6,6,0,0,1,.5,1.32l4,9.44c.84,2,1.71,4,2.54,6,.58,1.38.42,1.63-1.06,1.66-1,0-1.94,0-2.91,0-.28,0-1.12-.07-1.32.12a.32.32,0,0,0-.07.19,12.27,12.27,0,0,0,.11,1.71c.05.63.09,1.27.13,1.9.09,1.25.19,2.49.28,3.74l.36,4.44c0,.35.05.7.09,1.05,0,.16.11.49,0,.62-.39.4-.74-1-.82-1.25l-.77-2c-.5-1.34-1-2.67-1.52-4s-.94-2.49-1.42-3.74q-1-2.79-2.11-5.58l-.52-1.39c-.16-.42-.37-.83-.55-1.25Zm8.43,2.57,0,0Zm-1.07-3a5.55,5.55,0,0,0-.49.43.92.92,0,0,0,.19.25,2.51,2.51,0,0,0,.52-.32A2.74,2.74,0,0,0,200.19,12.6Zm0,3.28a2.12,2.12,0,0,0-.12.2s.06.09.07.09a1.22,1.22,0,0,0,.19-.12A2.09,2.09,0,0,0,200.22,15.88Z"/>
    <path class="b" d="M218,126.94l-13,0c-1.15,0-1.28-.12-1.29-1.27s0-2.4,0-3.6q0-3,0-6c0-.35.1-.71.15-1.1a9.18,9.18,0,0,1,1-.13c1.53,0,3.06,0,4.58,0,.79,0,1.58,0,2.36,0a.66.66,0,0,0,.7-.71,4,4,0,0,0-.26-2.13l-1.34,0-6.1,0a9.42,9.42,0,0,1-1-.16,12.3,12.3,0,0,1-.14-1.27c0-1.61,0-3.23,0-4.85,0-.79,0-1.58,0-2.36.05-1.11.25-1.31,1.31-1.35s1.94-.07,2.91-.07c1.62,0,3.24,0,4.86,0,1.43,0,2.86,0,4.29,0a3.13,3.13,0,0,0,1.72-.25,3.89,3.89,0,0,0,0-2.52,5.39,5.39,0,0,0-2.3-.16c-2.68,0-5.36,0-8,0-2.31,0-4.62,0-6.93,0a4,4,0,0,0-.88.19c-.19,1.77-.15,29.22,0,30.36.14.06.3.21.47.21h18.31a3.07,3.07,0,0,0,0-2.77C218.92,127,218.46,126.94,218,126.94Z"/>
    <path class="b" d="M364.17,114.69a36.45,36.45,0,0,0-3.64-1.69c-1.79-.76-3.6-1.45-5.37-2.25a7.3,7.3,0,0,1-2-1.27c-2.72-2.5-1.38-6.9,1.56-7.47.22-.05.43-.17.65-.24a9,9,0,0,1,5.72.11,10.22,10.22,0,0,1,3.4,1.84,5,5,0,0,0,.74.45,10.56,10.56,0,0,0,2-2.56,13.07,13.07,0,0,0-4-2.29,15.78,15.78,0,0,0-8.48-.43,7.85,7.85,0,0,0-4.24,2.23,7.21,7.21,0,0,0-2,6.11,7,7,0,0,0,2.24,4.63,13.27,13.27,0,0,0,3.64,2.25c1.15.47,2.35.84,3.51,1.3s2.13.88,3.17,1.39a8,8,0,0,1,2.53,1.92,4.55,4.55,0,0,1,1.26,2.85,5,5,0,0,1-3.26,5.14,9.3,9.3,0,0,1-6.51.23,10.78,10.78,0,0,1-4.13-2.19c-.39-.31-.71-.75-1.25-.79a4.55,4.55,0,0,0-1.86,2.23,10.61,10.61,0,0,0,.92.88,13.91,13.91,0,0,0,8.7,3.14,25,25,0,0,0,3.86-.36,8.12,8.12,0,0,0,5.74-4.18,8.38,8.38,0,0,0,1-4.41A7.32,7.32,0,0,0,364.17,114.69Z"/>
    <path class="b" d="M83.33,72a1.53,1.53,0,0,0-.81-1.22,2.93,2.93,0,0,0-1.7-.53c-.5,0-1,0-1.52,0-2.08,0-4.16,0-6.24,0-1.11,0-2.22,0-3.33,0l-6.65,0c-.28,0-.55,0-.83.06s-.64.06-1,0c-2.12,0-4.24-.15-6.36-.16q-5.07,0-10.13.09a13.77,13.77,0,0,0-3.45.14c-.65.17-1.08-.3-.92-1a9.06,9.06,0,0,0,.18-2.89c0-.5,0-1,0-1.52,0-.79,0-1.57,0-2.36,0-1.38,0-2.77-.06-4.15s0-3,0-4.43c0-1.71-.2-3.43-.07-5.13.16-2.08,0-4.15,0-6.23,0-1.67,0-3.33,0-5,0-1.29,0-2.58,0-3.87q0-1.59,0-3.18c0-.56.11-1.11.11-1.66,0-2.18,0-4.35-.07-6.52,0-1.81,0-3.61,0-5.41a12.7,12.7,0,0,1,.09-3.59,1.69,1.69,0,0,0,0-.55c0-1.39-.09-2.78-.13-4.16h0c0-.61.1-1.21.08-1.81a20,20,0,0,0-.26-2.89,1.83,1.83,0,0,0-2-1.62c-.46,0-.92,0-1.38,0-1,0-1.95,0-2.92-.06a2.3,2.3,0,0,0-2.82,2.4c0,.69,0,1.38,0,2.08,0,1.48-.09,3,0,4.44s-.41,3,0,4.54a1.7,1.7,0,0,1,0,.55c-.06,1.06-.14,2.12-.17,3.19a11.91,11.91,0,0,0,0,2.07,17.85,17.85,0,0,1,0,4.56,19.09,19.09,0,0,0,0,2.62,13.94,13.94,0,0,1,.08,2.49,32.44,32.44,0,0,0,0,4.41,28.69,28.69,0,0,1-.16,5.4,6.08,6.08,0,0,0,.08,1.64c0,.51.11,1,.11,1.52,0,1.71-.07,3.42-.05,5.12a29.77,29.77,0,0,1-.13,5.82,3.85,3.85,0,0,0,0,.83c.05,1.43.14,2.86.16,4.29,0,.93-.06,1.85-.07,2.78,0,2,0,4,0,6,0,.37,0,.73,0,1.1,0,.74.07,1.48.06,2.21,0,1.21-.07,2.41,0,3.61a2,2,0,0,0,2,2.06,10.18,10.18,0,0,0,3.85,0,1.86,1.86,0,0,1,.41,0h8.18c1.8,0,3.61.07,5.41,0a20,20,0,0,1,4.83.2,3.22,3.22,0,0,0,.82,0c.6,0,1.19-.16,1.79-.16,1.66,0,3.33,0,5,0l3.19.05a31.15,31.15,0,0,0,3.74,0,19.79,19.79,0,0,1,4.42,0,8.84,8.84,0,0,0,2.35.07,21,21,0,0,1,4.41-.27,1.66,1.66,0,0,0,1.83-1.79c0-.47,0-.93,0-1.39C83.43,74,83.4,73,83.33,72ZM38.48,6.3s0,0,.06.08l-.15.06,0-.11S38.45,6.29,38.48,6.3ZM38.31,26l0,.08h-.07Zm.07,4a5.52,5.52,0,0,1-.7,1,8.33,8.33,0,0,1-.19-1.21.61.61,0,0,1,.24-.44.52.52,0,0,1,.49.07A.77.77,0,0,1,38.38,30Zm-3,1.54c.21-1.14.21-1.14,1-1C36,31.56,36,31.56,35.42,31.54Zm.14,12.68v.1l-.07-.06Zm-.3-20.53a1.47,1.47,0,0,1-.1-.22s.07-.09.08-.09l.19.16Zm0,8.66-.1,0,0-.19s.09,0,.11,0S35.29,32.32,35.29,32.35Zm-1-1.56c.23.09.55.07.52.45a.36.36,0,0,1-.3.17C34.13,31.33,34.26,31,34.29,30.79Zm.11,12,0,.08-.05-.08ZM34,30.51l.16-.14.12.36Zm.13,19.14,0,.1s-.08,0-.09,0,0-.06,0-.1ZM34,27.32c.1.16.23.28.21.35s-.18.19-.27.28c-.07-.1-.19-.2-.19-.31S33.85,27.46,34,27.32Zm-.13-1.87c0-.06.09-.11.13-.16l.16.15a1.89,1.89,0,0,1-.21.09S33.83,25.46,33.84,25.45Zm.41,30.21v.09l-.07-.06Zm.46-28.46s-.08-.08-.07-.09a1.13,1.13,0,0,1,.12-.18,1.29,1.29,0,0,1,.16.17A1,1,0,0,1,34.71,27.2Zm.16-10.89a1.07,1.07,0,0,0,.14-.16,1.06,1.06,0,0,1,.11.21s0,.06-.07.1Zm-.29-1.24c-.06,0-.16,0-.25,0,.31-1.09.41-1.15,1.59-.72Zm1.3,1.77c0-.06-.13-.13-.12-.17a.94.94,0,0,1,.19-.32s.14,0,.28.11Zm0,8.72a.34.34,0,0,1-.11.05s0-.06-.07-.09l.16-.09Zm-.23-4.31-.24.17c0-.08-.1-.15-.09-.22s.12-.07.19-.11Zm.76-3.37c0-.05.14-.06.21-.09s.09.16.06.2a.51.51,0,0,1-.21.1C36.43,18,36.36,17.92,36.39,17.88Zm0-2.61s-.1-.12-.15-.19a1.34,1.34,0,0,1,.31-.17s.1.12.18.23A1.31,1.31,0,0,1,36.39,15.27Zm.29,32.57.16,0s0,.08-.07.09-.06,0-.09,0Zm.1-4.27-.07-.08,0,0c0-.25-.11-.63,0-.74.33-.27.68-.13,1,.27l-1,.48Zm0-22.36c.07,0,.16-.12.21-.1s.09.14.12.21L37,21.5Zm.12,19.88-.07.09,0-.1Zm.82-5-.08.18L37.13,36l.07-.16Zm-.5-17.45h.11l0,.09Zm.35,22.32-.08.08-.09-.15s.08,0,.11,0S37.55,40.89,37.57,40.93Zm-.06,7.41.05.13-.09,0Zm-.16-2.63a.66.66,0,0,1-.23-.21s.08-.11.15-.21a2.22,2.22,0,0,1,.21.27S37.36,45.72,37.35,45.71Zm.23,6.62c-.17.14-.3.29-.34.27a1.66,1.66,0,0,1-.38-.32c.08-.09.18-.25.23-.24A2.79,2.79,0,0,1,37.58,52.33Zm.07-8.75s.06-.14.1-.22l.32.17-.15.25A1.05,1.05,0,0,1,37.65,43.58Zm.41-3.21v-.11l.1.06ZM38.14,12,38,12s0-.09,0-.1.06,0,.1,0Zm-.33-6.67s.14-.07.21-.1l.08.22-.21.09C37.86,5.49,37.79,5.39,37.81,5.35Zm0,7.69-.65.47c-.08-.13-.25-.28-.24-.41a.42.42,0,0,1,.58-.4C37.56,12.74,37.62,12.88,37.77,13Zm-1.24-8.2.59.23c0,.07-.1.22-.13.21a1.46,1.46,0,0,1-.51-.12s0-.16-.06-.24S36.51,4.83,36.53,4.84Zm.06,3.53v.09l-.09-.05Zm-.38.84c.4-.2.82-.35,1.29-.55.24.4.1.65-.18.73a14.88,14.88,0,0,1-1.49.3C36,9.43,36.09,9.26,36.21,9.21Zm.54,1.17.39,1H36c-.29-.34-.55-.65-.27-1.11Zm-1.46-.8a2.24,2.24,0,0,1,.38.21,1.51,1.51,0,0,1-.4.19s-.12-.13-.11-.2S35.26,9.57,35.29,9.58ZM35,5.88c.07,0,.17.07.2.13s0,.14-.06.22-.19-.06-.21-.12S35,6,35,5.88Zm-.13,6.5s0,.09,0,.11a2.52,2.52,0,0,1-.25.21,1.67,1.67,0,0,1,.08-.3S34.79,12.38,34.86,12.38Zm-.65.46a1.65,1.65,0,0,1,.32-.07c-.08.09-.14.18-.22.26s-.08,0-.12,0S34.18,12.85,34.21,12.84Zm-.28-4.68.13.22-.27.24c0-.06-.13-.16-.11-.19A2.11,2.11,0,0,1,33.93,8.16Zm-.2,5.42c.44.28.52.46.27.64a1.45,1.45,0,0,1-.88.3Zm-.54,5.36c.06-.58.24-.67,1.2-.65a1.08,1.08,0,0,1-.54,1.11.53.53,0,0,1-.49,0A.57.57,0,0,1,33.19,18.94ZM33.37,61l0-.11.08.07Zm.23-6.37.12.17s-.1.06-.11,0a1,1,0,0,1-.12-.17Zm.21,12.76-.12,0,0-.1Zm0,8.48c-.08,0-.27-.09-.27-.15a.34.34,0,0,1,.15-.3c.07,0,.21.07.36.13C33.91,75.73,33.86,75.87,33.77,75.91ZM34,71.32c-.28,0-.57-.25-.51-.49s.21-.23.42-.45a4.55,4.55,0,0,1,.37.73S34.12,71.31,34,71.32Zm.45-1.15L34.23,70a1.48,1.48,0,0,1,.24-.26s.19.11.18.12A1.44,1.44,0,0,1,34.46,70.17ZM34.7,66l-.16-.12s.06-.09.07-.09a1.77,1.77,0,0,1,.17.12Zm-.09-7,.07-.1.17.14-.07.1Zm.65,2.93c-.17,0-.29-.26-.43-.4l.5-.47c.15.15.34.25.35.38S35.59,62,35.26,61.91ZM35.5,55c-.12,0-.28-.15-.42-.23a3.28,3.28,0,0,1,.4-.43s.18.13.33.24C35.69,54.77,35.62,55,35.5,55Zm.4-1.31.08-.07v.1Zm.36-4.08a1.14,1.14,0,0,1-.51-.32c0-.05.12-.26.23-.5a2.82,2.82,0,0,1,.52.48C36.53,49.34,36.3,49.64,36.26,49.63Zm-.17-4.91.16.06-.14,0ZM36.62,62l1.09.05C37.27,62.72,36.93,62.65,36.62,62ZM37,56.8c.11,0,.23-.14.33-.12s.15.17.25.29c-.15.08-.3.2-.35.17A1.07,1.07,0,0,1,37,56.8Zm.48-6.44c.09-.09.19-.25.26-.23a1.69,1.69,0,0,1,.43.28c-.18.13-.31.28-.36.26A1.93,1.93,0,0,1,37.47,50.36Zm1,21c-.14-.08-.34-.14-.4-.27s.06-.29.13-.6c.23.22.4.32.42.45S38.48,71.19,38.42,71.33Zm6.89,2a.65.65,0,0,1-.13-.16s0-.08.06-.08a1.46,1.46,0,0,1,.19.07ZM48.16,75a.19.19,0,0,1-.12,0c0-.07.05-.14.07-.21l.22.1A1.25,1.25,0,0,1,48.16,75Zm5.11-1.27.06-.13,0,.1Zm3.44,1.39s-.06,0-.1-.06l.15-.17.1.07Zm.91.12a.33.33,0,0,1-.1,0l.07-.15.09.06S57.65,75.19,57.62,75.21Zm.67-.62-.11,0,0-.1s.08,0,.1,0S58.3,74.56,58.29,74.59Zm1.92,0-.09-.07.12,0ZM62.34,76l-.11-.64A3.66,3.66,0,0,1,64,75.11,2.46,2.46,0,0,1,62.34,76Zm1.78-1.89c-.11-.12-.25-.21-.25-.29s.12-.18.2-.27c.08.07.24.13.24.21S64.21,74,64.12,74.12Zm.66-1.52s-.07,0-.1,0l.07-.16.08.07S64.81,72.59,64.78,72.6Zm1.63.43c-.07,0-.18,0-.2-.1s.05-.13.08-.2l.21.09Zm4.12,3.13a.55.55,0,0,1-.1-.32s.16-.1.2-.08a1.5,1.5,0,0,1,.25.31C70.72,76.12,70.56,76.2,70.53,76.16Zm3-1.2,0-.08h.08Zm1.89-.44s.11,0,.11,0,0,.23.07.35a1.87,1.87,0,0,1-.29-.2A.84.84,0,0,1,75.47,74.52Zm0,.93.25-.49,1-.3C76.49,75.41,76,75.37,75.43,75.45Zm3.66-.21.06-.08,0,.09Z"/>
    <path class="b" d="M185.67,101.5a8.77,8.77,0,0,0-3.74-2,19.42,19.42,0,0,0-4.68-.53L173,99c-1.39,0-2.78,0-4.17,0a2.93,2.93,0,0,0-1.85.41c0,.51-.11,1.1-.11,1.7q0,6.93,0,13.87,0,6.73,0,13.46c0,.23,0,.47,0,.7a.66.66,0,0,0,.6.66,5.89,5.89,0,0,0,2.56-.1c0-.41.08-.81.08-1.21q0-4.78-.05-9.57a7.1,7.1,0,0,1,.17-1.08,5.75,5.75,0,0,1,.89-.14c1.94,0,3.89-.1,5.82,0a15.24,15.24,0,0,0,5.57-.89,7.77,7.77,0,0,0,5-5,10.9,10.9,0,0,0-.16-7.73A6,6,0,0,0,185.67,101.5Zm-1.6,10.26a5.13,5.13,0,0,1-4.09,2.72,45,45,0,0,1-7.06.23c-.5,0-1,0-1.52,0-1.16,0-1.33-.11-1.34-1.21,0-1.53,0-3.06,0-4.58,0-.23,0-.46,0-.69H170v-4.58a7.67,7.67,0,0,1,0-.83c.06-.62.23-.84.85-.87,1.34-.07,2.68-.09,4-.1,1.16,0,2.31,0,3.47.06a10.11,10.11,0,0,1,1.65.14,5.73,5.73,0,0,1,4.87,5.72A7.68,7.68,0,0,1,184.07,111.76Z"/>
    <path class="b" d="M250.64,115a3.74,3.74,0,0,0,1.32-1,9.2,9.2,0,0,0,2-9.55,6.78,6.78,0,0,0-3.41-4.19,10.71,10.71,0,0,0-4.37-1.24c-1.2-.09-2.4-.08-3.6-.08-2.92,0-5.83,0-8.75,0-1,0-1.1.14-1.1,1.14,0,2.4,0,4.81,0,7.22v10.27q0,5.41,0,10.82a1.57,1.57,0,0,0,.42,1.41,5.78,5.78,0,0,0,2.68-.32c.06-.84.18-1.71.18-2.57,0-1.67-.15-3.33-.09-5a32.32,32.32,0,0,0,0-4.29c-.08-.86.15-1.1,1-1.11,1.89,0,3.79,0,5.68,0a1.28,1.28,0,0,1,1.32.8c.39.84.81,1.67,1.22,2.5q2.06,4.16,4.13,8.32c.15.29.3.58.44.87a1.26,1.26,0,0,0,1.2.79h2.89c-1-2.4-2.29-4.45-3.3-6.61s-2.27-4.32-3.24-6.66c.42-.21.73-.39,1.05-.54C249.1,115.65,249.86,115.32,250.64,115Zm-7.36-1.25c-.28,0-.56,0-.84,0h-5.11c-.36,0-.72-.08-1.23-.14a57.16,57.16,0,0,1-.15-6.09c.07-1.1,0-2.2,0-3.31,0-.5-.06-1,0-1.52s.26-.82.88-.83,1.29,0,1.93,0c2.22,0,4.43,0,6.65.07a11.55,11.55,0,0,1,2.17.35,4.57,4.57,0,0,1,3.42,3.3,7.2,7.2,0,0,1-.7,5.75,4.18,4.18,0,0,1-2.9,1.95A19.6,19.6,0,0,1,243.28,113.77Z"/>
    <path class="b" d="M151,104.37a11.41,11.41,0,0,0-9.67-5.81,11.18,11.18,0,0,0-5,.77,12.54,12.54,0,0,0-6.69,6.9,18.06,18.06,0,0,0-1.54,7,22.93,22.93,0,0,0,.72,7.14,16.53,16.53,0,0,0,2.77,5.55,11.35,11.35,0,0,0,4.56,3.51,12.84,12.84,0,0,0,4.63.78,11,11,0,0,0,8.8-3.92,16.15,16.15,0,0,0,3.46-6.87,20.8,20.8,0,0,0,.54-5.93A18.28,18.28,0,0,0,151,104.37Zm-1.09,14.15a16,16,0,0,1-1.44,4,8.81,8.81,0,0,1-6.88,4.8,7.19,7.19,0,0,1-4.17-.72,9.78,9.78,0,0,1-4.33-4.16,17.73,17.73,0,0,1-1.89-8.59,18,18,0,0,1,1.57-7.1,9.56,9.56,0,0,1,5.06-4.89,5.72,5.72,0,0,1,3.12-.44,12.82,12.82,0,0,1,2.59.47,9.5,9.5,0,0,1,5.24,5.08,15.06,15.06,0,0,1,1.45,5.74A18.39,18.39,0,0,1,149.94,118.52Z"/>
    <path class="b" d="M335.91,126.92h-7.08c-2.4,0-4.8,0-7.21,0a3.05,3.05,0,0,1-.65-.15,9.74,9.74,0,0,1-.23-3.47c0-1.39,0-2.77,0-4.16,0-.88,0-1.76,0-2.63,0-.5.15-1,.25-1.59.62,0,1-.06,1.44-.06,1.9,0,3.8,0,5.69,0,1.36,0,1.45-.27,1.45-1.57a1.47,1.47,0,0,0-.4-1.29c-.33,0-.78,0-1.23,0-2,0-4.07,0-6.11-.05a5.61,5.61,0,0,1-.94-.16,5.28,5.28,0,0,1-.15-.73c0-2.68,0-5.36,0-8a4.1,4.1,0,0,1,.16-.84,6.17,6.17,0,0,1,1-.21c.92,0,1.84-.07,2.77-.07,1.62,0,3.23,0,4.85,0s3,0,4.44,0a4.52,4.52,0,0,0,2.07-.26c0-.39.09-.75.1-1.11,0-1.52,0-1.57-1.52-1.57H323.76c-1.71,0-3.42,0-5.14.05a4.86,4.86,0,0,0-.84.15,6.41,6.41,0,0,0-.22,3.11c.08,3.47-.07,6.93,0,10.39a10.36,10.36,0,0,1-.08,1.11,8.15,8.15,0,0,0,0,1.1,30.88,30.88,0,0,1,0,6.23,4.64,4.64,0,0,0,0,.83,29.58,29.58,0,0,1,0,5.95,2.53,2.53,0,0,0,.34,1.75,2.63,2.63,0,0,0,.53.15c1.62,0,3.24.09,4.85,0,.78,0,1.56,0,2.34,0,3.42.06,6.84.05,10.26.06a3,3,0,0,0,.75-.17,3.75,3.75,0,0,0-.12-2.64A2,2,0,0,0,335.91,126.92Z"/>
    <path class="c" d="M266,32.69l0,0h0Z"/>
    <path class="b" d="M302.66,107.11c0-.23,0-.46,0-.69a61.85,61.85,0,0,0,0-6.24,5.09,5.09,0,0,0,0-.55A.69.69,0,0,0,302,99a3.51,3.51,0,0,0-2.34.3c0,.4-.1.81-.1,1.22,0,2.12,0,4.25,0,6.37,0,1.76-.08,3.51-.08,5.27s.07,3.33.09,5c0,1,0,1.94,0,2.91,0,1.8,0,3.61,0,5.41a31.15,31.15,0,0,0,.16,4.19,4.48,4.48,0,0,0,2.07.19c.64,0,.87-.19.89-.81.07-1.75.12-3.51.13-5.27,0-1.25-.07-2.49-.07-3.74,0-.93.1-1.85.1-2.77C302.75,113.86,302.7,110.49,302.66,107.11Z"/>
    <polygon class="b" points="11.53 114.35 11.53 114.35 11.53 114.35 11.53 114.35"/>
    <path class="b" d="M285.43,99c-1.72,0-3.43,0-5.14,0H269.61c-1.21,0-2.41,0-3.61,0-.64,0-.81.23-.85.85a10.28,10.28,0,0,0,0,1.11c.05.74.21.9.91.94.28,0,.55,0,.83,0,1.9,0,3.8.09,5.69,0,1.68-.06,1.7.35,1.67,1.76,0,1-.1,2-.1,3,0,1.34.09,2.68.09,4,0,.92-.1,1.84-.1,2.77,0,1.43.08,2.86.09,4.29,0,.88-.09,1.75-.08,2.63,0,1.43.08,2.87.09,4.3a28.75,28.75,0,0,0,0,4.15,6.56,6.56,0,0,0,.23.85,4.35,4.35,0,0,0,2.7-.22,14.51,14.51,0,0,0,.24-4.37c0-1.29,0-2.58,0-3.88l0-3.18c0-1.15,0-2.31,0-3.46s.06-2,.06-3-.16-2-.1-2.91a31.26,31.26,0,0,0,0-5.12,1.8,1.8,0,0,1,.43-1.65c.89,0,1.86,0,2.82,0s1.85,0,2.78-.06a11.34,11.34,0,0,0,2.9-.12,4,4,0,0,0,0-2.55A5.54,5.54,0,0,0,285.43,99Z"/>
    <path class="b" d="M15,114.68v0h0Z"/>
    <path class="b" d="M76.14,99.45A15.26,15.26,0,0,0,72.58,99c-3.28-.06-6.57,0-9.85,0-.4,0-.81.08-1.35.13,0,.6-.07,1-.07,1.42v23.87c0,1.43,0,2.87,0,4.3a8,8,0,0,0,.17,1.1c.84,0,1.58,0,2.31,0a.68.68,0,0,0,.69-.72c0-.28,0-.56,0-.83,0-3.06,0-6.11,0-9.17a1.64,1.64,0,0,1,.38-1.41l1.68,0c2.31,0,4.62-.07,6.94-.09a10.48,10.48,0,0,0,4.86-1.44,7.6,7.6,0,0,0,2.92-2.87,9.84,9.84,0,0,0,1.2-6.56A7.88,7.88,0,0,0,76.14,99.45ZM78.44,112a4.48,4.48,0,0,1-2.14,1.9,9.4,9.4,0,0,1-3.62.84H65.61a9.29,9.29,0,0,1-1-.13c0-.49-.12-.9-.12-1.3V103.18a5.24,5.24,0,0,1,0-.56c.06-.52.27-.75.81-.73,3,.06,5.92-.27,8.86.16,2.47.37,4.18,1.2,5,4.44A7.18,7.18,0,0,1,78.44,112Z"/>
    <path class="b" d="M113.22,114.78a3.12,3.12,0,0,0,.87-.67,9.29,9.29,0,0,0,2-9.79,6.92,6.92,0,0,0-2.93-3.76,9.82,9.82,0,0,0-4.43-1.46c-1.2-.11-2.4-.11-3.6-.12C102.07,99,99,99,96,99c-.89,0-1,.14-1,1q0,3.19,0,6.39,0,10,0,20c0,.88,0,1.76,0,2.64,0,.41.14.78.59.8A4.26,4.26,0,0,0,98,129.5a7.3,7.3,0,0,0,.1-.94c0-3.6,0-7.21,0-10.81,0-1,.12-1.2,1.05-1.21,1.89,0,3.79,0,5.68,0a1.29,1.29,0,0,1,1.29.85c.6,1.25,1.24,2.48,1.85,3.72l3.48,7.1c.77,1.56.78,1.57,2.52,1.64.59,0,1.19,0,2,0a4.61,4.61,0,0,0-.21-.75c-.55-1.07-1.12-2.13-1.67-3.2q-2.08-4.14-4.16-8.3a10.22,10.22,0,0,1-.4-1.09l1.18-.56C111.54,115.55,112.39,115.19,113.22,114.78Zm-6.93-1c-2.35,0-4.7,0-7.06,0a5.73,5.73,0,0,1-.9-.17,8.59,8.59,0,0,1-.17-1.21c0-2.4,0-4.8,0-7.19,0-.51,0-1,0-1.53s0-1,0-1.68c.59,0,1-.11,1.39-.12,1.29,0,2.59,0,3.88,0a31.67,31.67,0,0,1,5.24.25,5.19,5.19,0,0,1,4.69,6.4,17.28,17.28,0,0,1-.48,2,4,4,0,0,1-2.91,2.7A12.16,12.16,0,0,1,106.29,113.74Z"/>
    <path class="b" d="M117.11,65.58a3.28,3.28,0,0,1,0-.7c0-1.94.11-3.88.11-5.82A8.92,8.92,0,0,0,117,57a2.42,2.42,0,0,0-2.47-1.84,23,23,0,0,1-4.15.08,2.86,2.86,0,0,0-2,.75c-.5.4-.34,1-.39,1.56a53.31,53.31,0,0,0,0,8.57,8.28,8.28,0,0,1,0,1.11,4.28,4.28,0,0,1-2.53,3,1.39,1.39,0,0,1-.41,0,11.38,11.38,0,0,1-2.75-.15c-.65-.19-1.15-.88-1.74-1.32a1.26,1.26,0,0,1-.57-1.55,1.56,1.56,0,0,0,.12-.81,17.25,17.25,0,0,1,0-3.59c0-.78,0-1.57,0-2.36,0-2,0-4-.05-5.94V53.21c0-1.25,0-2.5,0-3.75,0-.64-.08-1.29,0-1.92a11.9,11.9,0,0,0,0-3,10.87,10.87,0,0,1,0-2.21c0-1.39.14-2.77.22-4.15.16-2.13-.3-4.24-.19-6.36.1-1.93-.23-3.88.11-5.81a3.19,3.19,0,0,0,0-.69c0-.6,0-1.21,0-1.81-.09-2.35.25-4.71,0-7.06-.09-1-.12-1.94-.21-2.9a1.77,1.77,0,0,1,.86-1.89,2.17,2.17,0,0,0,.7-.65,2,2,0,0,1,1.67-.82,5.87,5.87,0,0,0,1.11,0,2.82,2.82,0,0,1,3,1.2,2.79,2.79,0,0,1,.73,2.39,13.75,13.75,0,0,0,0,4.83,5.86,5.86,0,0,1-.06,1.5c0,1.06-.15,2.12-.1,3.18a1.92,1.92,0,0,0,1.56,1.89,6.63,6.63,0,0,0,1.65.23c1.42,0,2.85-.1,4.28-.19a2.55,2.55,0,0,0,.91-.29,1.3,1.3,0,0,0,.8-1.06,23.75,23.75,0,0,0,.27-4.7,23.75,23.75,0,0,1-.1-4.84A41.07,41.07,0,0,0,117,9.43a2.38,2.38,0,0,0-.41-1.29c-.62-.86-1.32-1.66-2-2.46-.52-.59-1.12-1.1-1.62-1.7a4.64,4.64,0,0,0-4.34-1.61,14.82,14.82,0,0,1-2.9.1,29.46,29.46,0,0,0-5,0c-1.06,0-2.12.1-3.18.09a2.84,2.84,0,0,0-2.09.92c-1,1-2,2-3,3a4.92,4.92,0,0,0-1.71,4.07c.17,2.59-.28,5.17,0,7.75-.37,1.28,0,2.57,0,3.86,0,.37-.09.73-.1,1.1,0,1.79,0,3.59,0,5.39,0,.64.14,1.28.13,1.92,0,1.71-.1,3.41-.15,5.11,0,.37,0,.74,0,1.11.07,1.43.19,2.86.21,4.29,0,2.26-.21,4.51,0,6.78s-.3,4.52-.14,6.78a5.11,5.11,0,0,1,0,.55,20.57,20.57,0,0,0,0,3.33,21.56,21.56,0,0,1,.08,3.59c0,1.24,0,2.48,0,3.72a10.27,10.27,0,0,1,0,1.24,12.33,12.33,0,0,0,.16,4.41A4.3,4.3,0,0,0,92.26,74c.46.37.88.81,1.31,1.23s1.09,1.14,1.68,1.65a4.77,4.77,0,0,0,3.8,1.34,20.19,20.19,0,0,1,4.85.08,2.83,2.83,0,0,0,.82,0,24.38,24.38,0,0,1,5.12-.22,2.7,2.7,0,0,0,2.42-1.07,8,8,0,0,1,1.53-1.59,14.41,14.41,0,0,0,2.41-2.27,3.11,3.11,0,0,0,.89-2.39C117,69.08,117.42,67.33,117.11,65.58ZM114.51,9.3l.13.07h0l0,0v0s0,0,0,.05l0,0-.07.1c-.06,0-.16-.06-.18-.11S114.47,9.37,114.51,9.3Zm-.2.9s.09,0,.11,0,0,.07,0,.11h-.19Zm0,12,.25.25-.1.11-.08.2-.06-.05-.22.24-.19-.14Zm-1.2-6.31a4.26,4.26,0,0,1,.62.35c-.24.11-.37.23-.46.21a.64.64,0,0,1-.33-.3S113.12,15.92,113.15,15.93ZM110,17.28v-.09l.09,0Zm.67,3.56a1.74,1.74,0,0,1-.05-.22s.09-.06.1-.05a1.22,1.22,0,0,1,.15.17Zm1.3-8.1,0,.11,0-.12H112Zm.06-1.49s0-.06,0-.1.08,0,.1,0,0,.06,0,.1S112,11.26,112,11.25Zm0-4.62a.38.38,0,0,1,.15,0s.09,0,.09,0l0,0h.07l0,.08,0,.09h-.08c0,.05,0,.08,0,.08a1.68,1.68,0,0,1-.32-.09C111.91,6.76,111.93,6.63,112,6.63Zm-.23,5.19.08,0-.12.05Zm-.48,5.45s0,.08,0,.1-.07,0-.11,0h0l-.11.05s0-.07-.08-.1l.2-.09v0Zm-.6-11.74,0,.06.05-.08c.14.27.26.4.27.54s-.17.26-.21.25l-.06,0-.1.1c-.12-.14-.3-.26-.35-.42S110.49,5.72,110.66,5.53Zm-.7-1s.12-.07.19-.11l0,.12.09,0-.06.09h0l-.18.09C110,4.69,109.94,4.6,110,4.56Zm-1.18.36.07.07.08,0s.17.12.16.16a.41.41,0,0,1-.06.11l0,.06s-.08.09-.18.17h0l-.14.11a2.28,2.28,0,0,1-.26-.47S108.72,4.89,108.78,4.92Zm-2.11,2v0h0l.51-.08-.22.34H107l-.14.27-.05.23-.55-.28Zm-1.49-.51c0,.09-.12.2-.23.36a1.92,1.92,0,0,0-.16-.21l-.2-.17c.08-.1.15-.25.24-.27s.06,0,.09,0l0,0C105,6.23,105.17,6.32,105.18,6.43Zm-.61-1.76c.06,0,.16.06.22.13l.1.07-.07.07a2,2,0,0,1-.16.36l-.38-.39C104.38,4.82,104.46,4.69,104.57,4.67Zm-.66,2.79v.09l-.09,0Zm-.65-1.79,0,0h0c.09,0,.17.14.26.22l0,.06h0l-.19.21-.1-.11h-.09c-.06,0-.09-.2-.1-.31S103.22,5.64,103.26,5.67Zm-.34,1.94c-.53.34-.64-.13-.83-.42C102.43,7.17,102.77,7.16,102.92,7.61Zm-.9-1,0,.54C101.55,7,101.91,6.8,102,6.61Zm-.61,1.18c.07,0,.17,0,.2.1s0,.13-.07.2-.17-.05-.2-.1S101.38,7.86,101.41,7.79Zm-.51-2.25,0,.19a.42.42,0,0,1-.12,0s0-.08,0-.11Zm-2.72,66a1.07,1.07,0,0,1,.16.14s0,.06-.06.09l-.17-.14ZM97.7,11.19l.26.33a1.35,1.35,0,0,1-.4.1s-.15-.16-.13-.19A1,1,0,0,1,97.7,11.19Zm-.76-1.28a1.06,1.06,0,0,1,.3.24c.06.08,0,.22,0,.33a1,1,0,0,1-.34-.12A.89.89,0,0,1,96.8,10Zm.19,36.53s0,.08,0,.08-.07,0-.1,0,0-.08,0-.08Zm-.22-5.73.09.23-.23.08c0-.07-.1-.17-.07-.2S96.84,40.74,96.91,40.71Zm-.11-9.92,0-.17a.21.21,0,0,1,.1.06s0,.07,0,.11Zm-.15-3.14c.06,0,.09.13.13.21l-.16.18-.18-.28C96.51,27.72,96.6,27.63,96.65,27.65Zm-1.29,38.2c0-.13.17-.24.37-.49a2,2,0,0,1,.17.59c0,.06-.21.16-.3.14S95.34,65.91,95.36,65.85ZM95.43,71l-.11,0,0-.09Zm-.54-21.06c0-.12.16-.25.36-.54.08.48.13.76.17,1A.57.57,0,0,1,94.89,49.91Zm.41,7.33s-.14.07-.21.1-.09-.17-.06-.22.13-.08.21-.11S95.32,57.18,95.3,57.24Zm-.37-36.62.07,0v.07Zm.53,32.14c.05,0,.18,0,.19.09s-.05.14-.08.22L95.36,53C95.39,52.89,95.41,52.78,95.46,52.76Zm0,.82c.08.07.22.13.22.22s-.08.2-.16.37c-.12-.14-.24-.22-.24-.3S95.42,53.67,95.49,53.58Zm1,2.21.18.88-1.1-.44C95.78,55.75,96,55.52,96.49,55.79ZM96,38.05l.19.35c-.1.05-.21.16-.31.14a.31.31,0,0,1-.17-.25C95.69,38.21,95.83,38.15,96,38.05Zm-.36,1.14a2.1,2.1,0,0,1,.46-.14c-.26.27-.36.46-.51.52S95.39,39.34,95.6,39.19ZM95.16,47l.1,0-.11.06Zm0,.78a1,1,0,0,1,.26-.19l.13.26-.3.15C95.19,47.88,95.11,47.78,95.13,47.74Zm0,.63.07.05-.08,0ZM95,8.4c.05,0,.06.14.08.22l-.17.11-.12-.29C94.85,8.42,95,8.37,95,8.4Zm-.31,1.08c.57.46.57.46,0,1.13C94.18,10.07,94.18,10.07,94.68,9.48Zm-.23,29.7h-.09l.06-.08Zm-.85-20,.57.39c-.23.18-.36.36-.48.35a.47.47,0,0,1-.32-.32C93.36,19.43,93.52,19.28,93.6,19.14Zm.63,3.35-.08.14L94,22.46Zm-.86,17.66-.31.26a1.51,1.51,0,0,1-.25-.39c0-.06.14-.17.21-.26Zm-.12-9.73-.09-.07.1,0Zm-.06,14.1-.08.07L93,44.45a.17.17,0,0,1,.1,0S93.17,44.49,93.19,44.52Zm.54,8-.62,1c-.13-.16-.26-.24-.27-.34C92.78,52.57,93.26,52.61,93.73,52.49Zm0-16.32a.22.22,0,0,1,.11,0s0,.06.06.09l-.07.09Zm-.26-13.74a.17.17,0,0,1,0-.1l.38-.46.11.56Zm0,0a.18.18,0,0,1,0,.09c0,.21,0,.41-.08.62-.11,0-.29-.06-.32-.14A.4.4,0,0,1,93.43,22.46ZM93,26.94c0-.1.17-.17.32-.31a1.29,1.29,0,0,1,0,.41c0,.1-.17.16-.34.32A1.48,1.48,0,0,1,93,26.94ZM92.86,37.5c.08,0,.21.09.36.17L93,38c-.1-.08-.25-.13-.29-.23A.34.34,0,0,1,92.86,37.5Zm-.11,17.26a5.62,5.62,0,0,1,.65.74.45.45,0,0,1-.12.44.68.68,0,0,1-.58,0C92.42,55.65,92.39,55.29,92.75,54.76Zm.12,4.9c-.12-.25-.25-.4-.24-.53s.19-.31.31-.31a.29.29,0,0,1,.33.41C93.22,59.37,93.06,59.46,92.87,59.66Zm.35,7.83,0-.11h.1a.42.42,0,0,1,0,.12Zm-.39-9.69c.7-.08,1.1-.17,1.5-.17.22,0,.5.11.44.41a.53.53,0,0,1-.36.32A1.53,1.53,0,0,1,92.83,57.8Zm1.27,1.4c.09.1.18.15.19.21s-.05.17-.07.25-.2,0-.2-.08A2.37,2.37,0,0,1,94.1,59.2Zm1,10.64a.57.57,0,0,1-.32.21,2.52,2.52,0,0,1-.57-.17c.27-.19.37-.31.49-.34a.55.55,0,0,1,.37.07A.23.23,0,0,1,95.06,69.84Zm-.23-1.38.14-.14a.59.59,0,0,1,.1.17s-.06.08-.06.08A1.08,1.08,0,0,1,94.83,68.46ZM95,60.71c.18-.31.32-.64.5-.94.06-.09.22-.12.35-.18.13.85.13.85-.56,1.8C94.9,61.28,94.75,61.09,95,60.71Zm1.33,13.86-.08,0,0-.08.09,0S96.33,74.57,96.31,74.57ZM96,73.12l-.65-.28c0-.11-.07-.18,0-.18.41-.31.78-.76,1.6-.57Zm.52-6.26-.44,1C96,67.25,95.86,67,96.53,66.86Zm.15-2.36a.55.55,0,0,1-.46.15c-.31-.05-.23-.32-.23-.53l1-.52A4.09,4.09,0,0,1,96.68,64.5Zm0-2.61c-.09,0-.16-.14-.24-.22l.36-.2.22.3C96.9,61.82,96.78,61.91,96.67,61.89Zm.27-3.81a.82.82,0,0,1-.2-.17c.05-.06.13-.17.15-.15s.13.11.2.17S97,58.09,96.94,58.08Zm.24,9.21-.05-.11h.11Zm0-11.78,0-.16s0,.06,0,.09S97.2,55.49,97.18,55.51Zm-.24-1.81a1.18,1.18,0,0,1-.52-.4.55.55,0,0,1,0-.4.75.75,0,0,1,.84-.54c.15.42.29.79.46,1.27A2.75,2.75,0,0,1,96.94,53.7Zm.6-35.15c0-.18,0-.41.16-.53s.3.11.22.33a.74.74,0,0,1-.14.22Zm.26,55.66c.11-.59.11-.59.74-.54Zm.91-67s0-.07,0-.1l.11,0,0,.11S98.73,7.22,98.71,7.21ZM98.25,5c.24-.47.6-.48.86-.31s.13.45.18.68C98.77,5.67,98.54,5.37,98.25,5Zm1.41,1,.89.29c.12.53-.2.64-.53.6S99.49,6.62,99.66,6.05Zm9.71,65.21c.09,0,.17.17.26.26l-.64.53c-.12-.17-.26-.28-.24-.36A.56.56,0,0,1,109.37,71.26Zm.07,3.39c-.38.17-.58-.05-.68-.5.37-.16.69-.34.87.07A.47.47,0,0,1,109.44,74.65Zm4.06-16.38a1.11,1.11,0,0,1,.19.09l-.13.17-.13-.17A.22.22,0,0,1,113.5,58.27Zm-1.19.06.32.17a1.94,1.94,0,0,1-.34,0s-.07-.11-.11-.17S112.28,58.31,112.31,58.33Zm-.11.6a3,3,0,0,1,.46-.41h0a3.55,3.55,0,0,1,.2.63c0,.09-.13.28-.21.28a.68.68,0,0,1-.45-.15C112.14,59.24,112.14,59,112.2,58.93Zm.35,2.24a.64.64,0,0,0,.23-.82c0-.09.23-.3.41-.53l.63.8c-.26.61-.5,1.19-.81,1.94l-.89-.78A4.23,4.23,0,0,1,112.55,61.17Zm1.34.82s0,.07,0,.1l-.11,0,0-.1S113.87,62,113.89,62Zm-3.5,9.42.09-.07v.11ZM110.5,62c0-.07,0-.2,0-.23s.33-.07.38.16c0,0-.05.06-.08.06A2.08,2.08,0,0,1,110.5,62Zm.45-.06c.78-.08.87,0,.68.57a2,2,0,0,1-.14.37c0,.07-.11.12-.22.22C110.85,62.74,110.92,62.31,111,61.89Zm.42,9.28c-.06,0-.19-.11-.18-.13a1,1,0,0,1,.19-.27,4,4,0,0,1,.4.26A2,2,0,0,1,111.37,71.17Zm.25-3.81c-.08,0-.19,0-.22-.1-.17-.31,0-.45.45-.67Zm-.76-6.15.49-1,.76.72C111.72,61.52,111.34,61.21,110.86,61.21Zm1.26,2.7a1.76,1.76,0,0,1-.09-.2s.07-.08.08-.07a1.77,1.77,0,0,1,.17.12Zm.5.79.08,0v.09Zm.25,1.55-.09,0s0-.08,0-.08a.14.14,0,0,1,.09,0S112.88,66.22,112.87,66.25Zm.39.54-.09-.06.11,0Zm1-2.46L112.84,64c.09-.55.09-.55,1.34-1.49A2.39,2.39,0,0,1,114.22,64.33Zm.57.27c-.05,0-.07-.13-.1-.2s.17-.1.23-.08.07.14.1.22S114.85,64.62,114.79,64.6Zm.34-3.72c0,.07-.1.13-.21.29l-.32-.68C114.88,60.47,115.25,60.32,115.13,60.88Z"/>
    <path class="b" d="M83.48,56.66a2,2,0,0,0-2-1.89,10.41,10.41,0,0,0-1.25,0c-.69,0-1.38,0-2.08,0-2.59,0-5.17-.08-7.76-.08-2.87,0-5.74.07-8.6.1-.71,0-.9-.17-.9-.9,0-1.9,0-3.8,0-5.7,0-3.64.21-7.29-.13-10.93,0-.55.32-1,.83-.83a12,12,0,0,0,3.17.1c2.08,0,4.16,0,6.24,0,1.81,0,3.61.1,5.41.09a26.79,26.79,0,0,0,3.46-.22,1.64,1.64,0,0,0,1.61-1.75.66.66,0,0,1,0-.14c0-1.16.07-2.31.06-3.47a3.68,3.68,0,0,0-.25-1.21,1.55,1.55,0,0,0-1.67-1.17c-.37,0-.74,0-1.11,0h-11c-1.85,0-3.7,0-5.55,0-.94,0-1.19-.26-1.16-1.25,0-2,.08-4.06.1-6.09s0-4.26,0-6.38c0-1.2,0-2.41-.09-3.6,0-.88.24-1.24,1.13-1.07a35.2,35.2,0,0,0,6.24.19,48.4,48.4,0,0,1,5.52,0,6.24,6.24,0,0,0,1-.05,4,4,0,0,1,1,0c1.85.32,3.69-.15,5.54-.08a2.34,2.34,0,0,0,.68-.13,1.84,1.84,0,0,0,1.54-1.89,20.58,20.58,0,0,0-.1-3.6C83,3,82.25,2.36,80.64,2.45a46.16,46.16,0,0,1-4.85,0c-1.85-.09-3.69,0-5.54,0a5.15,5.15,0,0,1-1.24,0,14.19,14.19,0,0,0-3.32-.07c-.79,0-1.57.06-2.36.05-2.45,0-4.9-.05-7.35-.05a23.13,23.13,0,0,0-2.35.13,2,2,0,0,0-2,2.06c-.1,1.57-.17,3.14-.17,4.71,0,4,0,8,0,11.93,0,.51-.12,1-.11,1.52,0,1.52.13,3.05.14,4.57,0,3.65.07,7.3.08,11s0,7,0,10.55h0c0,2,0,4,0,6,0,1.67,0,3.33,0,5,0,1.91.88,2.81,2.76,2.89a8.15,8.15,0,0,0,1.1,0,45.28,45.28,0,0,1,6.38.1,2.92,2.92,0,0,0,.83,0,20,20,0,0,1,4.57-.18c1.23,0,2.45.07,3.69,0,2.81-.14,5.62.2,8.44-.05a12.73,12.73,0,0,1,1.38.05c.33,0,.65,0,1,0,1.2-.1,1.62-.52,1.76-1.73.08-.78.17-1.57.19-2.35A11.43,11.43,0,0,0,83.48,56.66Zm-4.33-22.9s.17.14.3.26c-.15.09-.25.2-.35.19s-.2-.12-.3-.19A1.23,1.23,0,0,1,79.15,33.76Zm-.49-1-.75.17C78,32.43,78,32.43,78.66,32.72Zm-.91-1.12.07.1a1.09,1.09,0,0,1-.17.13,1.34,1.34,0,0,1,0-.2Zm-3.24,1.29v-.08l.07,0ZM75.8,31.1l.11,0,0,.11s-.09,0-.11,0S75.79,31.14,75.8,31.1Zm-1.1-.36c.3,0,.68.19.61.38s-.28.28-.48.46c-.22-.16-.47-.25-.52-.41S74.46,30.77,74.7,30.74Zm-1,1.42h-1.2C72.92,31.56,72.92,31.56,73.66,32.16Zm-4.74-.6s.07,0,.08.05,0,.06,0,.09l-.09-.05Zm-.45,1.95a1.26,1.26,0,0,1,.33.05,1.55,1.55,0,0,1-.09.26,1.68,1.68,0,0,1-.32-.09C68.42,33.65,68.44,33.52,68.47,33.51ZM68.16,31c0,.06.09.13.14.2s-.16.11-.21.09-.09-.12-.13-.18Zm-2,2.8c.06,0,.14,0,.21.07s0,.16-.1.18-.14,0-.22-.06S66.13,33.84,66.18,33.82Zm-3.74-1.56a.73.73,0,0,1,1.05-.61c0,.41.24.85-.33,1.11l0,0-.62.13A1.51,1.51,0,0,1,62.44,32.26Zm17.35-27,.08-.09.16.13s0,.06-.07.1l0,0L80,5.6h.33l0,0,.12-.23s0,.09,0,.11l-.14.12,0,0H80v0l-.29-.16.12-.1ZM79,5.68s.08,0,.09,0,0,.06,0,.09l-.1,0ZM77.53,7.75c.13-.12.27-.23.41-.34l0,0a2.3,2.3,0,0,1,.32-.15s.08.12.14.21l-.24.17a2.17,2.17,0,0,1-.24.29c0,.06-.16,0-.34.08C77.54,7.83,77.51,7.76,77.53,7.75Zm-1.25-3,.08.07a.58.58,0,0,1-.13.14s0,0-.08-.06Zm-.41,3.62h0l-.1,0ZM75.32,4.6l.07,0-.07,0Zm0,2.69s0,.07,0,.09,0,0-.08.07l-.06-.16Zm-1.71-1,0,.1-.1,0ZM73.53,7a0,0,0,0,1,0,0h0l.1,0-.06,0,.07.11-.19.14a2.43,2.43,0,0,1-.14-.2C73.4,7.08,73.47,7,73.53,7Zm-.67-.85v.09l-.08,0Zm-.17.08.11,0,0,.1s-.09,0-.11,0S72.68,6.27,72.69,6.23Zm-.29.54s.06,0,.09.07l0,.1-.14-.1S72.37,6.77,72.4,6.77Zm-1-.57-.06.07,0-.08Zm-2.89-.74.11.18-.1.08-.1-.18Zm-2.19-.4.06,0v0l.18.06-.07,0,0,0a1.07,1.07,0,0,1-.16.14.74.74,0,0,1-.12-.17S66.31,5.05,66.33,5.06Zm-.55.8,0,0h0l0,0,.17.19c-.09.12-.16.27-.25.28a.41.41,0,0,1-.26-.18A1.84,1.84,0,0,1,65.78,5.86ZM63.89,7.79l0,.08L63.8,7.8Zm-1.71-1.5a.65.65,0,0,1,.26.08,2.38,2.38,0,0,1,.69.26,3,3,0,0,1-.93.26L62.12,7l-.06-.08a.93.93,0,0,1-.55-.33A1.8,1.8,0,0,1,62,6.38.39.39,0,0,1,62.18,6.29ZM60.75,4.71l0,.06v0l0,.08h0a.13.13,0,0,1,0,.07S60.76,5,60.7,5s-.12-.13-.12-.19S60.69,4.75,60.75,4.71Zm-.26,26.13.27.35a1.61,1.61,0,0,1-.4.26c-.06,0-.18-.15-.26-.23Zm-2.24,8.91c0-.09.25-.34.34-.32s.31.23.57.45c-.27.17-.49.4-.58.36A.72.72,0,0,1,58.25,39.75Zm.19,1.65-.15.06v-.1s.07,0,.1,0S58.42,41.38,58.44,41.4Zm0-9.59a3.18,3.18,0,0,1,.47.15,1.5,1.5,0,0,1-.18.29,4.36,4.36,0,0,1-.42-.23C58.33,32,58.39,31.81,58.42,31.81Zm-.19-3.56a.93.93,0,0,1,0-.24.78.78,0,0,1,.23,0,.31.31,0,0,1,.15.19c0,.05-.1.15-.14.15A.4.4,0,0,1,58.23,28.25Zm.24,8.19a1.74,1.74,0,0,1,.11.18s-.06.09-.07.09-.13-.08-.19-.11Zm-.55-13.59c.57,0,.86.2.82.51a.48.48,0,0,1-.35.31.58.58,0,0,1-.57-.6A.47.47,0,0,1,57.92,22.85Zm.79,2.09c0,.35-.18.46-.49.32a.4.4,0,0,1-.13-.33c0-.06.19-.14.29-.13A.94.94,0,0,1,58.71,24.94Zm-.89.84c.22.56.75.2,1.08.57l-.47.56,0,0c.3.47.06.8-.28,1.1h0v0h0c-.38.4-.25,1.17-1.07,1.4,0-.22-.15-.44-.09-.6.19-.51.46-1,.69-1.48-.08-.48-.83-.17-.85-.75,0-.27-.14-.55.13-.75S57.7,25.49,57.82,25.78ZM56.93,42.2l-.14-.29c.09,0,.18-.06.24,0s.08.13.12.2ZM57,44l-.05.09-.1-.13s.06-.05.09,0S57,44,57,44Zm.14-7.73s0-.09,0-.1.07,0,.11,0l0,.11Zm.25-28.42a.75.75,0,0,1,.1.17s-.06.09-.07.08a.81.81,0,0,1-.18-.1Zm.36,14.09a1,1,0,0,1-1.1.29C56.9,21.56,57.25,21.75,57.74,21.94Zm-1,14.46,0,1.08C56.35,37,56.35,37,56.72,36.4Zm-.15-9.16.09,0,0,.09Zm.12,7.55.08,0v.09ZM56.63,5.31l.07.05-.08,0Zm.12,4.14s.16.16.31.33a2.5,2.5,0,0,1-.51.24c-.06,0-.15-.18-.22-.28A2,2,0,0,1,56.75,9.45Zm-.22,6.85.24-.94C57.1,16,57.1,16,56.53,16.3Zm-.24-8.68V7.7l-.06-.06Zm.2,8.72c0,.32-.26.43-.51.51C56,16.5,56.1,16.29,56.49,16.34Zm-.76.65.15-.06-.17.17S55.71,17,55.73,17Zm-.07,1.58a1.71,1.71,0,0,1,1.3.77,5.76,5.76,0,0,0-.93,0,7.45,7.45,0,0,0-.91.3l0,0a1.46,1.46,0,0,1-.34-.41c-.17-.41,0-.57.48-.65l.37-.07Zm-.87,7.2c0,.11.09.3.05.33a2.7,2.7,0,0,1-.55.24s-.06-.05-.12-.1.08-.24.17-.3A1.74,1.74,0,0,1,54.79,25.77Zm-.3-.41h.15s-.06.05-.08.05S54.51,25.38,54.49,25.36Zm1.17,5c.35,0,.42.15.53.82-.38.09-.68-.22-1-.23a7.81,7.81,0,0,0-1.22.18l.07-.78C54.6,30.33,55.13,30.31,55.66,30.34Zm.11-7.71,0-.1.09.06Zm.41,10.46.09.06-.1,0Zm-.53-14.58-.08-.06s.06,0,.07,0A.06.06,0,0,1,55.65,18.51ZM55,6c.12-.11.43-.19.46-.15a.78.78,0,0,1,.2.57c-.09.35-.43.41-.76.45C54.75,6.55,54.69,6.23,55,6Zm.29,10.29-1-.05C54.64,15.74,54.87,15.77,55.25,16.28Zm-1.19,2.25.13.17s-.07.08-.09.08a.76.76,0,0,1-.18-.09Zm-.25,10.55.16.15a.87.87,0,0,1-.18.11s-.1-.06-.09-.07A1.18,1.18,0,0,1,53.81,29.08Zm-.29-13.26,0-.09s.07,0,.08,0a.13.13,0,0,1,0,.09Zm.4,27.7-.22-.2s.11-.14.17-.14.11.1.17.16Zm.31-4.13,0-.12.23,0v.12Zm.13-5.7.08,0v.08Zm.52,9.51-.12-.28c.07,0,.17-.07.21-.05s.07.14.09.22Zm.51,16.15s-.07-.05-.11-.07l.15-.19.17.15C55.53,59.27,55.47,59.32,55.39,59.35Zm-.88-26.08-.26-1.65c.7.23,1.22.42,1.38,1.32Zm1.56,6.62a.24.24,0,0,1-.1,0l.15-.12.05.1S56.11,39.89,56.07,39.89Zm.33-1.24.56.44c-.14.13-.19.24-.25.25a.45.45,0,0,1-.47-.52A.33.33,0,0,1,56.4,38.65Zm0,2,0-.08h.08Zm.21,13a.15.15,0,0,1,0-.13c.06-.05.15-.11.21-.1a.51.51,0,0,1,.22.11h0c-.07.06-.12.15-.2.18S56.64,53.68,56.57,53.65ZM57,58.19a.44.44,0,0,1,.25-.73c.08,0,.35.17.36.28C57.59,58.15,57.33,58.26,57,58.19Zm.65-1.88-.52-.25a2.12,2.12,0,0,1-.11-.21s.07-.06.11-.09a1,1,0,0,1,.06-.25c.07-.09.17-.23.27-.24a.44.44,0,0,1,.27.21A.74.74,0,0,1,57.61,56.31Zm0-16.13L57.3,40a1.6,1.6,0,0,1,.25-.27s.13.09.23.16ZM57.67,52s.08,0,.1,0,0,.07,0,.1l-.11,0Zm-.09-6.75-.1.08a1.76,1.76,0,0,1-.09-.2s.06,0,.1-.07Zm.22-.6-.07-.09a.24.24,0,0,1,.1,0s.05,0,.08.08ZM57.54,34A8.87,8.87,0,0,1,57.18,33c0-.25.31-.5.57-.48a.48.48,0,0,1,.37.62,1.4,1.4,0,0,1-.16.38C57.89,33.6,57.8,33.7,57.54,34ZM58,38.76c.07,0,.17-.08.22-.06s.09.13.14.2-.17.09-.22.07S58,38.83,58,38.76Zm.23,9.43a.48.48,0,0,1,.17-.32c.06,0,.2.07.37.13-.11.15-.17.3-.26.33S58.23,48.24,58.23,48.19Zm.21,4.06.11.07-.12,0Zm.23,5.51a.28.28,0,0,1-.19-.16c-.06-.42.07-.7.63-.7,0,.14.07.18.06.22C59.12,57.42,59.13,57.78,58.67,57.76Zm1.82-23.49L60,34.14a2,2,0,0,1,.16-.43c0-.06.14-.08.23-.11a.66.66,0,0,1,.11.2A3.59,3.59,0,0,1,60.49,34.27Zm5.23,25.44a.42.42,0,0,1,0-.12.15.15,0,0,1,.1,0l0,.1Zm.55-2.38s0-.1,0-.11l.19-.12,0,.12Zm4.24.66,0-.2c0,.05.07.09.06.12S70.54,58,70.51,58Zm.67-1.19a6.68,6.68,0,0,1,1.12,0l-.08.87L71,57.46C70.77,57.11,70.81,56.86,71.18,56.8Zm.74,3.08a.24.24,0,0,1-.19-.14c-.09-.29,0-.39.32-.35C72.17,59.6,72.23,59.8,71.92,59.88Zm.65-.56a1.22,1.22,0,0,1-.51.06,1.12,1.12,0,0,1,.09-.5.75.75,0,0,1,.44-.15s.18.12.16.17S72.68,59.25,72.57,59.32Zm3.23-1.73c-.07,0-.18-.05-.2-.11s.05-.14.08-.22l.21.1Z"/>
    <path class="b" d="M237.73,61a6.42,6.42,0,0,0-.08-2.89,5,5,0,0,1-.11-1c-.1-1.21-.61-1.7-1.85-1.78-.55,0-1.1-.07-1.66-.08-1.2,0-2.4-.11-3.6-.05a1.81,1.81,0,0,0-1.92,1.79,8,8,0,0,0-.11,1.38c0,1.9.06,3.79-.13,5.69a13.11,13.11,0,0,0,.1,2.07c0,.46.1.92.13,1.38a1.51,1.51,0,0,1-.5,1.25,9.86,9.86,0,0,1-1.27,1.07,2.43,2.43,0,0,1-1,.35c-.59.09-1.19.09-1.78.15a2.07,2.07,0,0,1-1.72-.34c-.68-.61-1.52-1.11-1.79-2.06a2.88,2.88,0,0,1,0-.83c0-.64.13-1.29.14-1.93,0-1.57,0-3.14,0-4.71a36.5,36.5,0,0,0-.19-5.82,3.45,3.45,0,0,1,0-1c.12-1.46-.07-2.93.15-4.38a1.2,1.2,0,0,0,0-.42,16.36,16.36,0,0,1-.11-4.42,19.19,19.19,0,0,0,.05-4.15,14.24,14.24,0,0,1,.07-2.35,28.08,28.08,0,0,0-.06-3.18,15.51,15.51,0,0,1,0-4.14,10.36,10.36,0,0,0,0-3.6,7.72,7.72,0,0,1,0-3,3.62,3.62,0,0,0,0-1.09c0-.32-.13-.64-.13-.95,0-1.9,0-3.8.08-5.69a11.11,11.11,0,0,0-.07-2.76,2.1,2.1,0,0,1,.75-2,4.77,4.77,0,0,1,3.29-1.49,3.53,3.53,0,0,1,3.24,1.34,2.83,2.83,0,0,1,.77,2.13c-.05.65-.11,1.29-.11,1.94,0,1.11.1,2.21.09,3.32s-.09,2.5-.12,3.74a2.48,2.48,0,0,0,3.1,2.76,4.53,4.53,0,0,1,1.64,0,8.39,8.39,0,0,0,3.16-.2,1.51,1.51,0,0,0,1.07-.81,3.88,3.88,0,0,0,.56-2c0-1.67,0-3.33,0-5,0-.41,0-.83,0-1.24l-.18-3.47h.06c0-.6.08-1.2.15-1.8a3.81,3.81,0,0,0-1.12-3.29,4.34,4.34,0,0,1-.63-.73,13.35,13.35,0,0,0-3.92-3.68,3.71,3.71,0,0,0-2.37-.63c-1.53,0-3.06,0-4.58,0-2,0-4.07-.17-6.1-.18a3.53,3.53,0,0,0-2.67,1A15.32,15.32,0,0,1,215,4.41a14,14,0,0,0-1.35,1.19c-.69.75-1.3,1.56-2,2.32a2.07,2.07,0,0,0-.58,1.5,8.18,8.18,0,0,0,0,1.11,8.82,8.82,0,0,1,0,2.9,11.68,11.68,0,0,0-.08,2.21c0,1.2.16,2.4.23,3.6a8,8,0,0,1-.05,1c0,.73-.13,1.47-.14,2.2,0,1.89.45,3.77,0,5.66a2.88,2.88,0,0,0,0,.83c.06,1,.14,2,.19,3,0,.23,0,.46,0,.69-.07,1.19-.18,2.39-.21,3.58q0,3,0,6a18.2,18.2,0,0,0,.19,2.76,7.94,7.94,0,0,1,0,2.48,13.74,13.74,0,0,0-.12,3.45,23.51,23.51,0,0,1,0,3.46,11.67,11.67,0,0,0,.07,3.59,2.28,2.28,0,0,1,0,.69c-.06,1.62-.15,3.24-.17,4.85a15.29,15.29,0,0,0,.15,2.35,11.94,11.94,0,0,1,0,4,3,3,0,0,0,0,1.24,5.21,5.21,0,0,0,1.32,2.56l3.92,3.91a2.27,2.27,0,0,0,1.61.7c1.39,0,2.78.07,4.16.07s2.77-.07,4.16-.08,2.86,0,4.3,0a2.75,2.75,0,0,0,1.89-.75,9.6,9.6,0,0,0,2.31-2.36,3,3,0,0,1,1.09-1A3.81,3.81,0,0,0,237.59,71c.22-1.93.09-3.87.19-5.81a1.94,1.94,0,0,0-.05-.68A7.41,7.41,0,0,1,237.73,61ZM235.37,8.57v.09l-.08-.06ZM234.61,16l.11,0s0,.09,0,.11-.07,0-.11,0ZM234,13v.1l-.09,0Zm-.34-5.7.11.05s0,.1-.06.11-.08,0-.11,0Zm-.29,11.28c0,.06,0,.13,0,.2h-.12v-.2S233.33,18.58,233.33,18.59Zm-.22-11.06.07,0-.08,0ZM232,17.78s0-.11,0-.12l.19-.1,0,.13Zm-.39-2.89V15l.63-.31c-.11.63-.18,1.08-.3,1.84l-.44-.7-.09.72-.57-1.23Zm-.49,1.78s0,0-.08,0-.05,0-.08-.06.06-.06.08-.06A.18.18,0,0,1,231.16,16.67Zm0,3.07a.71.71,0,0,1,.36.31s-.13.19-.24.34l-.43-.36C230.94,19.93,231.06,19.73,231.14,19.74Zm-.59,0a2.08,2.08,0,0,1,.4.41s-.14.25-.21.24a.47.47,0,0,1-.31-.21C230.4,20.15,230.48,20,230.55,19.78Zm-12.36-9.3.05.13-.1,0Zm-.71-2.4,0,.09h-.09ZM216.3,6.5c.09,0,.17.16.21.26s-.11.22-.13.21a5,5,0,0,1-.53-.29C216.08,6.58,216.2,6.48,216.3,6.5Zm-.11,11.43-.05.1L216,17.9a.24.24,0,0,1,.1,0S216.17,17.9,216.19,17.93Zm-.75,18.65a1.15,1.15,0,0,1,.19,0l0,.12-.19,0S215.43,36.58,215.44,36.58Zm.16,5.78s0,.08,0,.1-.06,0-.1,0l0-.16Zm-.4-26.75.18.2a2,2,0,0,1-.3.2s-.14-.15-.13-.16A1.9,1.9,0,0,1,215.2,15.61Zm.05,26.68,0,.11h-.1Zm-.05-5.69.05-.09,0,.1Zm-.27-28.9s0,.07,0,.1l-.07.08-.09-.15S214.9,7.69,214.93,7.7Zm0,8s0,.06,0,.07h0Zm-.34,15.23a.41.41,0,0,1,.16.1l.13-.16.29.28-.31.32-.16-.18a.24.24,0,0,1-.16,0c-.08,0-.13-.18-.15-.29S214.53,30.88,214.58,30.9Zm-.12,35.31h-.2s0-.07,0-.1h.19S214.46,66.16,214.46,66.21Zm-.22-27.39,0,.1-.1,0Zm0,2.37c0,.07-.05.19-.1.21s-.16,0-.24-.08.06-.18.12-.21S214.18,41.16,214.25,41.19Zm-.23,8-.17.16-.17-.27c.07,0,.16-.11.21-.1S214,49.06,214,49.14Zm0-30.76,0,.08-.06-.05Zm-.16,21.55,0,.09-.06-.08Zm-.14,1.1.22.09c0,.07-.06.19-.11.2s-.15,0-.22-.08ZM213.49,49l.18.11-.13.17c0-.06-.08-.11-.11-.18S213.47,49,213.49,49Zm.1,3.33c-.08-.1-.22-.19-.23-.3s.1-.21.18-.36l.21.17.05,0a1.62,1.62,0,0,1,.49.19c-.13.17-.22.35-.26.34a.79.79,0,0,1-.31-.17Zm.5,5.92-.18.08s0-.06,0-.09l.18-.08S214.08,58.19,214.09,58.22Zm-.24,13.44h0a.75.75,0,0,1,1.23-.1l.2.25ZM215.23,68l0-.1.09,0Zm-.08-2.75s-.28-.16-.26-.2a1.63,1.63,0,0,1,.28-.52s.25.12.5.25A3.82,3.82,0,0,1,215.15,65.23Zm.42-2.24,0-.09.14.05Zm.15-46.61-.06-.13.09,0Zm.08,1.54,0-.09h.08Zm-.09-9.72c.07,0,.15-.11.21-.1s.09.12.13.18l-.15.17Zm.64,55,0-.08h.07Zm-.09-18.84a.13.13,0,0,1,0-.06l-.16.13-.16-.28c.07,0,.17-.1.21-.08s.09.11.12.18.05-.08.07-.13.18.06.21.12-.05.15-.08.22S216.28,44.4,216.26,44.35Zm.24-4.13v-.08l.07,0Zm.27,22.1-.21,0s0-.12,0-.12a.75.75,0,0,1,.21,0Zm-.12-34.72s0-.07,0-.07l.08,0,0,.08Zm-.07-13.35a1.89,1.89,0,0,1-.11-.25l-.12.1a1.35,1.35,0,0,1-.14-.3c0-.05.12-.18.14-.17l.1.06a3,3,0,0,1,.23-.39c.16.18.33.29.33.38a1.91,1.91,0,0,1-.19.57S216.59,14.28,216.58,14.25Zm.47,13.51s-.09,0-.11,0,0-.07,0-.1l.12,0Zm0-9.34-.18-.1,0-.1.18.1Zm.12-3.64s.09-.07.09-.07a.93.93,0,0,1,.13.15l-.19.12A1.38,1.38,0,0,1,217.16,14.78Zm.3,7.87,0,.1-.08-.06Zm-.13,4.86c.07,0,.15-.11.2-.1s.1.12.14.18l-.16.17Zm.21,4.74,0-.08.06.08Zm.2-4.77c.08,0,.19.05.21.1s-.06.14-.09.22l-.22-.1Zm0,3.85a.15.15,0,0,1,.11,0,1.77,1.77,0,0,1,.06.17l.24-.16c0,.07.12.15.1.2a.26.26,0,0,1-.17.17c-.06,0-.13-.08-.24-.16l0,0-.18,0A.9.9,0,0,1,217.78,31.33ZM218,19.9l.15-.13a.69.69,0,0,1,0,.2s-.08,0-.1,0S218,19.91,218,19.9Zm.2.05c.09-.07.18-.2.28-.2s.17.14.26.21l-.3.29Zm.22,15.49,0,.11-.1,0Zm-.15-5.85v.09l-.09-.05ZM218,49a.77.77,0,0,1-.16-.15s0-.11.06-.1a2,2,0,0,1,.23.06Zm0-16.58s-.09,0-.09-.06a.71.71,0,0,1,0-.2l.19.11A1,1,0,0,1,218,32.41Zm.49,42.6-.19,0s0-.11,0-.11l.19,0Zm-.14-26a.36.36,0,0,1-.21-.12,1.88,1.88,0,0,1,.18-.33l.32.26A1.2,1.2,0,0,1,218.33,49Zm.32-13.4-.13-.24-.05,0-.08,0h.1l0,.06.22.17ZM218.83,15a4.18,4.18,0,0,1-.44.93.76.76,0,0,1-.39-.07l0,0c-.16-.09-.34-.13-.38-.22a1.42,1.42,0,0,1-.11-.64,4.12,4.12,0,0,0-.14-1.91h0a1.29,1.29,0,0,0-.33-.18.71.71,0,0,1-.27-.18c-.05,0-.09,0-.12,0a.43.43,0,0,1-.18-.4.42.42,0,0,1,.36-.19A.88.88,0,0,1,217,12l.5-.23h0a.85.85,0,0,1,.55-.29l.08,0,.1,0c.86.7.93,1.54.25,3h0C218.6,14.66,218.86,14.86,218.83,15Zm2.54,59.35a2,2,0,0,1-.23-.06s0-.1.05-.1a2,2,0,0,1,.23.06S221.38,74.33,221.37,74.33Zm1.3.78s-.1,0-.15-.08a.21.21,0,0,1,.11,0h.21A.66.66,0,0,1,222.67,75.11ZM229,73.65c0,.08-.22.23-.29.21s-.37-.18-.37-.28c0-.53,0-1.07.06-1.88.33.16.64.24.65.34A14.51,14.51,0,0,1,229,73.65Zm.64-.74-.1-.07.12,0Zm1.35.59-.07-.1.18-.1s0,.06.06.1Zm.2-4.74c.79.33.79.33.41.91Zm.74,3.33s0,0-.08-.07.06-.06.09-.06,0,.05.08.07S232,72.09,232,72.09Zm.94,1.5s0,0-.07-.08l.17-.08v.12S232.92,73.6,232.89,73.59Zm.68-3.43s0-.09,0-.11.07,0,.1,0l0,.11Zm1.33-9.61s.07,0,.11,0l.05.1-.18,0S234.88,60.57,234.9,60.55Zm-.26-1.48c.06,0,.08.12.11.19a.69.69,0,0,1-.18.1.87.87,0,0,1-.15-.24C234.49,59.1,234.58,59,234.64,59.07Zm.13,7.49-.15.13a2.12,2.12,0,0,1-.11-.21s.08-.07.1-.06A.7.7,0,0,1,234.77,66.56Zm-.25,4.93c-.1,0-.2-.12-.3-.19.07-.1.12-.26.2-.27s.22.1.57.29C234.75,71.41,234.63,71.5,234.52,71.49Zm.41-6.88.6-.14C235.57,65,235.16,64.7,234.93,64.61Z"/>
    <path class="b" d="M202.52,59.66c0-5,0-10,0-15,0-1.16,0-2.32-.11-3.47a1.69,1.69,0,0,0-1.74-1.8,48.88,48.88,0,0,0-5.54-.16c-1.28,0-1.86.81-1.9,2.1a2.61,2.61,0,0,0,0,.28q0,4.92-.07,9.85c0,2.36,0,4.72,0,7.07v.84c0,3.51.05,7,.06,10.54,0,2-.07,4.07,0,6.1.05,1.56.72,2.18,2.25,2.21s3.33,0,5,0a1.79,1.79,0,0,0,1.68-1,3.54,3.54,0,0,0,.35-1.32c.05-1,0-2,0-3Q202.53,66.26,202.52,59.66Zm-2.81-10.23c0,.07.1.19.1.2l-.39.22-.1-.16ZM199.16,53s.06,0,.09,0l-.05.1-.09,0S199.14,53,199.16,53Zm-.22-4.25,0,.12s-.08,0-.09,0,0-.07-.05-.1Zm-.31,3.53h0l.08-.21.12.12-.2.09,0,0-.09.09Zm-.72,2.21h0l.17-.1c0,.07.11.17.09.22a.24.24,0,0,1-.14.09s-.06.09-.07.08a1.92,1.92,0,0,1-.26-.17C197.78,54.57,197.84,54.48,197.91,54.48Zm.18,9.85-.22.24a1.24,1.24,0,0,1,0,.16.25.25,0,0,1,.09,0s0,0,0,.08l-.06,0s-.12,0-.18,0l0-.48Zm-.1-.1h.08l0,.07Zm-.86-22.9c.09-.11.29-.12.45-.18,0,.16.16.35.11.46s-.3.26-.45.38l-.22-.18C197.05,41.65,197,41.44,197.13,41.33Zm.2,20.23-.1,0s0-.07,0-.09.06,0,.09,0Zm-.36-19-.05.09,0-.1Zm-.08.95s.09.14.13.22l-.46.18s-.08-.14-.17-.31A2.53,2.53,0,0,1,196.89,43.51Zm-1,13-.09,0,.08-.05Zm-.29-11.76s.13-.07.2-.1.09.16.06.21-.13.07-.21.1S195.57,44.78,195.6,44.73Zm.24,31s-.08,0-.11,0,0-.06-.07-.09l.18-.06Zm.3-1.6c-.13,0-.26-.18-.39-.27.09-.13.17-.33.29-.36h0s.06,0,.09,0a.69.69,0,0,1,.29.2.61.61,0,0,0,.14.07l0,0,0,0-.16.1C196.32,74,196.23,74.13,196.14,74.13Zm.5-18.32c-.15-.3-.53-.57-.2-1a.28.28,0,0,1,.25,0c.43.29.58.64.25,1.11C196.8,55.87,196.67,55.86,196.64,55.81ZM197.21,70c-.12,0-.28-.34-.25-.38a1.17,1.17,0,0,1,.34-.29l0,0h0l.07,0h.06l.07,0h0l0,0c.12.06.25.17.44.29l-.15.11.08.12A2,2,0,0,1,197.21,70Zm.41,5.3,0-.24c.21,0,.43-.09.65-.12a2,2,0,0,1,.06.24Zm.89-11.93-.37.21a1.15,1.15,0,0,1-.15-.32s.1-.12.16-.14.1-.07.11-.06a1.28,1.28,0,0,1,.31.26l-.07,0Zm.68-8.84h0v-.06a.46.46,0,0,1-.07-.16s0,0,.07-.06v0h0l.25-.5,0,0,.07-.12.22.34-.06,0c0,.3-.29.24-.52.21h0v.22s0,0,0,0v0l.85.12,0,.05,0,0s.07,0,.11,0,0,.09-.07.1-.06,0-.09,0a1.14,1.14,0,0,1-1.42.87C198.8,55.23,199,54.88,199.19,54.53Zm.44,4.36s.06,0,.09,0,.05,0,.07.08l0,0h0v.51s.07,0,.07.06,0,.13-.07.2v0l-.33-.05.11-.78h.12Zm-.7,14.28-.12-.06.05-.12.08,0v0l.06.07h0S198.94,73.13,198.93,73.17Zm.21-10.62a1.22,1.22,0,0,1,.19.12l-.17.14a1.18,1.18,0,0,1-.11-.19A.22.22,0,0,1,199.14,62.55Zm0,7.11v-.08l.07,0Zm.79-1.92s-.07,0-.09,0,0-.06,0-.09l.09,0Zm-.07-3c0,.42-.15.44-.68.27h0v0l-.1-.06.11,0,.61-.73a1,1,0,0,1,0,.15l0,0c.06,0,.17.11.16.14A.62.62,0,0,1,199.89,64.76Zm.27-7.73-.19-.09s0-.1.05-.1l.2.08S200.17,57,200.16,57Z"/>
    <path class="b" d="M289.78,16.68c0-1.81,0-3.61,0-5.41a6,6,0,0,0-.5-2.83,5.54,5.54,0,0,0-1.12-1.73l-3.11-3a4.56,4.56,0,0,0-3.41-1.27,39.54,39.54,0,0,1-6-.18,9.77,9.77,0,0,0-1.53,0c-1.1.05-2.21.14-3.31.17a4.73,4.73,0,0,0-3,1.21c-.84.73-1.64,1.5-2.43,2.28A11.63,11.63,0,0,0,264.2,7.3a4.29,4.29,0,0,0-.95,2.56c0,3.52,0,7,0,10.55,0,1-.07,1.94-.1,2.91,0,.28-.05.55,0,.83,0,2.21.19,4.41,0,6.64a18.83,18.83,0,0,0,.1,5,6.52,6.52,0,0,1,0,2.49c-.35,1.75,0,3.49,0,5.24,0,.91.1,1.83,0,2.76a7.78,7.78,0,0,0-.09,2.2c.3,1.49-.05,2.95,0,4.42s0,3.22,0,4.83a13.14,13.14,0,0,0,.07,3.43s0,.09,0,.14c0,1.93-.1,3.87-.1,5.8,0,1.16.14,2.31.13,3.47a4.16,4.16,0,0,0,1.14,3c1.08,1.14,2.17,2.28,3.31,3.36a4.86,4.86,0,0,0,3.94,1.37c1-.08,2-.07,3-.07,1.85,0,3.7,0,5.55,0,.74,0,1.49-.14,2.22-.08a2.21,2.21,0,0,0,1.86-.71c1.28-1.27,2.58-2.52,3.85-3.8a3.51,3.51,0,0,0,1.39-3,3.1,3.1,0,0,1,.15-.81,1.91,1.91,0,0,0,0-.82,8.46,8.46,0,0,1-.13-2.61,13.56,13.56,0,0,1,.13-3.18,1.14,1.14,0,0,0,0-.41,15.06,15.06,0,0,1,0-4.69,4.07,4.07,0,0,0-.06-1.1c-.2-1.26-.64-1.66-1.94-1.7-1.7-.05-3.41-.06-5.12-.05a2.7,2.7,0,0,0-1.93,1,1.31,1.31,0,0,0-.35.87c0,1,0,1.93.05,2.9a7.15,7.15,0,0,1,.05,1.66,15.51,15.51,0,0,0-.12,4.56A3.4,3.4,0,0,1,279,69.39a2.56,2.56,0,0,1-2.29.92,3,3,0,0,0-.42,0c-2,0-2,0-3.27-1.49a2.64,2.64,0,0,1-.66-2.31,12.15,12.15,0,0,0,0-3.46c0-.36,0-.73,0-1.1,0-1.52,0-3,0-4.55,0-.23,0-.46,0-.69,0-1.48.1-3,.13-4.44.07-3.6-.24-7.2-.07-10.81,0-.41,0-.83-.06-1.24,0-.7-.07-1.39-.05-2.08.05-1.57.2-3.14.2-4.71,0-3.33-.08-6.66-.1-10,0-2.31,0-4.62,0-6.93,0-.83-.06-1.66-.09-2.49,0-1,0-1.94,1-2.57a2.51,2.51,0,0,0,.6-.75,1.32,1.32,0,0,1,1.18-.58c.79,0,1.57,0,2.36-.06a1.72,1.72,0,0,1,1.38.51c.35.37.71.73,1,1.13a2.09,2.09,0,0,1,.43,1.55,10.25,10.25,0,0,0,.05,3.58,2.33,2.33,0,0,1,0,.83c-.17,1.61,0,3.22-.14,4.85a2.31,2.31,0,0,0,2.56,2.85c1.66,0,3.32-.14,5-.22a1.76,1.76,0,0,0,1.85-1.66,8.23,8.23,0,0,0,0-1.11V16.68ZM270.1,44,270,44l0-.08Zm-.25-37.67s.08,0,.09,0,0,.06,0,.09l-.09,0Zm0,33.9,0,.07h-.07Zm-.05,13.93.09.2-.09.08c0-.07-.07-.14-.09-.2S269.8,54.18,269.83,54.15Zm-.31-31.33,0,.07h-.07Zm.06,23.9a.14.14,0,0,1,.05.11s-.06.09-.07.09a1.13,1.13,0,0,1-.18-.12Zm-.18,2c-.18.06-.31.15-.4.12s-.12-.19-.14-.29.16-.14.21-.12A1.82,1.82,0,0,1,269.4,48.75Zm-.95-3.5a1.57,1.57,0,0,1-.18-.45c0-.06.21-.22.27-.2s.26.19.49.38Zm.31,5a.74.74,0,0,1-.21,0,.2.2,0,0,1,0-.11.67.67,0,0,1,.18-.11Zm-.51-19.22c.08,0,.16-.08.23-.06s.09.11.14.18-.17.13-.18.12A1.43,1.43,0,0,1,268.25,31.08Zm.69-19,.08,0-.07,0-.07,0Zm-.09,17.1a1.88,1.88,0,0,1,.18.12l-.17.14c0-.06-.07-.12-.1-.19S268.83,29.14,268.85,29.15Zm-.29,10.75a.93.93,0,0,1-.1-.2s.07-.08.09-.08a1.07,1.07,0,0,1,.16.14Zm-.33-20.75s-.06.05-.09.05-.05,0-.07-.07Zm-.26,3,.14.15s.07-.07.08-.06l.16.13-.15.14a.75.75,0,0,1-.1-.2.54.54,0,0,1-.16.1s-.1-.06-.09-.07S267.93,22.2,268,22.13ZM267.88,27l.23.17h.07c.15.05.26.19.49.38l-.58.27-.12-.26-.05.06c-.08-.09-.22-.17-.24-.27S267.79,27.18,267.88,27Zm.19,5.71-.05.1,0-.1ZM267.86,34c.14,0,.38.16.4.27a3.42,3.42,0,0,1-.08.77l-.27.06a2.63,2.63,0,0,1-.41-.65A.34.34,0,0,1,267.86,34Zm-.13,3.65s-.05.05-.08.05,0,0-.07-.06Zm-.17,1.25.24.1c0,.07-.07.19-.13.21s-.15-.06-.23-.09Zm-.78,2.37v-.49a1,1,0,0,1,.83.47Zm.39,6.95s-.09,0-.1,0,0-.06,0-.09.08,0,.09,0S267.17,48.19,267.17,48.23Zm-.95-10.51c-.32-.35-.13-.6.24-.85l-.55-.79.62-.56.88,1.91-.56.14.25.07c-.47.22-.59.33-.68.3s-.12-.14-.17-.23Zm.06,4.4a4.29,4.29,0,0,1-.15.73.39.39,0,0,1-.34.08.36.36,0,0,1-.12-.33A4.65,4.65,0,0,1,266,42Zm.18.11s.08,0,.09.06,0,.07,0,.11h-.11Zm0-1.88a.25.25,0,0,1,.22-.1c.3.14.16.33.05.51C266.47,40.76,266.38,40.62,266.49,40.35Zm.88-20.09s-.05,0-.08,0a.45.45,0,0,1-.07-.07Zm.07,1.35c0,.07-.07.18-.13.2s-.15,0-.22-.08a1.51,1.51,0,0,1,.11-.22Zm-.5-.24.23.09c0,.07-.07.18-.13.2s-.14-.05-.21-.08Zm-.84-12s0,0,.08.06-.05.06-.08.06-.05,0-.08-.06S266.08,9.37,266.1,9.37ZM265.88,20a1.66,1.66,0,0,1,.49.15h0l.39.12c-.47.21-.59.32-.68.3a.28.28,0,0,1-.12-.14c-.05,0-.09.05-.12,0a.36.36,0,0,1-.19-.28C265.63,20.09,265.78,20,265.88,20Zm.31,4.93s0,.07,0,.1l-.11,0,0-.18S266.18,24.86,266.19,24.89Zm.54,7a2.69,2.69,0,0,1-.27,1.4L266,33a2,2,0,0,1,0-.24l-.87-.51A1.57,1.57,0,0,1,266.73,31.88ZM265.87,33l-.19.15s0-.09,0-.1Zm-.27,4.7a2.09,2.09,0,0,1,.61,0c0,.27-.14.52-.44.55-.14,0-.3-.13-.45-.2C265.41,38,265.48,37.76,265.6,37.73ZM265.55,39c.06,0,.13.1.19.15l-.13.2-.26-.2C265.42,39.14,265.48,39,265.55,39Zm1.66,10.32c.45.37.28,1,.23,1.67l-.81-.39-.3.08.17-.23-1.13-1C266.12,49.2,266.72,49,267.21,49.36Zm-1,6.62c-.15-.23-.32-.38-.29-.48a.47.47,0,0,1,.36-.26c.13,0,.26.15.4.24Zm.36,4.5a.23.23,0,0,1-.23-.06c-.38-.49.16-.65.31-1.14C267.14,59.93,267,60.23,266.59,60.48Zm-.38-10.07v-.09l.08.06Zm-.51,6.75s0-.07,0-.1a.11.11,0,0,1,0-.08v-.06h0c.07-.1.13-.26.22-.29s.26.06.4.09c-.09.08-.16.21-.26.23a.91.91,0,0,1-.36,0h0s0,0,0,0Zm.53,15.24-.1-.07.11,0Zm-.14-4.89c-.13,0-.37-.21-.37-.32s.16-.36.31-.66c.19.23.35.34.38.49A.35.35,0,0,1,266.09,67.51Zm.62-6.43s.06.12.09.19-.16.1-.2.08-.07-.13-.1-.2S266.65,61.06,266.71,61.08Zm0,2v.11l-.1,0Zm0,10V73s.07,0,.11,0,0,0,.07.08Zm.49-4.92a1.59,1.59,0,0,1-.42-.29c.09-.08.18-.25.26-.24a2,2,0,0,1,.53.23C267.31,68,267.19,68.2,267.13,68.18Zm.23-3.23-.16-.18.2-.16c.05.06.14.13.13.18S267.42,64.9,267.36,65Zm0-6.08v0l0,0h0a.62.62,0,0,1-.1-.22c-.06-.28-.11-.55-.16-.83l.8.24v0h0c.15.31.29.63.51,1.13Zm-.09-2.49h.11l-.05.1Zm1.32,16.5c-.05-.06-.13-.11-.14-.17s.09-.11.14-.16l.15.16ZM269,52.16c-.08.48-.33.59-.74.34h-.06l-1.06.53h0c.71.42.61,1.23,1.06,1.95h-1.4c-.07-.58-.14-1.1-.21-1.66l.55-.29h0c0-.15,0-.4,0-.41.33-.06.68-.09,1-.12l.05,0h0a1.58,1.58,0,0,1-.14-.36c-.06-.33,0-.67.42-.65a.49.49,0,0,1,.25.07,1.34,1.34,0,0,1,.18-.07s.07.12.16.27l-.17,0A.74.74,0,0,1,269,52.16Zm.14,17.26a1.63,1.63,0,0,1,.43-.54c.05,0,.38.18.37.22a5.28,5.28,0,0,1-.36.71C269.34,69.62,269.1,69.45,269.12,69.42Zm.83,3.5s-.08,0-.09,0,0-.05,0-.08l.09,0Zm-.06-23v-.1l.1,0Zm.17,12.28v-.11l.1,0Zm.19-56.77s0-.08,0-.1.07,0,.11,0l0,.1Zm.33,56.14s0-.06,0-.09l.09,0,0,.15A.38.38,0,0,1,270.58,61.57Zm-.07-55.95-.06-.09.18-.13.06.11A1.08,1.08,0,0,1,270.51,5.62Zm.79,66.51a1.62,1.62,0,0,1-.24-.42s.16-.15.34-.31a1.88,1.88,0,0,1,.17.51C271.56,72,271.39,72.05,271.3,72.13Zm14.27-5.48s0,.06.07.09l-.18.13-.12-.17A1,1,0,0,1,285.57,66.65Zm-.23,2.65a1.13,1.13,0,0,1,.09.35s-.14.06-.27.11a1.2,1.2,0,0,1,0-.37S285.26,69.33,285.34,69.3Zm-2.9.43a1,1,0,0,1,.19.14l-.17.14a1.21,1.21,0,0,1-.09-.2S282.43,69.73,282.44,69.73Zm-.35,3s0,.08,0,.1-.06,0-.09.05l-.09-.07Zm-6.83,1.2,0,.07h-.06ZM273.1,72l.06.06-.08,0ZM271.65,4.76v-.1l.09.06Zm3.78,1.5-.06-.12.09,0Zm.29.17a.2.2,0,0,1-.11,0l0-.15.1,0S275.73,6.41,275.72,6.43Zm.1-.84V5.5l.09,0Zm1.13.79a.44.44,0,0,1-.1-.25l0,0c-.07,0-.17,0-.2-.11s0-.14.06-.21.18.06.21.12V6c.11,0,.23-.07.29,0s.11.22.19.41C277.18,6.4,277,6.44,277,6.38Zm1.17-1.55s-.07,0-.1,0l.07-.15.08.06S278.14,4.82,278.12,4.83Zm1.67,1,.07.1-.25.09ZM279.38,5,279,4.85h0l0,0h0l.37-.08Zm.92,1.09c-.12.11-.27.19-.4.29h-.32l.13-.21.51-.31C280.25,5.9,280.33,6,280.3,6.05Zm1.55,1.49-.23-.28c.1,0,.23-.16.3-.13s.13.19.19.29Zm1.46,13.14-.06,0,.07,0Zm-.21-5.06c-.13-.16-.28-.28-.26-.33a1.69,1.69,0,0,1,.29-.37c.08.07.26.17.24.21A2.51,2.51,0,0,1,283.1,15.62Zm.85.07-.18-.06s.05-.07.08-.08.07,0,.1,0Zm.13-1.26c-.21.08-.5-.22-.46-.53s.23-.32.35-.48l.48.58C284.29,14.19,284.21,14.37,284.08,14.43Zm.12-7.36.14-.19.18.25Zm.47.29a.91.91,0,0,1-.09-.17l.18.08a.31.31,0,0,1,.07.09C284.77,7.36,284.69,7.39,284.67,7.36Zm.88,2.47c.05.08.15.17.13.21a1.43,1.43,0,0,1-.23.27,1.85,1.85,0,0,1-.18-.24A2.2,2.2,0,0,1,285.55,9.83Zm-.47,4c.53.19.53.19.74.92C285.1,14.78,285.27,14.14,285.08,13.82Zm1.63-2c-.06,0-.07-.14-.11-.21s.18-.09.23-.07.08.14.12.22S286.77,11.84,286.71,11.82Z"/>
    <path class="b" d="M184.4,76.57c-.18-1.14-.28-2.3-.55-3.41-.5-2-.83-4.08-1.14-6.14-.21-1.41-.48-2.82-.75-4.22a18.7,18.7,0,0,1-.47-2.17,25.79,25.79,0,0,0-.6-3.69c-.11-.54-.15-1.09-.23-1.64,0-.32-.1-.64-.17-.95-.31-1.49-.7-3-.91-4.47a20.22,20.22,0,0,0-.75-4.08.9.9,0,0,1,.34-1.11,31.77,31.77,0,0,0,3.3-3.16,7.16,7.16,0,0,0,1.05-1.28,3.52,3.52,0,0,0,.59-2.91,9.13,9.13,0,0,1-.07-3.17A14.79,14.79,0,0,0,184,30a6.47,6.47,0,0,1,0-1.24,17.62,17.62,0,0,0,.07-2.9,21.83,21.83,0,0,1-.06-4.71,46.2,46.2,0,0,0,0-7.89,10.83,10.83,0,0,1,.09-2.48,3.51,3.51,0,0,0-1-3.29c-.79-.78-1.48-1.64-2.23-2.46a3.59,3.59,0,0,0-.4-.38c-.57-.48-1.15-.93-1.7-1.42a3,3,0,0,0-1.87-.82,16.52,16.52,0,0,0-2.9,0,39.26,39.26,0,0,1-4.85.09c-2.72-.09-5.45.08-8.16-.2a5.81,5.81,0,0,0-1.25,0c-.6.05-1.19.14-1.79.21a1.74,1.74,0,0,0-1.76,1.91c0,2.35,0,4.71-.12,7.06a22.07,22.07,0,0,1-.06,3,3.44,3.44,0,0,0,0,1,21.26,21.26,0,0,1,0,5.8,2.63,2.63,0,0,0,0,1,14.37,14.37,0,0,1,.08,4.14,14.17,14.17,0,0,0,0,2.91,16.08,16.08,0,0,1,0,3.86,16.07,16.07,0,0,0-.05,3.6,29.82,29.82,0,0,1,0,5.26,3.32,3.32,0,0,0,0,.83,12.2,12.2,0,0,1,0,4c-.08,1-.07,2-.06,3a43.47,43.47,0,0,1,.08,4.84,48.32,48.32,0,0,0,.08,5.11c0,1.25-.07,2.49-.1,3.74a15,15,0,0,0,0,2.76,11.09,11.09,0,0,1,0,2.76,12.79,12.79,0,0,0-.08,2.76,9.91,9.91,0,0,1,0,3.17c0,.13,0,.28,0,.41a2.38,2.38,0,0,0,2.65,2.79h2.08V78.2c.92,0,1.85.06,2.77,0a2.1,2.1,0,0,0,2-2.48,13,13,0,0,1-.11-2.07c0-1.2.22-2.39.22-3.59,0-2.54-.1-5.08-.05-7.62.06-2.78,0-5.56,0-8.33q0-3.26-.11-6.51c0-.41-.11-.82-.13-1.23s.28-.77.69-.66a11,11,0,0,0,3,.05,1,1,0,0,1,1.09,1c.07.64.08,1.3.2,1.93.34,1.72.72,3.43,1.07,5.15a7.62,7.62,0,0,1,.11,1c.07.54.09,1.1.2,1.64.25,1.22.57,2.42.79,3.65.5,2.67.94,5.35,1.42,8,.21,1.18.49,2.35.69,3.53s.39,2.66.59,4a2.71,2.71,0,0,0,3,2.64c1.25,0,2.49,0,3.74,0a3.11,3.11,0,0,0,2.05-.74A1,1,0,0,0,184.4,76.57Zm-8-68.15,0,.11h-.1ZM173.19,6c.29,0,.34.26.33.5,0,.07-.09.13-.14.2s-.12,0-.13,0a6.11,6.11,0,0,1-.27-.58S173.12,6,173.19,6Zm-4.34.45c.14.11.28.17.3.26S169,6.93,169,7c-.09-.06-.24-.11-.27-.19S168.79,6.64,168.85,6.49Zm-1.8,1,.19.26c-.08,0-.17.08-.23.06s-.09-.12-.14-.19ZM163.87,5.6a.61.61,0,0,1-.41.72c-.06-.16-.17-.32-.15-.47C163.34,5.49,163.55,5.4,163.87,5.6Zm-1.09,18.64c-.18,0-.37-.06-.55,0-.36,0-.72.1-1.28.17.15-.29.18-.46.28-.51a11.4,11.4,0,0,1,1.38-.62,1,1,0,0,1,.64.05c.09,0,.15.33.12.48A.58.58,0,0,1,162.78,24.24Zm.58,19.4a1.31,1.31,0,0,1,.23.24l-.22.19a1.05,1.05,0,0,1-.17-.29S163.35,43.63,163.36,43.64ZM162,26.17a.75.75,0,0,1-.17.1s-.09-.06-.09-.06a1.42,1.42,0,0,1,.11-.18ZM162.24,48a.23.23,0,0,1-.1.21c-.33.15-.46,0-.56-.31C161.86,47.7,162.11,47.57,162.24,48Zm-.56-.85.12-.12s.07.06.06.09-.05.05-.08.08Zm-1.11,6.72c-.19,0-.34-.33-.51-.51.15-.13.3-.38.44-.37a2.79,2.79,0,0,1,.79.39C161,53.58,160.74,53.86,160.57,53.83Zm.36,1s-.07.2-.09.2l-.34-.12.11-.26A3.3,3.3,0,0,1,160.93,54.79Zm.85-39.45c.09-.34.23-.38.92-.28,0,.19,0,.3-.08.36-.21.22-.4.57-.78.29A.46.46,0,0,1,161.78,15.34Zm-.05-1.11.19-.14.09.28Zm.35,3.55c.13,0,.21.24.38.46-.23.3-.42.58-.65.83-.06.06-.28,0-.38,0s-.21-.23-.19-.32a3.09,3.09,0,0,1,.37-.85C161.67,17.77,161.94,17.73,162.08,17.78Zm-.67,1.75a7,7,0,0,1,1,.1V20c-.24,0-.48,0-.72,0s-.5.1-.87.18C160.91,19.8,161.07,19.55,161.41,19.53Zm.08,2.75a2.21,2.21,0,0,1-.59.17,2.54,2.54,0,0,1-.45-.13c.08-.13.15-.33.27-.36S161,22.06,161.49,22.28ZM161,43.11a.73.73,0,0,1-.16.14c0-.07-.05-.13-.08-.19L161,43S161,43.1,161,43.11Zm.23,8.94a1,1,0,0,1,.16-.12s.09,0,.09.06,0,.12-.08.19Zm.11-3.46c0-.07-.08-.17-.06-.22s.14-.06.21-.09l.14.18Zm.28,2,0,.08h-.07Zm1-36.5c0-.39-.06-.71-.08-1l.21-.08.69,1Zm-.59-9.28a2,2,0,0,1,.25.25s-.08.13-.12.2a2.15,2.15,0,0,1-.28-.23S162,4.91,162.06,4.81Zm.66,5,.08.3-1,.17,0-.23Zm-1-2s.06,0,.08.06-.05,0-.08,0-.05,0-.08-.06S161.67,7.81,161.69,7.81Zm.14,9.61a3.53,3.53,0,0,1-1.82-.64,1.23,1.23,0,0,1,1.54-.09C161.69,16.76,161.71,17.11,161.83,17.42ZM160,15s-.07-.09-.06-.1a1.67,1.67,0,0,1,.16-.12,1.41,1.41,0,0,1,0,.2A.17.17,0,0,1,160,15Zm1.48.36-.05.09-.11-.11s.06-.06.09-.06S161.41,15.28,161.44,15.31Zm-.17-1.76.08.17-.13-.06ZM161,4.62l.15.13-.06.1-.15-.14Zm-.26,6.82a.25.25,0,0,1,.24,0,.65.65,0,0,1,.2.17.88.88,0,0,1-.22.1c-.08,0-.2,0-.24,0A.2.2,0,0,1,160.74,11.44Zm-.25-1.39,0,.1-.09-.07Zm-1.18-5.16a.69.69,0,0,1,.4-.24c.11,0,.24.07.57.2l-.88.38C159.36,5.11,159.26,4.94,159.31,4.89Zm.22,31.63a1.23,1.23,0,0,1-.06.36c-.12-.05-.27-.1-.26-.12a2.13,2.13,0,0,1,.11-.33C159.4,36.46,159.53,36.49,159.53,36.52Zm-.3-12a.81.81,0,0,1-.18.1s-.08-.07-.07-.09a1,1,0,0,1,.12-.16ZM158.79,7.1c.13.15.25.24.25.32s-.13.17-.2.26-.16-.11-.16-.18A1.28,1.28,0,0,1,158.79,7.1Zm0,37.76-.32-.33a1.59,1.59,0,0,1,.27-.18s.16.11.16.16A1.75,1.75,0,0,1,158.81,44.86Zm0,4.67h-.11l0-.1Zm-.37-28.24.07-.05v.09Zm.41-3.57,0-.1.09,0ZM158.6,15a2.77,2.77,0,0,1,.31.33,2,2,0,0,1-.48.39c-.06,0-.22-.22-.33-.34A3.66,3.66,0,0,1,158.6,15Zm-.16,21.72v.08l-.08-.05ZM158.62,53c.37.08.63.26.36.66-.1.14-.35.17-.54.25,0-.17,0-.33,0-.5a.86.86,0,0,1,0-.27l-.08-.4Zm.35,9.86s.07,0,.08,0,0,.06,0,.09l-.09,0Zm-.5-5.37v-.81l.52.23,0,0Zm.56-2.59,0-.1.16.06Zm-.23,21.43-.18-.12a1.77,1.77,0,0,1,.17-.12s.1,0,.1,0Zm-.33-4.74c.18-.3.35-.07.52,0s0,.4-.25.33S158.43,71.61,158.47,71.55Zm.37,1.15c-.06,0-.17-.11-.17-.16s.1-.13.15-.2l.23.23Zm.33-4.57a.36.36,0,0,1-.3.2c-.44-.09-.56-.41-.48-.93C158.94,67.42,159.3,67.56,159.17,68.13Zm0-16.85s-.07-.05-.1-.07l.14-.16.07.19A.3.3,0,0,1,159.13,51.28Zm.25,1.87,0-.06,0,.07Zm.08-3.56,0-.11.06.17Zm-.06-3.42s0-.07,0-.11h.19v.11Zm.2-3.62-.14-.18s.1-.07.11-.06.09.11.14.17Zm.05-4.21.06-.09,0,.11Zm-.2-3.68,0-.21.39.17.08.16-.16-.08Zm.65,9.39c.07,0,.13.1.19.15l-.12.21-.25-.21C160,44.15,160,44,160.1,44.05Zm-.17,3.67s.11,0,.12,0a1.21,1.21,0,0,1,.09.2l-.22,0A1.7,1.7,0,0,1,159.93,47.72Zm.41,8.89a2.44,2.44,0,0,1,.59.41c-.22.17-.4.37-.46.34a1.07,1.07,0,0,1-.43-.44S160.28,56.58,160.34,56.61Zm.47,1.88-.13.14s-.05-.07-.05-.11,0-.06.07-.09Zm-.35,5.24-.35-1.13a3.18,3.18,0,0,1,.56.4C160.94,63.34,160.92,63.35,160.46,63.73Zm.22-3.62c-.47-.16-.49-.55-.45-1,.15,0,.2-.07.23,0,.35.21.68.45.54.92A.36.36,0,0,1,160.68,60.11Zm.43.53,0,.11s-.09,0-.12,0,0-.07,0-.11Zm.27,7.56c-.43-.38-.25-.7-.06-1.08l.87.07Zm-.08-3.53,0,0,0,0a.79.79,0,0,1,0,.22s-.1.06-.16.08,0-.09,0-.12a1.3,1.3,0,0,1,.15-.18v0h0c-.46-.32-.29-.73-.06-1.06s.63-.2,1,0C162,64.05,161.89,64.57,161.3,64.67Zm1.08-19.13-.24-.09c0-.07.06-.2.11-.21s.16,0,.24.08Zm0-.83s.08,0,.1,0,0,.06,0,.1-.08,0-.1,0S162.35,44.74,162.34,44.71Zm.09-.19c-.39.31-.64.11-.83-.24,0-.08,0-.14.07-.16.29-.14.59-.38.83,0A.4.4,0,0,1,162.43,44.52Zm.09-2.67h-.23v-.64h.24C162.53,41.43,162.53,41.64,162.52,41.85Zm.07,28.53s0-.07,0-.1a.1.1,0,0,1,.09,0s0,.06,0,.1Zm0-31.08c-.11-.1-.29-.19-.32-.32a.34.34,0,0,1,.35-.43c.1,0,.2.11.37.21Zm.58,8.33s-.08-.08-.07-.1a2.12,2.12,0,0,1,.12-.2l.14.18Zm.35-2.11-.11-.05.11-.18.11.05A.67.67,0,0,1,163.57,45.52Zm.06-1.71a1.61,1.61,0,0,1-.31-.38s.15-.17.19-.15a3,3,0,0,1,.5.28C163.81,43.69,163.66,43.83,163.63,43.81Zm.78-37.33a1.63,1.63,0,0,1,.29-.23l.16.26a1.59,1.59,0,0,1-.32.16S164.39,6.49,164.41,6.48Zm1.21,1c0,.56-.48.58-.87.75C164.93,7.7,164.93,7.7,165.62,7.53Zm-.65,35c-.07,0-.19-.11-.19-.16a1.36,1.36,0,0,1,.15-.33c.11.09.24.17.23.19A1.37,1.37,0,0,1,165,42.57Zm3-2c-.06,0-.18-.09-.2-.15s.08-.2.13-.2a4.87,4.87,0,0,1,.66,0l0,.15A5,5,0,0,1,168,40.61Zm4.9,1.37c.07,0,.15-.08.21-.06s.07.12.1.19l-.22.09Zm.33,3.94s-.07,0-.11-.05l.06-.1.1,0S173.26,45.91,173.24,45.92Zm.69-8.74a2.67,2.67,0,0,1-3,1.08,4.62,4.62,0,0,0-1.1.07c-.37,0-.74,0-1.11,0v0h-2.08c-1.11,0-1.27-.19-1.16-1.27a8,8,0,0,0,0-2.07,11.33,11.33,0,0,1,0-2.47,30.33,30.33,0,0,0,0-5.39,23.25,23.25,0,0,1,0-2.77c0-1.29,0-2.59,0-3.88,0-.69.15-1.38.16-2.07,0-1.89,0-3.79,0-5.68,0-.64-.18-1.28-.23-1.92a.66.66,0,0,1,.78-.75,25.37,25.37,0,0,0,5.51,0,2.14,2.14,0,0,1,2,.76,8.18,8.18,0,0,1,.74.82,1.93,1.93,0,0,1,.41,1,36.89,36.89,0,0,1,0,4.82,15.78,15.78,0,0,0,0,2.75c0,.42,0,.83,0,1.24,0,.74-.14,1.48-.13,2.21,0,1.7.12,3.41.18,5.11a3.49,3.49,0,0,1,0,.56,31,31,0,0,0,.05,5.53A3.22,3.22,0,0,1,173.93,37.18Zm1.46,25.87a1.37,1.37,0,0,1-.27-.22c.07,0,.15-.12.2-.11a1.31,1.31,0,0,1,.3.2C175.52,63,175.43,63.07,175.39,63.05Zm.6-12.94c-.07,0-.29-.17-.33-.29s0-.5.25-.51.33.17.63.34A2.63,2.63,0,0,1,176,50.11Zm1.15,1.1.05-.08,0,.09Zm.06-27.15a.77.77,0,0,1-.1-.18s.06-.09.06-.09l.2.13Zm.37-18.77.09.22-.22.1c0-.07-.09-.16-.07-.23S177.5,5.32,177.57,5.29Zm0,3.66s-.13-.18-.11-.2a1.66,1.66,0,0,1,.3-.22l.15.25A2.16,2.16,0,0,1,177.53,9ZM179,26.25l-.1-.06.11-.05Zm2.08,9.64-.27-.1a1.6,1.6,0,0,1,.13-.3s.2,0,.2.07A1,1,0,0,1,181.1,35.89Zm-.17-3.52a2.16,2.16,0,0,1-.27-.38c.07,0,.16-.14.21-.12a3.65,3.65,0,0,1,.48.28C181.12,32.27,181,32.39,180.93,32.37Zm-.34-6.4v-.09l.09.05Zm.49-8.71c-.06,0-.14-.07-.22-.12a2,2,0,0,1,.23-.27s.14.08.39.22A1.75,1.75,0,0,1,181.08,17.26Zm0-3,.07-.15.07.07s0,.07,0,.09S181.14,14.24,181.1,14.24Zm-.4-3a5.22,5.22,0,0,1,.56-.18s.1.16.07.21c-.11.26-.33.23-.55.15l-.11-.06S180.67,11.21,180.7,11.21Zm0,.12,0,.21-.13-.1Zm-.21,2.07c.06,0,.06.14.09.21s-.26.05-.31,0a.76.76,0,0,1-.11-.32A1.17,1.17,0,0,1,180.45,13.4Zm-.52-.46a1.91,1.91,0,0,1,.16.32.7.7,0,0,1-.33-.09c-.07-.05,0-.21,0-.32S179.88,12.89,179.93,12.94Zm-.44,8.94c0,.12,0,.18,0,.2l-.45.44-.24-.26a6.27,6.27,0,0,1,.48-.42S179.37,21.85,179.49,21.88Zm-.61-11.6.18.12-.08.09a1,1,0,0,1-.17-.12Zm-.22-1.12c-.06,0-.09-.12-.13-.19l.19-.14.18.26C178.82,9.12,178.73,9.18,178.66,9.16Zm.54,9.16-.11.16a1.07,1.07,0,0,1-.14-.16s.05-.08.06-.08ZM178.3,8.1c0-.07.14-.16.19-.15.24.08.48.19.71.29h0c-.24.37-.54.28-.83.09A.22.22,0,0,1,178.3,8.1Zm.45,18.57a.24.24,0,0,1,.21.1c.14.39,0,.58-.42.59C178.34,27,178.32,26.77,178.75,26.67Z"/>
    <path class="b" d="M149.57,5c-.19-2-.81-2.61-2.8-2.55a18.31,18.31,0,0,1-2.77,0,71.85,71.85,0,0,0-8.43-.08c-1.06,0-2.13.11-3.19.11-2.5,0-5,0-7.49,0a6.51,6.51,0,0,0-1.62.3,1.21,1.21,0,0,0-1,1.22c0,.6-.13,1.19-.16,1.79a23.23,23.23,0,0,0,0,2.36,1.68,1.68,0,0,0,1.06,1.66,6.69,6.69,0,0,0,2.84.42c1.47-.24,3,0,4.42-.25.59-.11.95.32.94.92,0,.88,0,1.76-.11,2.63a18.48,18.48,0,0,0,0,4.7,5.19,5.19,0,0,1,0,1.8,16,16,0,0,0-.07,3.31c0,1.9,0,3.79,0,5.69,0,3.46.23,6.93-.07,10.39a3.39,3.39,0,0,0,0,.55,15.64,15.64,0,0,1,.13,1.93c-.1,2.12.23,4.26-.21,6.37a1.31,1.31,0,0,0,0,.28c.05,1.75.13,3.5.14,5.26,0,3,0,5.92,0,8.88h0c0,1.67,0,3.33,0,5,0,2.59,0,5.18,0,7.77a3.45,3.45,0,0,0,.28,1.62,1.57,1.57,0,0,0,1.71,1.09,37.37,37.37,0,0,1,4.85,0h.28a1.88,1.88,0,0,0,2-1.74c.15-1.19.29-2.38.33-3.58,0-1.38,0-2.77-.06-4.15a4.9,4.9,0,0,1,.2-2.46,1.58,1.58,0,0,0,0-.68c0-.59-.09-1.19-.12-1.78-.06-1-.11-1.94-.16-2.91,0-.27,0-.55,0-.82.05-1.67.11-3.33.15-5a6.68,6.68,0,0,1,.19-2.74c.09-.22,0-.54-.07-.81a10.43,10.43,0,0,1-.13-1.24c0-1,0-2,0-3l0-9.29c0-2.59,0-5.18,0-7.77,0-1.94,0-3.88,0-5.82,0-.64.08-1.28.09-1.93s-.06-1.29-.07-1.93c0-1.2,0-2.39,0-3.59,0-2,0-4,.06-6,0-.6.26-.83.87-.83.83,0,1.66,0,2.49.08a14.38,14.38,0,0,0,3.59-.1c1.34-.24,1.82-.76,1.92-2.09A19.26,19.26,0,0,0,149.57,5Zm-25.2.74.06-.09,0,.1ZM126.52,5c.41.13.64.37.49.82C126.48,5.63,126.46,5.61,126.52,5Zm-1.13,1.45c-.09,0-.19-.12-.29-.19.09-.09.16-.22.26-.24s.21.1.38.18C125.58,6.28,125.49,6.41,125.39,6.41Zm.74,1.48L126,7.76s.07-.07.1-.07.05.06.08.09Zm.23-1.18c-.08,0-.15-.17-.22-.25l.35-.2.18.3C126.56,6.62,126.45,6.72,126.36,6.71Zm.39,1.23c.76-.91.76-.91,1.69-.71A1.89,1.89,0,0,1,126.75,7.94Zm2.13-2.81-.07,0,.08,0Zm8.36,1.52c.14,0,.21,0,.23,0a5.92,5.92,0,0,1,.35.48s-.08.08-.08.08c-.17-.12-.34-.23-.49-.36S137.24,6.77,137.24,6.65ZM138,51.57l0-.08H138Zm.14,1.6-.3.12c0-.07-.08-.17,0-.2s.14-.06.21-.09ZM137,47.38c.22-.35.43-.68.94-.46C137.62,47.55,137.62,47.55,137,47.38Zm-3.23,19.51.16-.48a.66.66,0,0,1,.89-.43,8.27,8.27,0,0,1,1.1.45l-1,1.29c-.41-.06-.63-.19-.39-.63a3.57,3.57,0,0,0,.2-.52Zm3.05-33.37a4.63,4.63,0,0,1-.69.39s-.18-.21-.28-.32a4.24,4.24,0,0,1,.61-.36C136.55,33.21,136.68,33.37,136.86,33.52Zm-.35-11.92.07-.09s.11.1.15.15,0,.07-.06.11Zm.3,3.41h0a.49.49,0,0,1,.23-.11c.09,0,.18.08.27.13a1.09,1.09,0,0,1-.24.07A.89.89,0,0,1,136.81,25Zm.16,2.74,0,.1-.09,0a.42.42,0,0,1,0-.1S136.94,27.73,137,27.75Zm-.57,20.88a1.83,1.83,0,0,1-.18-.34,1.11,1.11,0,0,1,.37.05.7.7,0,0,1,.24.29s-.08.14-.13.21A1.61,1.61,0,0,1,136.4,48.63Zm.1,6-.22.11v0l-.27,0,.26-.07h0l.09-.22ZM135,45c.1-.06.21-.19.3-.18s.17.15.26.23l-.34.25Zm.12,2.23-.1.07a1.08,1.08,0,0,1-.11-.18s.06,0,.09-.08Zm.12-4.1s0-.06,0-.09l.1,0,0,.08S135.28,43.17,135.26,43.15Zm-.92-8.5-.05.15,0-.11Zm1.1,3.87c-.19.59-.29.94-.4,1.3-.5-.22-.66-.52-.43-.89C134.72,38.77,135,38.73,135.44,38.52Zm-.81-.64.1-.05s.07.05.07.07,0,.06,0,.09Zm.1-.3c-.07-.09-.2-.17-.19-.25s.14-.16.22-.24l.17.21Zm-.54-4.21c.12-.45.2-.69.61-.63.21.22,0,.29-.15.38S134.44,33.23,134.19,33.37Zm.57-4.12c0,.09-.18.15-.27.23a1.17,1.17,0,0,1-.13-.37,1.15,1.15,0,0,1,.11-.39l.21.16C134.71,29,134.79,29.14,134.76,29.25ZM134.54,32c-.59-.36-.36-.95-.5-1.4h0l-.46.5c-.05-.7-.05-.7.46-.5l0,0a.08.08,0,0,1,0,0C134.76,31,134.76,31,134.54,32Zm.15,23.26-.23.11-.09-.24c.08,0,.16-.09.24-.08S134.67,55.15,134.69,55.22Zm.94-18.83a.34.34,0,0,1,.27.18c0,.08-.08.2-.15.35-.14-.11-.29-.18-.31-.27S135.55,36.4,135.63,36.39Zm-.18-2.18s.12-.15.18-.14a1.45,1.45,0,0,1,.4.17c-.18.11-.28.23-.38.22S135.5,34.31,135.45,34.21ZM136.66,40a3.37,3.37,0,0,1-.63.11c.16-.35.19-.59.3-.63s.5-.08.59,0S136.87,39.86,136.66,40Zm-.83-9,.18-.12.07.1a1.18,1.18,0,0,1-.19.11Zm.29-4.37.11-.06v.11Zm0-13c-.12-.13-.25-.22-.27-.32s.09-.36.31-.29a.35.35,0,0,1,.22.28C136.43,13.34,136.29,13.43,136.17,13.57ZM136,24.77a2.39,2.39,0,0,1-.26.21s-.11-.09-.17-.13l.24-.26Zm-.64,6c-.12-.07-.16-.28-.24-.43.12-.05.26-.16.36-.13s.24.18.51.4C135.61,30.72,135.42,30.84,135.32,30.79ZM135.18,37l-.15.16c-.05,0-.14-.1-.13-.15s.09-.11.14-.17Zm-.45-1.38c0-.12-.1-.25-.07-.35s.15-.15.24-.23a3.47,3.47,0,0,1,.06.45S134.83,35.54,134.73,35.6ZM134,27.33c.18-.85.18-.85.95-.52Zm.21.88a1.81,1.81,0,0,1-.54.21c-.08,0-.17-.17-.25-.26a1.26,1.26,0,0,1,.41-.25C133.87,27.89,134,28.05,134.18,28.21Zm-.5,3.87c0,.49-.05.86-.07,1.33C133.1,32.71,133.1,32.71,133.68,32.08Zm.1,22.23-.13,0,0-.09Zm0-4.87h.31a.87.87,0,0,1,0-.37c0-.07.22-.06.33-.09s0,.19,0,.24a1.81,1.81,0,0,1-.32.22v0Zm.41,11.36-.1.1c-.07-.1-.13-.2-.19-.3s0-.06.08-.09Zm-.33-6,.09,0s0,.08,0,.1-.06,0-.1,0Zm1.37-1.4s.06,0,.09-.08l.05.1.08,0s0,.06,0,.09l-.1,0,0-.12-.07.06A.34.34,0,0,1,135.19,53.36Zm.34,6.16.11,0v.11Zm-.74-10.9c0-.62.4-.77.86-1.06l.53.72A1.85,1.85,0,0,1,134.79,48.62Zm1.63,20.15c.11,0,.21.14.31.22l-.42.4-.35-.46A1.49,1.49,0,0,1,136.42,68.77Zm.17-17.14.37-.34.27.38c-.07,0-.15.09-.22.08A2.44,2.44,0,0,1,136.59,51.63Zm.28,4.33c0-.08.11-.14.23-.27.13.16.24.24.23.31a2.71,2.71,0,0,1-.1.75,2.27,2.27,0,0,1-.49,0C136.78,56.45,136.81,56.2,136.87,56Zm.47,1.65-.11,0-.12-.17.1-.06Zm0,4.63c.11.1.3.18.31.29s-.11.28-.23.54c-.19-.22-.38-.34-.37-.45S137.21,62.37,137.31,62.24Zm.22-29.89c-.06,0-.07-.14-.11-.22s.18-.09.22-.06.08.14.12.22S137.58,32.38,137.53,32.35Zm-.28-6c-.09,0-.12-.19-.18-.29a1.22,1.22,0,0,1,.39-.14s.1.2.16.36C137.46,26.33,137.33,26.4,137.25,26.36Zm-.13-12.26,0,.18H137a1.48,1.48,0,0,1,0-.19ZM137,5.9l-.05.08,0-.09Zm-1.05-.45a1.35,1.35,0,0,1,.28-.25,2.3,2.3,0,0,1,0-.26c0-.28.07-.53.42-.54.06,0,.15.09.18.16a.44.44,0,0,1-.28.62.7.7,0,0,1-.25.05c0,.09,0,.21,0,.27s-.17.12-.25.18S135.89,5.49,135.92,5.45ZM136,8.06l.08.09-.09.08-.11,0Zm-.21,13.13,0,.1h-.1Zm-.38-7.11.16.12-.07.1-.15-.13S135.4,14.11,135.42,14.08Zm0,13.78.3.24a2,2,0,0,1-.34.31s-.24-.17-.23-.25S135.31,28,135.43,27.86Zm-1-6.37c.18-.16.36-.3.57-.09a.24.24,0,0,1,0,.25c-.13.24-.34.25-.57.13a1,1,0,0,1-.19-.17A1.13,1.13,0,0,0,134.48,21.49Zm-.21-3.25-.36.33-.23-.25c.13-.1.26-.2.4-.29A1.64,1.64,0,0,1,134.27,18.24ZM133.63,11l.13.15-.09.06a.57.57,0,0,1-.12-.15Zm.09,10.34.41-.29.12.55H134c0,.26-.08.46-.36.47-.09,0-.24-.16-.26-.26C133.31,21.54,133.45,21.38,133.72,21.34Zm-.28,4.51V27.2c-.16,0-.35,0-.38,0C132.78,26.77,132.8,26.38,133.44,25.85Zm-.27,7.58a2.91,2.91,0,0,1-.17-.3l.29-.1a1.92,1.92,0,0,1,.09.32S133.19,33.45,133.17,33.43Zm.26,6-.1-.17.12,0,.11,0Zm.31,35.46-.14-.21c.07,0,.16-.12.2-.11s.1.13.14.2Zm.95-1.41h-.24c0-.17,0-.35.06-.52s.07,0,.11-.07.11,0,.11.07A3,3,0,0,1,134.69,73.43Zm.42-3.66c.08.09-.18.47-.29.71l0,0a.79.79,0,0,0-.06.86l-1,.29c.18-.72.63-1.32.21-1.95l0,0-.27-.45c.48-.45.9-.87,1.33-1.28l.18.1c-.05.23-.1.47-.16.7S134.79,69.41,135.11,69.77Zm1.56,4.43c0-.08-.1-.16-.09-.22s.13-.09.2-.13L137,74Zm.88-1.1a2.85,2.85,0,0,0-1.81,1.11s-.17,0-.25,0-.07-.07-.14-.14c.15-.57.27-1.19.46-1.79a.73.73,0,0,1,.48-.39c.34-.06.46.2.46.51v0l1.07.11A.41.41,0,0,1,137.55,73.1Zm.47-1.26c-.05-.06-.09-.12-.14-.17l.1-.07a1.22,1.22,0,0,1,.15.17ZM136.89,66c0-.12,0-.23,0-.29s.35-.39.55-.6l.74.4C137.73,65.84,137.48,66.32,136.89,66Zm1.37,3.81.05-.06,0,.07ZM137.73,43c-.32.06-.55-.12-.5-.45s.19-.35.3-.53l.84.58A3,3,0,0,1,137.73,43Zm.43-12.75v.1s-.07,0-.1,0,0-.05-.05-.08Zm0-12.74.11-.05,0,.18a.23.23,0,0,1-.12,0S138.13,17.59,138.12,17.55Zm.12-1.24c-.07.07-.34,0-.44-.1a2.65,2.65,0,0,1-.32-.55c.44-.31.74-.25.89.19A.55.55,0,0,1,138.24,16.31Zm-.17-2.19-.27-.38c.1-.06.22-.17.31-.16s.17.17.28.29Zm.46-6.78s0-.1,0-.12a.73.73,0,0,1,.16-.14l.07.24Zm1.13.23-.29-.2s.09-.18.12-.18a2.08,2.08,0,0,1,.32.12Zm.3-.77s-.06-.07-.06-.1.06,0,.09-.08l0,.1Zm4-.68c-.07-.1-.18-.19-.19-.29s.13-.15.2-.23l.26.3Zm2.39-.49c-.09-.09-.23-.18-.23-.27s.13-.19.24-.33c.1.14.24.24.22.32S146.45,5.54,146.37,5.63Zm1.1,1c-.06-.07-.16-.13-.16-.19s.1-.12.16-.18.16.12.16.18S147.53,6.56,147.47,6.63Z"/>
    <path class="b" d="M47.91,115.38a4.56,4.56,0,0,1,0-2.32,2.55,2.55,0,0,0-2.72-2.89c-1,.07-1.94.06-2.91.07s-1.67,0-2.49,0a4.36,4.36,0,0,1-2.32-.15.72.72,0,0,0-.54,0,5.85,5.85,0,0,1-2.88,0,7.38,7.38,0,0,0-2.48,0,6.88,6.88,0,0,1-2.59.16,6.46,6.46,0,0,0-1.52-.07,41.61,41.61,0,0,1-6.51,0,17.54,17.54,0,0,0-4.28.15,7.78,7.78,0,0,1-2.21,0,14.74,14.74,0,0,0-3.87,0c-.87.15-1.17-.21-1.12-1.09s.08-1.57.07-2.36a21.86,21.86,0,0,1,.14-5.11,1,1,0,0,0,0-.41,12.51,12.51,0,0,1,0-4.14c.1-1.37-.33-2.75,0-4.12a7.77,7.77,0,0,1-.12-2.76,15.66,15.66,0,0,0,0-4.27,3.83,3.83,0,0,1,0-1.65c.28-1.18-.31-2.39.16-3.56,0-.1,0-.27-.07-.4a7.11,7.11,0,0,1-.06-3.43A6.64,6.64,0,0,0,9.65,76c0-2.4-.09-4.8-.12-7.19a8,8,0,0,1,.11-1,6.35,6.35,0,0,0-.17-3.15,3.62,3.62,0,0,1-.2-1.08c0-.74.38-1,1.14-1,1.68,0,3.36.64,5.06,0a.82.82,0,0,1,.27,0c1.48,0,3,0,4.44,0a1.43,1.43,0,0,0,1.48-1,4.57,4.57,0,0,0,.16-.82c.28-1.53-.18-3-.09-4.57a.92.92,0,0,0-.59-.86,5.09,5.09,0,0,0-3.62-.55,5,5,0,0,1-1.64.06,14.26,14.26,0,0,0-4.7,0,2.54,2.54,0,0,1-.95.06c-.45-.06-.81-.49-.66-.88a3.86,3.86,0,0,0,0-1.91,5.76,5.76,0,0,1,.1-2.61,2.87,2.87,0,0,0,0-1.09c0-.27-.15-.54-.17-.81a29,29,0,0,1,.22-7.73,3.11,3.11,0,0,0,0-1c-.05-.51-.15-1-.16-1.52,0-1.47,0-3-.05-4.43a11.11,11.11,0,0,1,.1-3.31,11.41,11.41,0,0,0,.2-3.44c-.09-1.18-.44-2.34,0-3.52,0-.12,0-.27,0-.41V20.78a7,7,0,0,0,0-1.52,28.61,28.61,0,0,1-.23-5c0-.88,0-1.76-.09-2.63-.06-1.14.33-1.51,1.47-1.34a6.3,6.3,0,0,0,3-.07,3.63,3.63,0,0,1,1.1-.06h3c1.21,0,2.41,0,3.61,0a1.75,1.75,0,0,0,2-1.8,11.84,11.84,0,0,0,0-3.85c-.27-1.42-.74-1.95-2.16-2s-2.68,0-4-.13a25.49,25.49,0,0,0-4.7.11,43.2,43.2,0,0,1-4.83,0H2.24a2.43,2.43,0,0,0-.27,0,1.72,1.72,0,0,0-1.71,2c0,.55.06,1.11.07,1.66C.36,8,.26,9.74.21,11.5A44.92,44.92,0,0,0,.4,19.94a1.48,1.48,0,0,1,0,.42C.27,21.59.13,22.83,0,24.06a1.17,1.17,0,0,0,.1.67,2.47,2.47,0,0,1,.17,2,2.53,2.53,0,0,0,.06.81,2.92,2.92,0,0,1,0,1.1,6.1,6.1,0,0,0,0,2.88,3.91,3.91,0,0,1,0,1.36,6.87,6.87,0,0,0-.18,2.34,7.68,7.68,0,0,1,0,1.66,3.37,3.37,0,0,0,.15,2.42,1.07,1.07,0,0,1,0,.54C.33,41.22.23,42.6.22,44c0,2.54-.08,5.09,0,7.63C.3,53.07-.13,54.55.41,56a1.06,1.06,0,0,1-.08.67,5.41,5.41,0,0,0,0,2.74,2.71,2.71,0,0,1,.11,1A28.34,28.34,0,0,0,0,64.79a11,11,0,0,0,0,1.52,45.54,45.54,0,0,1,.15,6.91,4,4,0,0,0,.18,2,1.75,1.75,0,0,1,.1.82,29.32,29.32,0,0,0-.15,5,9.28,9.28,0,0,0,.08,2.73,2.55,2.55,0,0,1,0,.82c0,1.8-.22,3.61-.1,5.4a48.07,48.07,0,0,1,0,7.2C.21,97.8.13,98.4.13,99a29.52,29.52,0,0,1,.09,4.7c.5,1.86-.34,3.76.16,5.63,0,.16-.08.37-.07.55.11,1.46-.44,2.93,0,4.41a1.13,1.13,0,0,1,0,.68c-.37,1.06.21,1.89.72,2.7a1.08,1.08,0,0,0,.79.44c1.8,0,3.6,0,5.4.09a3.74,3.74,0,0,0,1.1-.11,6.91,6.91,0,0,1,3.29.09,3.5,3.5,0,0,0,1,.15c1.06,0,2.11-.1,3.17-.13s1.85,0,2.78,0,2,0,3,0a48.28,48.28,0,0,0,5,0,3.3,3.3,0,0,1,.69.07,2.89,2.89,0,0,0,.83,0,3.39,3.39,0,0,1,2,.07,1.19,1.19,0,0,0,.8-.09,3.29,3.29,0,0,1,1.76-.11,18.3,18.3,0,0,0,3.31.05,7.54,7.54,0,0,1,2.07.09,5,5,0,0,0,2.73,0,3.64,3.64,0,0,1,1.1,0c.92,0,1.85,0,2.77-.08a9.56,9.56,0,0,1,1.51-.08,1.36,1.36,0,0,0,1.54-.89A2.34,2.34,0,0,0,47.91,115.38ZM16.68,58.84l0-.11.16.05Zm.81-1.14,0,.09-.07.07Zm-.63-.16c.07,0,.09.22.17.43-.22,0-.43.11-.52,0s-.1-.3-.14-.46A2,2,0,0,1,16.86,57.54ZM15.19,59,15.11,59l.09,0ZM15,57.6a1.3,1.3,0,0,1,.15.18l-.22.1a1.7,1.7,0,0,1,0-.22S15,57.59,15,57.6Zm-1.46,1.88-.18.12s-.1-.06-.1-.07.08-.13.11-.2Zm-1.51-2c.3.47.83.45,1.32.47-.2.76-.28.86-.72.78a3.6,3.6,0,0,1-.66-.2Q11.09,58.09,12,57.43Zm-1.4,0,.26.41-.29.17a2.65,2.65,0,0,1-.22-.4S10.51,57.45,10.6,57.39ZM19.39,6.17a.46.46,0,0,1,.71.12,2.72,2.72,0,0,1,.38,1c0,.22-.18.47-.35.85-.42-.55-.72-.89-1-1.27S19.11,6.35,19.39,6.17ZM17.88,7.9l-.13-.07.1,0Zm-.29-1c.05,0,.18.12.17.15a1.48,1.48,0,0,1-.22.35L17.29,7A1.73,1.73,0,0,1,17.59,6.86ZM15.93,8s0,.08,0,.12-.18,0-.19,0a1.88,1.88,0,0,1-.05-.33C15.78,7.81,15.86,7.89,15.93,8Zm-.28-.33c-.72-.09-.72-.11-.72-.64C15.41,7,15.46,7.38,15.65,7.65Zm-2.78-1v.08l-.07,0Zm-4.82.94c.07,0,.19.13.35.25-.18.14-.31.31-.45.32s-.21-.2-.31-.32A1.61,1.61,0,0,1,8.05,7.64Zm.13,49.5-.1.07L8,57,8.05,57ZM6.75,9.57c.13-.23.23-.48.34-.72.56.12.7.25.54.52s-.41.58-.61.87C6.83,10.06,6.56,9.92,6.75,9.57ZM7,103.05c.08,0,.15.16.25.29-.15.07-.31.2-.35.16s-.16-.22-.23-.34C6.75,103.12,6.87,103,7,103.05Zm0-.79.13,0-.11,0Zm.06-.58a1.66,1.66,0,0,1,0-.22s.09-.06.1-.06l.14.19ZM6.88,99a2.23,2.23,0,0,1-.38-.32c.08-.08.18-.25.23-.23a2.43,2.43,0,0,1,.5.28C7.06,98.83,6.92,99,6.88,99Zm-.5-9.12,0,.09-.07-.08h0c0-.26-.11-.64,0-.74.33-.28.68-.13,1,.27Zm.1,4.42s0,.07-.06.08-.07,0-.1,0v-.1Zm0-17.72.05.07,0,0ZM5.31,85.05s-.12-.18-.19-.31l-.08,0c-.07,0-.19-.11-.28-.18a1.27,1.27,0,0,1,.31-.34c.06,0,.2.09.41.19h0l.16-.08s.15.18.3.35A4.11,4.11,0,0,1,5.31,85.05Zm.58,6.09-.14,0,0-.1Zm-.68-.55,0,.09-.07-.06Zm-.48,7.25.22.1-.09.21c-.07,0-.19-.05-.2-.09S4.71,97.91,4.73,97.84Zm-.1-20.63.21,0s.06.09,0,.1l-.18.13Zm0-42.27a5.91,5.91,0,0,1,.15-2.8l2.62.63c-.23.94-.44,1-1.13.53-.33-.24-.33-.24-.83-.22-.16,1.13-.16,1.14.81,1.55,0,.34-.12.65-.56.58S4.93,35,4.58,34.94Zm.13,8a.13.13,0,0,1-.1,0,.13.13,0,0,1,0-.11s.07,0,.11,0S4.72,42.93,4.71,43Zm-1.15-1.4a.75.75,0,0,1-.24-.08l.08-.19.24.08C3.62,41.44,3.59,41.56,3.56,41.56Zm.07,10.89,0,.07,0-.07Zm0-16.11a7.62,7.62,0,0,1-.75-.82c.37-.47.65-.32.91-.11a.69.69,0,0,1,.27.82A.46.46,0,0,1,3.64,36.34Zm-1,4.3c0-.07.12-.11.18-.16l.08.19-.18.16C2.65,40.76,2.59,40.68,2.6,40.64Zm.08,17.81-.21.08a.28.28,0,0,1-.05-.11l.07-.1Zm-.1-24c.07,0,.16-.1.21-.08s.06.13.09.2-.15.09-.21.07S2.61,34.52,2.58,34.45Zm.47,9.1c.06,0,.11.09.16.15l-.13.18-.22-.22C2.92,43.62,3,43.54,3.05,43.55Zm1.51,15.8-.07.08-.08-.16s.08,0,.1,0S4.54,59.31,4.56,59.35Zm-.38-32S4,27.3,4,27.27A2,2,0,0,1,4.21,27s.13,0,.34.15A1.52,1.52,0,0,1,4.18,27.36Zm2,15.58s.08,0,.09.05,0,.06,0,.09l-.09,0Zm-.39-6.69.07-.16.32.23ZM5,27.43c.83-.11,1.35-.19,1.87-.24.2,0,.32.17.5.75A2.7,2.7,0,0,1,5,27.43Zm2.11,7.88-.91-.69a.8.8,0,0,1,.84-.5h0C7.61,34.69,7.61,34.7,7.13,35.31Zm.25-3.37-.12.19-.21-.22c.06,0,.12-.14.18-.13S7.33,31.88,7.38,31.94ZM4.75,40.05c.14-.15.31-.28.47-.42l.13.34h0a1.31,1.31,0,0,1-.24.28.25.25,0,0,1-.25,0C4.8,40.23,4.73,40.07,4.75,40.05ZM5,41.6l0,.1-.09,0Zm.49,18.27c.06,0,.09.14.13.22L5,60.3C5,59.87,5.22,59.8,5.47,59.87Zm.13-9.38s-.15.07-.22.1l-.16-.2.3-.14C5.55,50.33,5.62,50.43,5.6,50.49Zm-.29-1.26c-.07,0-.19-.13-.29-.2l.29-.38.33.3C5.53,49.05,5.44,49.19,5.31,49.23ZM5.4,40A3,3,0,0,1,6,40c.07,0,.1.2.15.31-.1,0-.26.16-.31.13A3.57,3.57,0,0,1,5.4,40Zm.71,6.79s-.06,0-.09,0,0,0-.07-.07ZM5.77,48.3c.05-.06.2-.11.24-.08a2.92,2.92,0,0,1,.37.34c-.14.1-.21.19-.28.19C5.86,48.75,5.64,48.44,5.77,48.3Zm.05,27s0,0,.07-.06,0,0,0,0Zm0-24s.06-.13.1-.2l.3.16-.13.27A1.49,1.49,0,0,1,5.83,51.34Zm.29-1.51s.13-.16.18-.15a1.11,1.11,0,0,1,.34.22l-.35.24A1.34,1.34,0,0,1,6.12,49.83Zm.45,12.39.1,0,0,.1s-.08,0-.09,0S6.56,62.25,6.57,62.22ZM6.23,36.33a2,2,0,0,1,.55-.39.81.81,0,0,1,.61.07.57.57,0,0,1,.07.5.78.78,0,0,1-.48.41A.6.6,0,0,1,6.23,36.33Zm1.3,21.38.08.07s0,.08-.05.1-.07,0-.1,0ZM6.91,43.86c0-.07,0-.17,0-.22a.26.26,0,0,1,.22-.09s.06.13.11.24Zm.33,1.34L7,45.38a3.07,3.07,0,0,1-.17-.31s.08-.08.1-.07Zm-.17-2.57a1.05,1.05,0,0,1-.22-.26s.09-.2.12-.2a1.88,1.88,0,0,1,.38.17Zm0,7.88c.12.1.34.2.35.31a5.13,5.13,0,0,1-.2,1,5,5,0,0,1-.43-.93C6.77,50.78,7,50.63,7.07,50.51Zm.49,27.14-.49.43-.3-.35,0,0s-.1-.12-.1-.16l-.06-.08.22-.14.07-.08,0,0,.11,0C7.17,77.33,7.31,77.49,7.56,77.65ZM7,80.84s0,.07-.07.07,0,0-.08-.08l.08-.07Zm.2.3a1.38,1.38,0,0,1,0-.2s.08-.06.09,0,.08.11.13.16Zm.15-2.4a1.61,1.61,0,0,1,.19-.31s.13,0,.22.1a2.1,2.1,0,0,1-.22.3S7.41,78.77,7.35,78.74ZM6.81,18.21a1.54,1.54,0,0,1,.34-.29s.23.16.24.25-.15.18-.26.31Zm.06.76s-.06.05-.08.05,0-.05-.08-.07.06-.05.09,0S6.85,19,6.87,19ZM7,17.29c-.19-.21-.4-.34-.39-.44A1,1,0,0,1,7,16.3c.15-.13.49.13.44.36A2.37,2.37,0,0,1,7,17.29ZM5.79,5.86l.08,0-.09,0ZM7,10.25v0c.59.4.37.93.27,1.58a2.84,2.84,0,0,1-.61-.31c-.32-.29-.6-.62-.94-1Zm.45,9.32c-.41.57-.73,1.1-1.74.92C6.33,20,6.68,19.55,7.46,19.57Zm-1.8,2.58c.34,0,.59.22.6.72-.11.1-.28.35-.48.38a.72.72,0,0,1-.8-.57C5,22.43,5.3,22.18,5.66,22.15ZM5,17.87l-.11.05,0-.21s.09,0,.12,0S5,17.83,5,17.87Zm-.21-2.14s.06.14.11.27a1.54,1.54,0,0,1-.36,0s-.05-.14-.08-.21A1,1,0,0,1,4.82,15.73ZM4.19,26.54a.57.57,0,0,1-.11-.16s0-.09.06-.08a.77.77,0,0,1,.19.08Zm-.72-11s.14,0,.2.08l-.09.21c-.06,0-.17,0-.19-.1A.21.21,0,0,1,3.47,15.57Zm.65,1.25c.34.93.33.95-.77,1.16C3.5,17.49,3.62,17.05,4.12,16.82ZM2.64,7.92a1.76,1.76,0,0,1,.3.48c0,.06-.17.24-.24.22a.39.39,0,0,1-.25-.25C2.42,8.28,2.53,8.16,2.64,7.92Zm.17,18.14-.15.14a.93.93,0,0,1-.1-.2s.08-.08.09-.07Zm.41,5.42L4,32.92l-.44.68c-.51-.17-1.1-.18-1.22-.78S2.65,31.83,3.22,31.48Zm-1-18.67.08,0-.09,0Zm0,53.68c-.06,0-.15-.1-.17-.16s.07-.13.11-.2l.19.17A1.27,1.27,0,0,1,2.28,66.49Zm0-2.52c-.06,0-.08-.15-.11-.23s.18-.09.23-.06.08.15.11.23S2.34,64,2.29,64Zm.43,42.86v-.07l.06,0ZM2.55,60c.09-.48.46-.24.82-.31,0,.54,0,.92-.45.91C2.6,60.54,2.49,60.23,2.55,60Zm1.19,2-.3.43a1.51,1.51,0,0,1-.21.11L3,61.37C3.52,61.29,3.55,61.71,3.74,62Zm-.26,42.73-.12-.16s.06-.08.08-.08a1.76,1.76,0,0,1,.2.09Zm.13,3.24-.12,0v-.17s.09,0,.11,0S3.6,107.89,3.61,107.92Zm0-29.67.15.13-.06.1a.64.64,0,0,1-.15-.13S3.55,78.29,3.57,78.25Zm-.2,23s-.1.06-.11.05a1.18,1.18,0,0,1-.13-.18l.12,0ZM3.27,78.1h.08l-.05.07ZM3,98.8l.08,0s0,.07,0,.08-.06,0-.09,0Zm.16,5.5s0,.06.08.09l-.19.08v-.12A.34.34,0,0,1,3.16,104.3ZM3,105.64h.1s0,.07,0,.1,0,0-.08.07Zm0,1.76,0-.1.08.07Zm.23,5.21-.08,0,.08,0ZM3.15,103l.17-.09.05.11-.11.05Zm.15,10.77.15.06-.12,0Zm.17,1.08h0l-.08,0,.09,0v0h0Zm0-2h0a1.57,1.57,0,0,1,0-.23s.11,0,.12,0h0a1.29,1.29,0,0,1,.07.21ZM3.7,96.11s-.09,0-.09,0,0-.06,0-.09l.1,0Zm0-18.76-.07,0,.08,0Zm.22-16,1.61-.16a3.65,3.65,0,0,1,.16.6,3.4,3.4,0,0,1-.08.61l-.55-.26-.08.2-.2-.2L3.78,62Zm-.09,40.76-.06-.06.08,0Zm.25-36.6a1,1,0,0,1,.19.29s-.15.18-.16.17a1.74,1.74,0,0,1-.24-.22ZM4,89.23l0-.08H4Zm.27,21.48.09.06c0,.06-.06.12-.09.19a.91.91,0,0,0-.16-.11A1.07,1.07,0,0,1,4.26,110.71Zm.08,1.6-.16-.12.07-.09.17.12Zm.22-1.2v0h0a1.18,1.18,0,0,1-.11-.19s.08-.08.1-.07h0a.72.72,0,0,1,.19.11Zm.34-2.84c-.16,0-.29-.25-.43-.39l.5-.48c.16.16.34.26.36.38C5.37,108.07,5.24,108.34,4.9,108.27Zm.23-9.94L5,98.14,5.44,98h0Zm.41,1.74.08-.06v.1Zm-.07-3.92.11,0,0,.1Zm.32,14.93,0-.1.09,0ZM5.9,96a1.16,1.16,0,0,1-.5-.32s0-.08,0-.16l-.06,0v-.09l.06,0,.17-.31a3.17,3.17,0,0,1,.52.48S6,96,5.9,96ZM6,75.73,6,75.57l.3,0,0,0h0l.06-.27a.71.71,0,0,1-.35,0,.83.83,0,0,1,0-.36.76.76,0,0,1,.37-.26l0,0,0-.27c.29.44.53.65.52.83,0,.45-.42.36-.74.33v0h0Zm.22,32.68,1.09,0C6.91,109.08,6.58,109,6.26,108.41ZM7.44,97a1.86,1.86,0,0,1-.32-.31c.08-.08.19-.24.25-.23a1.56,1.56,0,0,1,.44.28C7.62,96.91,7.49,97.05,7.44,97Zm.4-20.76-.18-.12A.81.81,0,0,1,7.82,76s.09.05.09.07A.86.86,0,0,1,7.84,76.27Zm-.16-1.52.1,0,0,.1Zm.65-15.37c-.08.07-.25,0-.39,0l-.1.21-.15-.13.18-.14c0-.16,0-.39.14-.49a.32.32,0,0,1,.54.12C8.59,59.08,8.45,59.29,8.33,59.38Zm2.06,54.33v0l0,0v-.09l0,0h0l.08,0Zm.6,2.37-.07-.07.08,0Zm.59-2.21,0,.18-.36,0Zm0,.49-.09.24,0,0h0l-.14-.14.23-.1.35-.29v0h0l.12.19Zm.54.55c-.06,0-.15,0-.22-.08s.07-.17.12-.19.15,0,.23.08S12.16,114.9,12.1,114.91Zm.69-1.39c-.54,0-.61-.38-.75-.9.7,0,1,.17,1,.67A.38.38,0,0,1,12.79,113.52Zm1.55.26.23.16a2.09,2.09,0,0,1-.28.24s-.12-.08-.18-.12Zm0,1.47-.08,0s0-.08,0-.09.06,0,.09,0Zm.73-.11s-.2-.11-.19-.14a.14.14,0,0,1,0-.06c-.05,0-.1-.06-.16,0s-.13-.08-.2-.12l.21-.28a1,1,0,0,0,.26.14v.07l0-.06c.11.08.25.16.24.18A1.25,1.25,0,0,1,15.07,115.14Zm1.14-1.25a.31.31,0,0,1,.07-.09.81.81,0,0,1,.21.1l-.14.17A1.24,1.24,0,0,1,16.21,113.89Zm.56.38,0,0h0l-.25-.21c.05-.06.1-.17.16-.17l.05,0c.06,0,.11.09.17.14Zm.4-.65-.1-.17.09-.06.1.17Zm.81,2.12h-.05l-.05,0-.1,0,.08-.07h.07l.13,0ZM19.31,114l0-.1s.08-.05.1,0,0,.07.05.11Zm.2-1.11a.24.24,0,0,1-.1,0l.05-.09.1,0S19.53,112.85,19.51,112.86Zm1.41,1.8c-.44.52-.45.51-1.3-.09l1.3.09,0,0,0,0Zm.47.52s0-.07-.05-.1.08-.1.09-.09a1.88,1.88,0,0,1,.18.12A.81.81,0,0,1,21.39,115.18Zm.79-.58-.17-.13.08-.1.16.13S22.21,114.57,22.18,114.6Zm1.86-.13s-.05,0-.07-.08l.17-.06v.11S24.07,114.48,24,114.47Zm2.86-1.13,0,.1-.12-.06Zm-.59,1-.07.08,0-.09Zm.11,1.54c-.08,0-.24-.14-.27-.24a.39.39,0,0,1,.08-.36,2.14,2.14,0,0,1,1.62-.27A1.67,1.67,0,0,1,26.42,115.89Zm1.49-1.68c-.09-.21-.18-.33-.17-.43a.33.33,0,0,1,.22-.25c.08,0,.25.11.25.18S28.1,113.91,27.91,114.21Zm.75-1.68-.07-.19h.12s.05.08,0,.12S28.69,112.5,28.66,112.53Zm1.54.61c-.07-.17-.18-.31-.15-.37s.19-.12.3-.15.13.15.11.19A1.45,1.45,0,0,1,30.2,113.14Zm1.17,2.8-.2-.11s.06-.1.07-.1l.19.11Zm.39-2.55-.16-.12s.07-.06.1-.06.07,0,.1.06Zm.9,1.93v-.11l.09.07Zm.39-2.83L33,112.3s.1,0,.12,0,0,.08,0,.12Zm1.75,1.69.1.06-.11.05Zm.54,1.68-.5-.08c0,.32-.15.55-.5.39-.09,0-.07-.32-.1-.48l.59.07c.14-.19.28-.38.53-.14C35.39,115.65,35.35,115.77,35.34,115.86Zm1,0s-.06,0-.1,0l.08-.17.07.08S36.37,115.85,36.34,115.87Zm.73-1.56a1,1,0,0,1-.21-.1l.16-.16a1,1,0,0,1,.13.18S37.09,114.32,37.07,114.31Zm.22-.12a1.24,1.24,0,0,1,.22.12l-.18.16a.67.67,0,0,1-.12-.19S37.27,114.18,37.29,114.19Zm.2.8-.19-.13a.21.21,0,0,1,0-.11l.24,0Zm1.12.28-.09-.07.1,0Zm.77.32c-.12-.4-.24-.76-.43-1.37l.9.44,0,0h.86C40.46,115.38,39.93,115.38,39.38,115.59Zm3.61-.34c-.05-.07-.14-.15-.13-.2s.12-.11.18-.16.13.15.12.21S43.05,115.2,43,115.25Zm1.47.91c-.39.2-.63-.09-.88-.4h1.05C44.56,116,44.54,116.12,44.46,116.16Z"/>
    <path class="a" d="M312.51,20.09a2.31,2.31,0,0,0-.73-.43,32.37,32.37,0,0,0-13.84,1c-.88.23-1.77.72-1.79,1.42.9,3.92,4.38,3.15,6.82,4.44.09,1.31.25,2.61.26,3.91.09,9.18.31,18.36.18,27.53A97.57,97.57,0,0,0,305.17,76a3.16,3.16,0,0,0,.94,2.31.38.38,0,0,0,.56-.12,11,11,0,0,0,1.09-2.13,51.35,51.35,0,0,0,2.3-13.75c.09-5.28,0-10.57.12-15.85.13-7.93.33-15.85.49-23.49C311.32,21.82,312.84,21.61,312.51,20.09ZM301,24l0-.09L301,24Zm1,1v0h0c-.06.12-.17.29-.21.23-.16-.27.09-.19.21-.23l0,0h0v-.52h0l0,0v0c.1.06.24.11.26.18S302.07,24.91,301.91,25Zm.91-1.38a.18.18,0,0,1-.14-.29.51.51,0,0,1,.42-.3c.15,0,.25.09.24.27A.46.46,0,0,1,302.82,23.59Zm6.91,1.94c0,.36-.2.3-.36.32Zm-1.48,3s0,.09,0,.09a.21.21,0,0,1-.11,0s0-.09,0-.1A.42.42,0,0,1,308.25,28.51Zm-.29-5s.06,0,.09.08,0,.08-.05.1a.11.11,0,0,1-.11,0C307.81,23.61,307.84,23.54,308,23.53Zm-.34,9.89s.1,0,.11,0a1.29,1.29,0,0,1,.07.21l-.21,0A1.52,1.52,0,0,1,307.62,33.42Zm-.51-11.79.16.19c-.07,0-.14.13-.21.13s-.1-.12-.15-.18Zm.41,4.07c-.68.2-1,.11-1.15-.32C306.8,25.15,307,25.47,307.52,25.7Zm-.68,46.74c-.69.2-1,.12-1.15-.32C306.12,71.89,306.33,72.21,306.84,72.44Zm-2.19-9.83c0-.06-.11-.15-.09-.19s.13-.08.2-.12a2,2,0,0,0,.11.2A1.51,1.51,0,0,1,304.65,62.61Zm.29-4.18s-.06,0-.09,0l.13-.23C305,58.36,305,58.41,304.94,58.43Zm.24,16.87c0-.08-.1-.16-.08-.23s.1-.11.16-.16l.16.16Zm-.08-6.72.15-.07s0,.07,0,.09a.16.16,0,0,1-.1.05Zm.4-1.65a.23.23,0,0,1-.1,0s0-.06,0-.09l.1,0Zm-.05-10.32a1.21,1.21,0,0,1-.08-.44c0-.1.16-.18.26-.26l-.09,0,.11,0,0,0c.07.15.21.31.18.44S305.58,56.52,305.45,56.61Zm.48-12.36c-.05.09-.19.14-.29.21s-.13-.16-.11-.21a1.69,1.69,0,0,1,.23-.36C305.85,44.06,306,44.19,305.93,44.25Zm0-7.89,0-.09s.08,0,.09,0,0,.06,0,.09Zm.24,22.31a2.25,2.25,0,0,1-.35-.09c0-.08.06-.21.1-.22a1.63,1.63,0,0,1,.37,0C306.21,58.52,306.18,58.67,306.15,58.67Zm0-12.18c-.07,0-.13-.11-.19-.16s.14-.15.21-.15.12.11.18.16S306.24,46.49,306.18,46.49Zm.28-12c-.13.22,0,.59,0,1l-1.28.18a.77.77,0,0,1,.06-1.21c.29-.27.55-.56.87-.89C306.37,33.83,306.8,34,306.46,34.52Zm.12-5.59s0-.08,0-.1.06,0,.1,0l0,.09Zm.5,3c.07,0,.19.08.35.15-.12.15-.19.31-.28.32s-.2-.12-.3-.19C306.92,32.09,307,32,307.08,31.91Zm-.2,25.48.11.06-.11,0Zm.06,4.62-.05-.11.16.07Zm-.05-1.92c0-.1.12-.19.18-.29.1.06.26.12.27.2s-.09.21-.29.59C307,60.33,306.88,60.21,306.89,60.09Zm.46,16.11-.1-.08.16-.07a.88.88,0,0,0,0,.1Zm0-28c-.12-.14-.25-.23-.25-.31s.13-.19.19-.29c.09.08.23.15.24.23S307.39,48.07,307.31,48.23Zm.14-12.29c.41-.25.55,0,.64.25Zm.66.3c.11,0,.27.09.29.16s-.09.21-.15.32a1,1,0,0,1-.19-.27A.34.34,0,0,1,308.11,36.24Zm1.14,32.51.05-.12,0,.09Zm0-14.24c-.35.24-.55-.14-.77-.36-.43-.43-.35-.76.22-1.12a5.49,5.49,0,0,0,.4.74C309.32,54,309.74,54.21,309.29,54.51Zm-.6-13.26.05-.07,0,.08Zm.84,24.49,0-.08h.09Zm-.22-23.37L309,42c.11-.06.22-.16.33-.16a1.75,1.75,0,0,1,.45.17Zm.56-10.83c-.22.09-.35,0-.38-.24l-.18,0c0,.35-.17.55-.49.3s-.37-.51,0-.84l.41.48h.32l.37.11C309.92,31.39,309.92,31.51,309.87,31.54ZM310,24.9l.05-.07,0,.09Z"/>
    <path class="b" d="M378.92,2.58a12.43,12.43,0,0,0-3.17-.08,7.19,7.19,0,0,1-2.07,0c-1.91-.19-2.76.35-3.22,2.19-.52,2.11-1,4.23-1.51,6.33-.4,1.61-.9,3.2-1.32,4.81-.36,1.33-.66,2.68-1,4q-1.41,5.36-2.85,10.71a31.54,31.54,0,0,1-1.12,4,10.05,10.05,0,0,0-.78,3.48,4.13,4.13,0,0,1-.24,1.21.61.61,0,0,1-.52.31.56.56,0,0,1-.34-.48,6.52,6.52,0,0,0-.51-2.7c-.56-2-1.17-4-1.75-6-.08-.3-.1-.63-.16-.95a19,19,0,0,0-.44-2.15,45.68,45.68,0,0,1-1.83-7.1,14.56,14.56,0,0,0-.89-2.91,2.2,2.2,0,0,0-1.5-1.53,10.82,10.82,0,0,0-2.46-.35c-1.34,0-2.68.13-4,.22-1.13.06-1.72.62-1.66,1.77a10.13,10.13,0,0,0,.47,2.29c.33,1.1.76,2.18,1.11,3.28.4,1.27.76,2.55,1.14,3.83.55,1.86,1.52,3.58,1.74,5.54a3.44,3.44,0,0,0,.26.64c.18.52.35,1,.5,1.57.34,1.15.65,2.31,1,3.45a25,25,0,0,1,.89,2.46c.77,4,2.47,7.74,3.63,11.63a11.1,11.1,0,0,1,.45,4.07c-.09,1.24-.09,2.49-.12,3.73,0,.51,0,1,0,1.53v5.13h-.08v8.31c0,.41,0,.83,0,1.24a1.64,1.64,0,0,0,1.12,1.6,4.51,4.51,0,0,0,1.47.39c1.47.06,3,0,4.44,0a1.54,1.54,0,0,0,1.53-1,3.5,3.5,0,0,0,.37-1.19c.1-1.74.16-3.5.18-5.25,0-1.24-.11-2.49-.11-3.74,0-4.34,0-8.68.06-13a7.83,7.83,0,0,1,.4-2.17c.53-1.81,1.14-3.59,1.68-5.4.65-2.21,1.24-4.44,1.89-6.65.6-2,1.3-4,1.85-6.07s1.7-4.1,1.89-6.35a1.34,1.34,0,0,1,.09-.26c.37-1.19.75-2.38,1.1-3.57a19.63,19.63,0,0,1,1.52-4.3,2.57,2.57,0,0,0,.28-1.06,11.09,11.09,0,0,1,.89-3.34,16.61,16.61,0,0,0,.75-2.08c.7-2.39,1.4-4.78,2.07-7.17A5.05,5.05,0,0,0,380.3,4,1.29,1.29,0,0,0,378.92,2.58Zm-29.33,20.5V23l.1.05Zm.29,1.64.06-.06v.07Zm2.5,2.78a.74.74,0,0,1,.05.24.85.85,0,0,1-.09.22c-.06-.07-.15-.14-.14-.19A.75.75,0,0,1,352.38,27.5Zm.38,1.33c-.46-.15-.45-.49-.41-.83C352.68,28.14,353,28.28,352.76,28.83Zm.25-7.89c0-.07-.12-.14-.11-.2s.11-.09.17-.14l.12.2Zm.72,6.64-.44-.48c.18-.1.34-.23.36-.2a.89.89,0,0,1,.28.39C354,27.36,353.8,27.48,353.73,27.58Zm2,12.83s-.05-.09-.05-.1l.19-.11c0,.06.05.12.07.19ZM359,65.49l0-.12.21-.07s0,.1,0,.11Zm4.46-13.89.21.06c0,.05-.09.15-.11.14a.87.87,0,0,1-.18-.11S363.41,51.6,363.43,51.6Zm-.65-1.5.05.08-.07.08Zm-.7-3.8a.51.51,0,0,1,.22.11,4,4,0,0,1,.35.46l-.41.24c-.05-.19-.12-.38-.16-.57A1,1,0,0,1,362.08,46.3Zm.05,5.86c.35.73.55,1.16.76,1.58h0c-.44.41-.79.26-.91-.25A4.92,4.92,0,0,1,362.13,52.16Zm.57,4.52.16-.44.29.31Zm.64,10.4s-.09.15-.11.14a.87.87,0,0,1-.18-.11s.06-.09.08-.09Zm-.86-1.56,0,.08-.07.08Zm-.19-10.41-.1-.28c.07,0,.16-.06.21,0s.07.14.1.21Zm-.87,12,0,.1s-.08,0-.1,0a.25.25,0,0,1,0-.09Zm-.26-11.53.09.05a.18.18,0,0,1,0,.1l-.15-.06Zm0,6.77-.06.08,0-.09Zm-.21,8.8-.15-.07.06-.08a.46.46,0,0,1,.1,0S360.94,71.16,360.94,71.19Zm.86-1.38c-.45.42-.79.26-.91-.25a4.44,4.44,0,0,1,.15-1.33l.77,1.61Zm.19.72-.11-.28c.08,0,.17-.06.22,0a.45.45,0,0,1,.09.21Zm-.05-8c-.05-.19-.12-.38-.16-.57a1,1,0,0,1,0-.24h0v0a.51.51,0,0,1,.22.11,4,4,0,0,1,.35.46Zm.92,9.45h0l-.45.12.16-.43.29.31h0l.07,0Zm.21-2.61c-.15,0-.31-.12-.46-.2h0l0,0h0a1.65,1.65,0,0,1,.44-.26c.09,0,.23.09.35.14C363.29,69.17,363.18,69.37,363.07,69.37Zm.3-15.42c-.15,0-.31-.12-.46-.19a1.45,1.45,0,0,1,.44-.27c.1,0,.23.09.35.14C363.59,53.75,363.48,54,363.37,54Zm1,7.7v-.19s.08.09.07.11S364.43,61.62,364.41,61.65Zm.3-15.42V46c0,.05.08.09.08.11S364.74,46.2,364.71,46.23Zm1.68-12.67c-.05,0-.14,0-.16-.05s0-.12,0-.18.14,0,.16.05S366.4,33.5,366.39,33.56Zm.12-3.13.08.08-.1,0Zm.12,4.84c.07.18.17.31.14.38s-.2.1-.31.14Zm.22,2.54-.22,0,.13-.19a.93.93,0,0,1,.15.13S366.87,37.81,366.85,37.81Zm1.29-13c0-.05.09-.08.14-.12l.11.27h-.18S368.13,24.86,368.14,24.82Zm.22,10s-.09,0-.13-.06l.07-.14.14.08S368.4,34.87,368.36,34.87Zm.91-10.44c-.13,0-.33,0-.37-.11s0-.26.07-.39c.13,0,.32,0,.36.12S369.29,24.3,369.27,24.43Zm0,6.34,0-.2.18.13Zm0-9.38,0-.25.19.16Zm.54,7.36a3.35,3.35,0,0,1-.54-.08l.31-.46a2.85,2.85,0,0,1,.38.31S369.85,28.75,369.79,28.75Zm1.31-13.22.07.17h-.12s-.05-.07,0-.1S371.07,15.55,371.1,15.53Zm.15,1.39a2.25,2.25,0,0,1,.25.61c0,.06-.26.15-.4.23a3.9,3.9,0,0,1-.21-.57C370.88,17.14,371.07,17.05,371.25,16.92Zm-.07,8.71s-.07,0-.11-.05l.06-.11.1.06S371.2,25.62,371.18,25.63Zm.18-.34-.27-.22.28-.22.13.22Zm.69-3.73,0-.22.19.14Zm.91-4.14c-.06,0-.14-.05-.21-.07a2.14,2.14,0,0,0,.13-.19l.2.08C373,17.3,373,17.4,373,17.42Zm1.11-9.73a2.53,2.53,0,0,1,.25.61c0,.07-.26.16-.4.24a3.9,3.9,0,0,1-.21-.57S373.89,7.83,374.07,7.69Zm-.59,8c.06,0,.12-.15.18-.15a1.42,1.42,0,0,1,.41.13c-.16.12-.26.24-.35.24S373.56,15.77,373.48,15.69Zm.36,1s-.1-.05-.09-.06a.75.75,0,0,1,.1-.17,1.42,1.42,0,0,1,.08.18A.17.17,0,0,1,373.84,16.67Zm.35-.61-.28-.22.28-.21.13.22Zm1.59-7.87s-.13,0-.2-.06l.13-.19.19.08C375.86,8.08,375.84,8.18,375.78,8.19Zm.88-.74s-.1,0-.09-.06a.75.75,0,0,1,.1-.17c0,.06.06.11.09.18A.3.3,0,0,1,376.66,7.45Zm-.12-.77c-.08,0-.16-.14-.24-.21s.12-.16.18-.16a2,2,0,0,1,.41.14C376.73,6.57,376.63,6.69,376.54,6.68ZM368.78,29c-.49,0-1,.26-1.49-.1.07-.64.55-.75,1-.74s.57.39.54.81Zm-2.6,13.25c.08.19.16.29.13.36a2.83,2.83,0,0,1-.3.69s-.3-.12-.46-.18c.11-.23.2-.46.33-.68C365.92,42.41,366,42.38,366.18,42.29Zm2.23-8c.3-.27.6-.53,1-.18C368.91,34.61,368.91,34.61,368.41,34.28Zm.41-5.27a1.39,1.39,0,0,1,.48.2c.07.05,0,.25,0,.38-.14-.05-.32-.06-.42-.16s-.07-.25-.1-.39Zm-2,9.24.46-.23.15.45a1,1,0,0,1-.24,0A3.73,3.73,0,0,1,366.8,38.25Zm-1.16,2.9.16-.22.1.15-.27.05Zm2.58-2.65-.07.07,0-.09Zm-2.59,2.63h-.26l.27,0ZM365,35.45a1,1,0,0,1,.14-.37c.06,0,.23,0,.34,0s-.05.19-.1.22a2.52,2.52,0,0,1-.39.12Zm1.55-1.77a1.72,1.72,0,0,1-.07-.21l.11,0c0,.07.05.14.07.21Zm-1.34,6-.1,0v-.16s.08,0,.1,0A.15.15,0,0,1,365.17,39.71Zm-1.81.34h-.13V40Zm0,.51s0,.07,0,.08a.17.17,0,0,1-.1,0l.06-.14Zm1.32-5.2.29.09v0l-.26-.08Zm0,0h0Zm2.8-3.82v0Zm0,0v0Z"/>
    <path class="b" d="M355.07,4.68a2.18,2.18,0,0,0-2-2.16,15.57,15.57,0,0,0-4.41-.16,35.27,35.27,0,0,1-4.71,0c-.78,0-1.56.05-2.34.05s-1.57,0-2.36-.06c-.37,0-.73-.09-1.1-.08-2.54.07-5.08.17-7.63.21-2.08,0-4.16-.17-6.24,0-.41,0-.83,0-1.25,0-1.94,0-3.88,0-5.82,0-.92,0-1.85-.07-2.77-.09-.46,0-.91,0-1.37,0a18,18,0,0,1-2.2,0,6.35,6.35,0,0,0-2.34,0,3.25,3.25,0,0,1-.83.07l-7.49,0a2.56,2.56,0,0,0-2.82,2.7c0,.83.09,1.67,0,2.5a2,2,0,0,0,1.45,2.22,5.82,5.82,0,0,0,1.2.29c1.43.14,2.87-.17,4.29.18a1.47,1.47,0,0,0,.41,0,74.48,74.48,0,0,1,8.45-.16c1.57,0,3.14.15,4.71.21a6.48,6.48,0,0,0,1-.09c.82-.1,1.64-.24,2.47-.31a.86.86,0,0,1,1,1l0,4.57c0,3.33-.06,6.67-.07,10,0,1.43-.06,2.87.05,4.3.14,1.9-.1,3.78-.07,5.67,0,.46-.14.93-.1,1.38a42.23,42.23,0,0,1,.14,6c0,.42,0,.84,0,1.25,0,1.76,0,3.51,0,5.26,0,.7,0,1.39,0,2.08,0,1.11,0,2.22-.06,3.33a13.6,13.6,0,0,0-.09,2.62,39.33,39.33,0,0,1,.15,6.23c.06,2.91-.08,5.83.15,8.74a3.42,3.42,0,0,1,0,1,8.51,8.51,0,0,0,.1,3.18A2.18,2.18,0,0,0,325,78.33c1.38,0,2.77-.08,4.15-.15a6.84,6.84,0,0,0,1.35-.25,1.55,1.55,0,0,0,1.22-1.64c0-1.66.13-3.33.1-5a64.92,64.92,0,0,1,.08-7.89,1.12,1.12,0,0,0,0-.41,13.58,13.58,0,0,1-.1-3.87c.06-1,.16-1.94.15-2.91a41.93,41.93,0,0,1,0-6.63,3.14,3.14,0,0,0,0-.68c0-.51-.07-1-.11-1.52-.17-2.22.29-4.42,0-6.65-.16-1.41.12-2.87,0-4.29a43.64,43.64,0,0,1,0-4.43c0-2.32,0-4.63,0-6.94h0V23.41c0-2.5,0-5,0-7.49,0-.18,0-.37,0-.55-.08-1.43-.17-2.86-.24-4.29a.89.89,0,0,1,1-1c.6,0,1.2.08,1.8.11,3.36.16,6.74-.22,10.1.05.19,0,.37,0,.56,0a37.58,37.58,0,0,1,6.79.14,3.63,3.63,0,0,0,2.49-.67A1.44,1.44,0,0,0,355,8.42C355.06,7.17,355.12,5.92,355.07,4.68ZM305.37,5a1.05,1.05,0,0,1-.27-.2,3,3,0,0,1,.28-.38,2.42,2.42,0,0,1,.14.4C305.52,4.89,305.39,5,305.37,5Zm2,.44c0-.24-.08-.48-.15-.92.52.3.42.6.46.85Zm3.47-.58h0l-.59-.27-.18-.14.2.12.58.27,0,0a9,9,0,0,1,1,0c.13,0,.24.2.48.42C311.6,5.63,311.17,5.44,310.85,4.87Zm2.09,1.7c-.05,0-.08-.1-.12-.16s.15-.09.22-.08.08.1.12.16S313,6.58,312.94,6.57Zm2.29,1.07c-.3.15-.56.15-.92-.47l.92.47h0l0,0Zm1.49.35-.11-.06.05-.11s.1,0,.11.06S316.74,8,316.72,8ZM319.4,5.7a2.93,2.93,0,0,1-.5.4l0,0,0,.1-.09-.09c-.19.07-.38,0-.78-.21h0a1.82,1.82,0,0,1-.07.25c0,.07-.05.14-.07.2a.56.56,0,0,1,0,.15c0,.26-.19.41-.45.31-.05,0-.08-.06-.12-.12h0a.38.38,0,0,1-.17-.33c.16-.38.36-.77.88-.46h0a1.69,1.69,0,0,1,1.38-.24h0l0,0Zm.3,2.13v-.1l.11,0Zm2.4-1.23a1.26,1.26,0,0,1-.23.39.59.59,0,0,1-.28.11l-.13.14-.06.26-.13-.08-.16.16c.18-1.2.18-1.2,1.06-1ZM329.57,5l.08.06-.09,0Zm-.13-.11.12,0s0,.07,0,.11l-.12,0Zm0,15-.8.1,0-.32h.8Zm-.25,36.88h.23v.81l-.34,0Zm-.12-21.06.08-.06.05,0,0,.06-.06.08Zm-.07-4c-.36.63-.36.63-.94.46C328.26,31.82,328.47,31.49,329,31.71Zm-.81-9.65,0-.1s.08,0,.1,0,0,.07,0,.1Zm.37,7.07a1,1,0,0,1,.11.17l0,0,.06-.06c0,.07.08.13.1.19s-.07.09-.07.09l-.18-.13.07-.07,0,0-.17-.11Zm-.08-1.07.06-.15.09.07s0,.08-.05.09A.18.18,0,0,1,328.46,28.06Zm.56,8.21,0,.09-.05-.08Zm.11-28.63h0l-.08,0Zm-.09,8c0,.05.11.09.16.15h0s.05.07,0,.1,0,0-.08.07l0-.12,0,0-.16-.15Zm-.21,3.07s-.07,0-.09,0,0-.06,0-.09l.1,0Zm-.22-10.42s0,.14,0,.21h0l-.07.08,0-.05-.1,0-.06-.32C328.45,8.23,328.55,8.2,328.61,8.24Zm-.19,8.89c.11.09.25.17.24.19l-.06.09.21,0c-.05.13-.08.26-.11.26a1.41,1.41,0,0,1-.32-.09l0,0c-.07,0-.14-.09-.14-.12A1.42,1.42,0,0,1,328.42,17.13Zm-.33,4.65.15.14a1.62,1.62,0,0,1-.18.1S328,22,328,22A1.77,1.77,0,0,1,328.09,21.78Zm.15,14.68c-.08,0-.16.09-.23.08a3.86,3.86,0,0,1-.42-.12l.38-.35Zm-.73,26.19s-.13,0-.2.06l0-.48.38-.07-.22.24C327.47,62.49,327.5,62.57,327.51,62.65Zm-.23-10.21c.07,0,.14-.13.2-.13s.14.08.2.13-.11.18-.13.17A2,2,0,0,1,327.28,52.44Zm0-12.93h0l.08-.22.13.11-.21.11,0,0-.26,0ZM327.15,35l.11,0V35Zm.19.16v-.07l.08,0Zm-.18-7.75c-.1-.05-.14-.22-.21-.34-.46.16-.88.52-1.46.31-.11-.63.32-.88.75-1s.66.22.75.63a1.43,1.43,0,0,1,.51.06c.08,0,.07.24.1.37C327.45,27.4,327.28,27.44,327.16,27.37Zm-1.19.44.11-.2.21.08a.77.77,0,0,1-.07.16h.18s-.08.07-.11.06-.05,0-.07-.06l0,0C326.13,27.9,326,27.84,326,27.81Zm.17,4.22-.1.08a1.74,1.74,0,0,1-.11-.18l.09-.08A1.88,1.88,0,0,1,326.14,32Zm.19,1.58c.06-.06.12-.16.19-.16s.12.1.19.16l-.06.09a.51.51,0,0,1,.07.17s-.06,0-.09.07l-.05-.12h0Zm.1,4.67-.09,0,0-.15a.2.2,0,0,1,.11,0S326.42,38.25,326.43,38.28Zm.12-5.33,0-.16s.08,0,.09.06,0,.06,0,.1Zm.08.15s0-.08,0-.09.06,0,.09,0l0,.09Zm.23,26.19,0,.1-.1,0s0-.08,0-.09S326.82,59.3,326.86,59.29Zm-1.07-28.13.07.05-.08,0Zm-.07,0-.1-.05.12-.13s.07.07.06.1S325.75,31.15,325.72,31.18ZM325.24,21s.06-.09.07-.08a.72.72,0,0,1,.19.11l-.14.15A.57.57,0,0,1,325.24,21Zm0,3.71s0,.07,0,.11h-.12l.06-.18S325.25,24.69,325.26,24.72Zm.27-3.6s.05.05.07.08l-.06.1-.11-.14S325.5,21.11,325.53,21.12Zm.48-2,0-.09.08,0a.25.25,0,0,1,0,.09S326,19.11,326,19.1Zm.37-6.29,0-.1s.08,0,.1,0,0,.06,0,.09Zm.49,6.89,0-.06v-.07l0,0,0,.05,0,.15S326.87,19.73,326.87,19.7Zm.25,5.2h.08l0,.07Zm.4-17.55-.06.08,0-.1Zm-.61-1.2.12.19-.09,0,.05.08-.09.07a.24.24,0,0,1,0-.1l0,0-.06,0s-.07-.08-.06-.09A1.14,1.14,0,0,1,326.91,6.15ZM326,7.35l0,0,0,0,.8,0s0,0,0,0h0a.75.75,0,0,1,.17-.14,1,1,0,0,1,.23,0,.73.73,0,0,1-.19.2.5.5,0,0,1-.21,0h-.05a.5.5,0,0,1-.24.19l.14,0-.13,0,0-.09c-.19,0-.37-.1-.55-.22h0l0,0-.2.35-.15-.14Zm-.18.46V7.9l-.09-.06ZM326,19l-.84.46c-.11-.13-.21-.2-.21-.27,0-.42.11-.64.57-.43h0Zm-.55-7.66-.05.1-.1,0ZM325.26,13l0,.13h-.19a.42.42,0,0,1,0-.12S325.22,13,325.26,13Zm-.13-.18a.49.49,0,0,1,0,.11s-.05.07-.07.11l-.17-.15Zm-.31,15.64s.05.08,0,.09-.06.05-.09.07-.06-.08,0-.1S324.78,28.43,324.82,28.41Zm-.17,10.73,0-.1.15.06Zm.24.54s-.06,0-.1,0l0-.16.09,0S324.91,39.67,324.89,39.68Zm-.15-5.45h.31a.78.78,0,0,1,0-.38c0-.06.21-.05.32-.08s0,.19,0,.24a1.81,1.81,0,0,1-.32.22v0Zm.67,20.09-.08,0,.08-.06Zm0,19.23s-.09,0-.12,0,0-.06-.07-.1l.19-.06Zm.31-1.6c-.14,0-.27-.17-.41-.27.1-.12.18-.33.3-.35s.3.11.57.24C325.92,71.76,325.8,72,325.68,72Zm.7-9.16s-.09,0-.09,0a.3.3,0,0,1,0-.11s.09,0,.09,0A.25.25,0,0,1,326.38,62.79Zm-.19-9.16c-.16-.3-.55-.56-.21-1a.32.32,0,0,1,.25,0c.44.29.6.64.26,1.1C326.35,53.69,326.21,53.69,326.19,53.63ZM326.57,70l.07-.09,0,.11Zm.19-2.17c-.11,0-.28-.34-.24-.39s.34-.34.51-.33.25.29.48.57C327.15,67.76,326.94,67.87,326.76,67.83ZM327.3,74l0-.1.08.07Zm-.11-.86-.05-.24.67-.12a1.24,1.24,0,0,1,.07.24Zm.53-11.72a1.4,1.4,0,0,1-.15-.33s.15-.16.2-.14a1.8,1.8,0,0,1,.33.26Zm0-19.93c0-.24.07-.49.13-.74,0-.07.11-.13.24-.27.12.17.23.25.23.32a3.16,3.16,0,0,1-.11.75A3.77,3.77,0,0,1,327.74,41.48Zm.6,21.44s-.07,0-.11,0l0-.17.1,0S328.36,62.91,328.34,62.92Zm.19,8.07-.12-.06,0-.11s.1,0,.11.06S328.54,71,328.53,71Zm.22-10.61a1.22,1.22,0,0,1,.19.12l-.17.13a1.74,1.74,0,0,1-.11-.18S328.73,60.37,328.75,60.38Zm0,7.11v-.08l.08,0Zm0-4.63,0,0-.09-.06.11,0,.63-.74C329.62,63,329.52,63.08,328.82,62.86Zm.77,2.71s-.08,0-.09,0,0-.06,0-.09l.1,0Zm.21-10.72-.21-.08s.05-.1.06-.1l.2.08ZM330.62,8c0,.08-.06.15-.08.22s-.17-.06-.19-.11v0l-.07,0a1.31,1.31,0,0,1-.13-.34s.15-.16.19-.14a1.75,1.75,0,0,1,.31.28l-.09,0ZM332.11,6l.08-.09.17.14s-.07.09-.08.08A1,1,0,0,1,332.11,6Zm.31.22a.12.12,0,0,1-.11,0s0-.06,0-.09l.11,0S332.43,6.25,332.42,6.25Zm3.06,1.07,0-.09,0,.1Zm-.08,0c0-.06-.15-.12-.15-.17s.1-.12.15-.18l.17.19Zm2.34,1.75,0-.09.1,0Zm3-5.17c.4.78-.18,1.12-.59,1.58C339.79,4.76,339.89,4.48,340.71,3.93Zm-.87,4.32c-.06-.1-.19-.2-.18-.28a.4.4,0,0,1,.22-.27c.08,0,.2.09.4.19Zm.86-3s0-.11.05-.11a1.76,1.76,0,0,1,.2.09c0,.06-.07.13-.11.2A.79.79,0,0,1,340.7,5.22Zm.62.85,0,0h0V5.79h0a1,1,0,0,1-.24,0,.57.57,0,0,1-.21-.12c.1,0,.2-.08.29-.06s.11.11.16.18h0v0l.41.06-.42.19v0h0l.61.68C341.22,6.8,341.22,6.8,341.32,6.07Zm2.5,1.16a.94.94,0,0,1-1.31-.48l1.35.11Zm.1-.7c-.05-.07-.12-.15-.12-.21s.12-.1.18-.15a2.39,2.39,0,0,0,.13.21Zm.63-1.19.1,0,0,.09Zm2.36,1.71a.11.11,0,0,1-.09,0s0-.06,0-.09l.1,0S346.93,7,346.91,7.05Zm1.33-1-.5,0v0l-.1,0,.08,0h0l-.3-.83h0L347.18,5l.26.19h0c.86-.18.9-.14.83.82l0,0Zm.8,1.7s0-.06,0-.1.08,0,.1,0,0,.07,0,.1S349.06,7.79,349,7.78Zm1.3-2.46a1.44,1.44,0,0,1-.21-.38c0-.06.18-.14.32-.24.06.15.16.27.13.36S350.42,5.23,350.34,5.32Zm1.19,1-.26-.2c.06-.06.11-.17.17-.18s.13.1.19.15A2.29,2.29,0,0,1,351.53,6.28ZM352.47,8l.1,0,0,.1Z"/>
  </g>
</svg>
