<svg width="1000" height="1000" viewBox="0 0 1000 1000" fill="none" xmlns="http://www.w3.org/2000/svg">
<circle cx="500" cy="500" r="500" fill="#F89626"/>
<path d="M365.062 426.357C375.982 426.357 386.438 426.357 397.591 426.357H436.161C442.434 426.357 448.94 426.357 455.446 424.963C458.166 425.182 460.901 424.8 463.457 423.843C466.012 422.886 468.326 421.379 470.233 419.427C472.141 417.475 473.595 415.127 474.493 412.55C475.391 409.973 475.71 407.23 475.428 404.516C475.428 383.139 473.569 361.995 472.175 340.618C470.781 319.241 468.225 296.005 467.063 273.467C464.74 233.966 462.649 194.465 460.79 154.965C459.63 146.64 459.63 138.195 460.79 129.87C462.417 122.435 468.69 122.435 473.105 127.779C478.31 137.447 482.216 147.76 484.722 158.45C515.857 231.41 546.528 304.602 577.663 377.795C597.412 424.266 617.394 470.738 636.912 517.209C650.156 549.274 646.438 555.083 612.05 555.548C588.815 555.548 566.974 555.548 544.436 555.548C538.163 555.548 518.413 553.921 513.766 558.336C512.927 559.662 512.447 561.183 512.372 562.751C512.066 576.044 512.921 589.339 514.928 602.484C514.928 617.122 516.787 631.993 517.948 646.632C520.039 675.676 522.131 704.488 524.454 733.533C527.01 767.922 529.798 803.24 532.587 836.699C532.587 844.832 533.98 852.964 534.91 859.935C534.91 863.653 537.466 871.32 534.91 874.341C526.08 883.635 517.948 851.105 515.857 845.297L498.199 798.825L462.649 705.883L429.888 619.214C413.468 575.995 397.126 532.777 380.862 489.558L368.547 457.028C364.83 447.269 360.182 437.743 356 428.216C358.979 427.408 362.005 426.787 365.062 426.357ZM536.304 416.366C532.283 419.345 528.478 422.607 524.919 426.125C524.919 426.125 528.637 432.399 529.334 432.166C533.498 430.047 537.464 427.559 541.183 424.731C539.731 421.77 538.102 418.899 536.304 416.134V416.366ZM536.304 492.579C535.241 493.962 534.307 495.44 533.516 496.994C533.516 496.994 534.91 499.317 535.142 499.317L539.789 496.064L536.304 492.579Z" fill="white"/>
</svg>
